STARTFONT 2.3
FONT -FontForge-Butcherman-Book-R-Normal--32-320-72-72-P-173-ISO10646-1
SIZE 32 72 72  4
FONTBOUNDINGBOX 49 62 -3 -21
COMMENT "Generated by fontforge, http://fontforge.sourceforge.net"
COMMENT "Copyright (c) 2011, Typomondo, with Reserved Font Name  "Butcherman"."
STARTPROPERTIES 41
FOUNDRY "FontForge"
FAMILY_NAME "Butcherman"
WEIGHT_NAME "Book"
SLANT "R"
SETWIDTH_NAME "Normal"
ADD_STYLE_NAME ""
PIXEL_SIZE 32
POINT_SIZE 320
RESOLUTION_X 72
RESOLUTION_Y 72
SPACING "P"
AVERAGE_WIDTH 173
CHARSET_REGISTRY "ISO10646"
CHARSET_ENCODING "1"
FONTNAME_REGISTRY ""
CHARSET_COLLECTIONS "ISO8859-2 ISO8859-9 ISO8859-4 ISO10646-1"
BITS_PER_PIXEL 4
FONT_NAME "Butcherman-Regular"
FACE_NAME "Butcherman Regular"
COPYRIGHT "Copyright (c) 2011, Typomondo, with Reserved Font Name  "Butcherman"."
FONT_VERSION "001.004"
FONT_ASCENT 26
FONT_DESCENT 6
UNDERLINE_POSITION -3
UNDERLINE_THICKNESS 2
X_HEIGHT 23
CAP_HEIGHT 23
DEFAULT_CHAR 3
RAW_ASCENT 799
RAW_DESCENT 200
NORM_SPACE 5
RELATIVE_WEIGHT 40
RELATIVE_SETWIDTH 50
SUPERSCRIPT_X 0
SUPERSCRIPT_Y 11
SUPERSCRIPT_SIZE 19
SUBSCRIPT_X 0
SUBSCRIPT_Y 2
SUBSCRIPT_SIZE 19
AVG_LOWERCASE_WIDTH 185
AVG_UPPERCASE_WIDTH 177
ENDPROPERTIES
CHARS 331
STARTCHAR NULL.dup1
ENCODING 0
SWIDTH 161 0
DWIDTH 5 0
BBX 1 1 0 0
BITMAP
00
ENDCHAR
STARTCHAR CR
ENCODING 13
SWIDTH 161 0
DWIDTH 5 0
BBX 1 1 0 0
BITMAP
00
ENDCHAR
STARTCHAR space
ENCODING 32
SWIDTH 161 0
DWIDTH 5 0
BBX 1 1 0 0
BITMAP
00
ENDCHAR
STARTCHAR exclam
ENCODING 33
SWIDTH 350 0
DWIDTH 11 0
BBX 11 39 0 1
BITMAP
000361210000
17BFFFFFB600
2FFFFFFFFF00
0EFFFFFFFE10
0BFFFFFFF700
04FFFFFFF100
00AFFFFFF300
00EFFFFFF000
01FFFFFFD000
03FFFFFFB000
04FFFFFFA000
00EFFFFF8000
009FFFFF5000
005FFFFF1000
001FFFFF2000
000DFFFF6000
000BFFFE2000
0009FFFE1000
0009FFFB0000
0008FFFD0000
0009FFFE0000
0009FFFD0000
0008FFFB0000
0008FFF90000
0005EDF50000
000000550000
000000000000
000000000000
000013564100
18EEFFFFFC00
09FFFFFFFA00
03FFFFFFF900
00DFFFFFF900
00CFFFFFFE00
00BFFFFFFD00
00BFFFFFFC00
00BFFFFFFB00
00CFFFFEFA00
007873002100
ENDCHAR
STARTCHAR quotedbl
ENCODING 34
SWIDTH 541 0
DWIDTH 17 0
BBX 15 13 1 11
BITMAP
176797402669A620
8FFFFFB08FFFFF80
5FFFFFA04FFFFF80
1FFFFF901FFFFF70
0DFFFF800BFFFF40
0AFFFF5008FFFF10
08FFFF2004FFFF00
05FFFF1001FFFD00
02FFFE0000DFFA00
00EFFC0000BFF800
00BFFB00009FF500
007EA600009CA100
0011000000100000
ENDCHAR
STARTCHAR numbersign
ENCODING 35
SWIDTH 583 0
DWIDTH 19 0
BBX 19 30 0 -4
BITMAP
00000000000000010000
00000001CC00003DD400
00000006FB00006FF200
0000000BF80000AFE000
0000001FF50001FFA000
0000006FF20007FF6000
0000008FE00007FF2000
001555BFD2334AFF3210
003FFFFFFFFFFFFFFE10
004FFFFFFFFFFFFFF600
004FFFFFFFFFFFFFF300
005FFFFFFFFFFFFFF100
004FEFFFFFFFFFEFF100
00016FF8644DFF576000
0000AFD0000DFF100000
0000EF90000FFC000000
0003FF40003FF6000000
0007FF30005FF4000000
000BFD00008FE0000000
AEDFFFBBCCEFEEE60000
AFFFFFFFFFFFFFC00000
BFFFFFFFFFFFFF700000
9EDFFFFDEFFFEF700000
008F833136F923100000
01EF30000BF400000000
06FD00002FF100000000
0BFA00006FC000000000
0DE700009F9000000000
056300009F5000000000
00000000011000000000
ENDCHAR
STARTCHAR dollar
ENCODING 36
SWIDTH 534 0
DWIDTH 17 0
BBX 15 41 1 -9
BITMAP
0000000020000000
0000003EA0000000
0000007FB0000000
0000008FC0000000
0000009FB0000000
000000AF90000000
000000AFA0000000
0000007FD0000000
0000007FD7300000
00018DFFFFFA1000
003EFFFFFFFFE400
03EFFFFFFFFFFE40
08FFFFFFFFFFFFD0
1EFFFFFFFFFFFFB0
8FFFFFFFFFFFFFC0
AFFFFFFFFFFFFFB0
CFFFFFFFFFFFFFA0
DFFFFFFFFFFFFF80
BFFFFFE8EFFFFF70
AFFFFF905FFFFF60
8FFFFFB02BB9CD80
4FFFFFFA96100030
1FFFFFFFFFD30000
05EFFFFFFFFE2000
003CFFFFFFFFB000
000039CFFFFFF200
000000029FFFF500
08DDDD804FFFF600
0BFFFFB08FFFF400
05FFFFFBFFFFB000
00CFFFFFFFFF2000
003FFFFFFFFC0000
0006E7BFEA930000
0000105F70000000
0000007F60000000
0000009F60000000
000000BF70000000
000000CF70000000
000000BF70000000
000000AE70000000
0000004330000000
ENDCHAR
STARTCHAR percent
ENCODING 37
SWIDTH 828 0
DWIDTH 27 0
BBX 25 29 1 -3
BITMAP
00000000000000010000000000
000000000000003DD300000000
00000000000000BFE000000000
04BDCB30000005FFC000000000
3FFFFFE4000008FF9000000000
CFFFFFFF30000CFF2000000000
FFFFFFFF40000EFB0000000000
DFFFFFFF60000FFE0000000000
CFFDEFFF60003FFA0000000000
CFF25FFF60005FF50000000000
CFF13FFF50009FE00018BA2000
BFE03FFF3002FF9000BFFFE200
9FF13FFE0007FF3005FFFFFE00
7FF57FF8000CFD0009FFFFFF00
4FFEEFF3003FF70008FFFFFF30
09DFFF90009FF20007FFFFFF20
0036E61001EFD00006FFCFFF30
0000000006FFC00005FFBFFF30
000000000CFF80000BFFBFFF50
000000002FFF10001FF91EFF50
000000000AFB00001FFA2FFD00
000000000BF500000EFFDFF900
000000001FE1000005AFFFE100
000000006F9000000005EB1000
00000000DF7000000000000000
00000004FF2000000000000000
00000005FF0000000000000000
00000007EC0000000000000000
00000003470000000000000000
ENDCHAR
STARTCHAR ampersand
ENCODING 38
SWIDTH 522 0
DWIDTH 17 0
BBX 15 17 1 4
BITMAP
0000023100000000
00003FFFFD000000
00003FFFFF000000
00002FFFFF000000
00002FFFFC000000
00001FFFFC000000
9EEEEFFFFEBBCD50
AFFFFFFFFFFFFF50
AFFFFFFFFFFFFF50
AFFFFFFFFFFFFF40
AFFFFFFFFFFFFF30
4ABBCFFFFFACCC10
00003FFFFE000000
00003FFFFE000000
00003FFFFD000000
00003FFFFA000000
00002CCCC5000000
ENDCHAR
STARTCHAR quotesingle
ENCODING 39
SWIDTH 300 0
DWIDTH 10 0
BBX 7 13 1 11
BITMAP
36679620
7FFFFFC0
2FFFFFC0
0FFFFFC0
0CFFFFB0
0AFFFF70
07FFFF50
05FFFF40
02FFFF20
00FFFF10
00CFFE00
009DA900
00100000
ENDCHAR
STARTCHAR parenleft
ENCODING 40
SWIDTH 372 0
DWIDTH 12 0
BBX 11 32 1 -4
BITMAP
000000000320
00000004BF50
000004DFFF40
00006FFFFF30
0003FFFFFF10
000CFFFFFE00
005FFFFFFC00
00CFFFFFFA00
07FFFFFFF800
0DFFFFFFF600
1FFFFFFFF500
3FFFFFFEB400
5FFFFFD20000
7FFFFF600000
9FFFFF200000
AFFFFF000000
BFFFFE000000
BFFFFD000000
BFFFFC000000
BFFFFC000000
AFFFFD000000
8FFFFF000000
5FFFFF200000
1FFFFF800000
0AFFFFE00000
03FFFFFB1000
00CFFFFFA000
005FFFFFE000
000BFFFFF300
0002EFFFF500
00004CFFF300
0000005A7000
ENDCHAR
STARTCHAR parenright
ENCODING 41
SWIDTH 338 0
DWIDTH 11 0
BBX 10 32 0 -5
BITMAP
0962100000
1FFFF90000
2FFFFFB000
0DFFFFFB00
0CFFFFFF80
0BFFFFFFE0
0AFFFFFFF3
09FFFFFFF4
08FFFFFFF4
07FFFFFFF4
07FFFFFFF3
037CFFFFF3
0001DFFFF3
00008FFFF2
00005FFFF1
00004FFFF0
00003FFFF0
00003FFFE0
00003FFFC0
00004FFFB0
00007FFF90
00009FFF70
0000BFFF50
0000EFFF20
0003FFFD00
0005FFF900
033AFFF300
1CFFFF7000
3FFFFA0000
5FFFD10000
3EEE300000
0120000000
ENDCHAR
STARTCHAR asterisk
ENCODING 42
SWIDTH 513 0
DWIDTH 16 0
BBX 16 20 0 6
BITMAP
0000000000520000
0000030000F81000
00007F6001FF7000
0004FFD007FF8000
0002FFF61EFF3000
0000AFFC7FFD0000
00005FFFFFF90000
00000EFFFFF40000
2CA86CFFFFD8A751
0FFFFFFFFFFFFFFA
2FFFFFFFFFFFFFF3
09DEEEFFFFFEDCC1
000005FFFFD00000
000009FFFFF60000
00000CFFCFFB0000
00003FFE4FFF4000
0000AFFA0CFF8000
0000EFF503FE8000
000132C000210000
0000001000000000
ENDCHAR
STARTCHAR plus
ENCODING 43
SWIDTH 458 0
DWIDTH 15 0
BBX 13 14 1 5
BITMAP
00006644200000
0000DFFF800000
0000CFFF800000
0000CFFF600000
4777DFFF845710
8FFFFFFFFFFF20
8FFFFFFFFFFF20
8FFFFFFFFFFF10
8FFFFFFFFFFF00
1556EFFF935600
0000DFFF700000
0000DFFF700000
0000DFFF700000
00006777200000
ENDCHAR
STARTCHAR comma
ENCODING 44
SWIDTH 361 0
DWIDTH 12 0
BBX 9 16 1 -5
BITMAP
3CEDB98B70
4FFFFFFFB0
5FFFFFFFC0
5FFFFFFFD0
6FFFFFFFE0
6FFFFFFFD0
7FFFFFFFD0
8FFFFFFFD0
8FFFFFFFC0
28669CFFC0
000008FFA0
00000BFF80
00000EFF50
00001FFF30
00003FFF10
00001A9800
ENDCHAR
STARTCHAR hyphen
ENCODING 45
SWIDTH 478 0
DWIDTH 15 0
BBX 13 7 1 9
BITMAP
06666345434430
1FFFFFFFFFFF60
2FFFFFFFFFFF10
2FFFFFFFFFFC00
3FFFFFFFFFFB00
3FFFFFFFFFFB00
054ABB6986B700
ENDCHAR
STARTCHAR period
ENCODING 46
SWIDTH 374 0
DWIDTH 12 0
BBX 10 11 1 1
BITMAP
0000234300
5BDDFFFFF3
2FFFFFFFF3
0EFFFFFFF3
0DFFFFFFF1
0BFFFFFFF6
0AFFFFFFF5
09FFFFFFF4
08FFFFFFF3
07FFFFFFF2
0476400220
ENDCHAR
STARTCHAR slash
ENCODING 47
SWIDTH 291 0
DWIDTH 9 0
BBX 11 29 -1 -3
BITMAP
000000001000
00000002CD30
00000007FF00
0000000CFD00
0000003FFA00
0000008FF400
000000AFD000
0000009FE000
000001FFB000
000003FF6000
000008FF2000
00001EFC0000
00009FF70000
0000DFF20000
0001FFD00000
0005FF800000
0008FF300000
000CFF100000
001FFB000000
004FF6000000
001FF2000000
004FB0000000
00AF70000000
01EF30000000
06FE00000000
0BF800000000
1FF500000000
3FE300000000
149000000000
ENDCHAR
STARTCHAR zero
ENCODING 48
SWIDTH 528 0
DWIDTH 17 0
BBX 15 26 1 -2
BITMAP
0000379857100000
000AFFFFFFE30000
00AFFFFFFFFE5000
07FFFFFFFFFFC100
1EFFFFFFFFFFFD10
5FFFFFFFFFFFFF20
8FFFFFFFFFFFFF10
7FFFFFFFFFFFFF20
6FFFFFFFFFFFFF50
4FFFFFFFFFFFFF40
4FFFFFBAFFFFFF30
3FFFFE10EFFFFF50
3FFFF900BFFFFF40
2FFFF700AFFFFF30
2FFFF7007FFFFF20
1FFFF7005FFFFF00
0FFFF7007FFFFD00
0DFFF7009FFFFA00
0AFFFB00CFFFF300
07FFFE00FFFFC000
05FFFF55FFFF8000
04FFFFFFFFFF6000
00DFFFFFFFFE0000
0057BFFFFFF40000
00002AAFFE610000
0000005DE2000000
ENDCHAR
STARTCHAR one
ENCODING 49
SWIDTH 366 0
DWIDTH 12 0
BBX 11 25 0 -1
BITMAP
000000389700
000048FFFE00
049EFFFFFB00
CFFFFFFFFD00
BFFFFFFFFC00
3FCDFFFFFF40
0209FFFFFF40
0007FFFFFF20
0006FFFFFF00
0004FFFFFD00
0003FFFFFB00
0001FFFFF800
0000FFFFF400
0000EFFFF700
0000DFFFF700
0000BFFFF600
0000AFFFF200
00009FFFE000
00007FFFF300
00006FFFF200
00005FFFF100
00004FFFF000
00002FFFD000
0000192FF100
000000025300
ENDCHAR
STARTCHAR two
ENCODING 50
SWIDTH 575 0
DWIDTH 18 0
BBX 17 28 1 -4
BITMAP
00004BBBA730000000
000AFFFFFFF8000000
02BFFFFFFFFF910000
07FFFFFFFFFFFA0000
3FFFFFFFFFFFFF3000
4FFFFFFFFFFFFF8000
4FFFFFFFFFFFFFB000
4FFFFFFFFFFFFFD000
4FFFFFFFFFFFFFC000
4FFFFFFFFFFFFFB000
3FFFFFFCFFFFFF8000
1FFFFF908FFFFF6000
0FFFFF204FFFFF4000
0CFFFE02EFFFFF1000
0311320AFFFFFD0000
00000008FFFFF70000
0000000AFFFFE10000
0000002FFFFF600000
000000CFFFFC000000
00000AFFFFFB420370
0221BFFFFFFFFFFFB0
0DFFFFFFFFFFFFFF90
1FFFFFFFFFFFFFFF60
2FFFFFFFFFFAFFFF30
6FFFFFDEDB33CAFF20
8EFFC6594101A1F600
00230100000031E100
000000000000002000
ENDCHAR
STARTCHAR three
ENCODING 51
SWIDTH 517 0
DWIDTH 17 0
BBX 14 26 1 -2
BITMAP
00005888620000
004EFFFFFE5000
06FFFFFFFFF600
6FFFFFFFFFFF40
EFFFFFFFFFFFE1
BFFFFFFFFFFFF7
AFFFFFFFFFFFFB
8FFFFFFFFFFFFD
7FFFFFFFFFFFFE
6FFFFFFFFFFFFE
5FFFFFDBFFFFFE
4FFFFF31FFFFFE
3FFEFB02FFFFFB
3B400006FFFFF6
0000027DFFFFF2
000007FFFFFFD0
000006FFFFFFF1
00000189BFFFF8
000000000DFFFB
000267750CFFFB
003EFFF909FFF8
000CFFFD5EFFF3
0006FFFFFFFFA0
0000DFFFFFFF30
00007FFFFFFB00
00000995221200
ENDCHAR
STARTCHAR four
ENCODING 52
SWIDTH 466 0
DWIDTH 15 0
BBX 14 32 1 -8
BITMAP
2AA99987A8DDB1
0AFFFFFFFFD610
009FFFFFFF2000
01DFFFFFF70000
03FFFFFFB00000
04FFFFFFB00000
03FFFFFF900000
06FFFFFF200000
09FFFFFB000000
0BFFFFF8000000
0AFFFFF5000000
0AFFFFF5000000
03FFFFF1000000
06FFFFC2664100
09FFFF9BFFFF20
0BFFFF5AFFFB00
0DFFFF29FFF600
0EFFFE16FFF400
2FFFFC06FFF200
4FFFFFBBFFF552
6FFFFFFFFFFFE2
8FFFFFFFFFFFC0
BFFFFFFFFFFFC0
DFFFFFFFFFFFC0
663138ACFFFEC0
00000001FFC250
00000000EF7000
00000000DF7000
00000000DF6000
00000000CF6000
000000008B6000
00000000012000
ENDCHAR
STARTCHAR five
ENCODING 53
SWIDTH 583 0
DWIDTH 19 0
BBX 17 26 1 -2
BITMAP
3AABCCCCA975443210
5FFFFFFFFFFFFFFFD0
4FFFFFFFFFFFFFFFA0
5FFFFFFFFFFFFFFF80
3FFFFFFFFFFFFFFF60
2EFFFFFFFFFFFFFF30
5FFFFFFFFFFFFFFF10
5FFFFFFFFFFFFFFE00
3FFFFFFFFFFFFFFC00
1FFFFFFFFFFFFFFA00
0FFFFFFFFFFFFFF800
2FFFFF479ABCDEF600
8FFFFF100000001100
0FFFFF100000000000
0DFFFF9ADDDDD00000
0DFFFFFFFFFFA00000
04FFFFFFFFFFD00000
01555689AEFFF50000
000000000CFFF80000
000167760AFFF80000
002EFFFA07FFF50000
000BFFFD6DFFE10000
0004FFFFFFFF800000
0000BFFFFFFF200000
00005FFFFFFA000000
000007953212000000
ENDCHAR
STARTCHAR six
ENCODING 54
SWIDTH 582 0
DWIDTH 19 0
BBX 17 27 1 -3
BITMAP
000035654420000000
002DFFFFFFFD600000
03BFFFFFFFFFFB1000
4FFFFFFFFFFFFFB000
8FFFFFFFFFFFFFF700
AFFFFFFFFFFFFFFF20
BFFFFFFFFFFFFFFF80
BFFFFFFFFFFFFFFF50
9FFFFFFFFFFFFFFF10
8FFFFFFFFFFFFFFF00
6FFFFFFDFFFFFFFC00
4FFFFFB05FFFFFF700
1FFFFFA00BFFFFE100
0DFFFF8006FFFFD000
0BFFFF5003ACFFE000
06FFFF978510355100
01FFFFFFFFFDB92000
00CFFFFFEFFFFFD000
00AFFFF202AFFFF200
009FFFF2008FFFF100
008FFFF5009FFFD000
006FFFFC25DFFFD000
000EFFFFFFFFFFE000
0009FFFFFFFFFFE000
0002CFFFFFFFFFB000
00003DAEBFE9FA2000
000003160501300000
ENDCHAR
STARTCHAR seven
ENCODING 55
SWIDTH 624 0
DWIDTH 20 0
BBX 20 28 0 -4
BITMAP
0002345678ABCCCCBBA7
5DFFFFFFFFFFFFFFFFF8
3FFFFFFFFFFFFFFFFFF4
1FFFFFFFFFFFFFFFFFE1
0DFFFFFFFFFFFFFFFF80
0AFFFFFFFFFFFFFFFF30
07FFFFFFFFFFFFFFFF30
05FFFFFFFFFFFFFFFD00
03FFFFFFFFFFFFFFF700
02FFFFFFFFFFFFFFF100
00FFFFFFFFFFFFFFA000
00DFEDCBA868FFFF9000
001100000009FFFF8000
00000000000EFFFF1000
00000000004FFFFA0000
0000000000AFFFF30000
0000000002FFFFA00000
0000000007FFFF500000
000000000CFFFC000000
000000002FFFF3000000
000000008FFFC0000000
00000000BFFF80000000
00000002FFFE10000000
00000009FFF900000000
0000000DFFF300000000
0000005FFFD000000000
0000008BCF8000000000
00000000020000000000
ENDCHAR
STARTCHAR eight
ENCODING 56
SWIDTH 459 0
DWIDTH 15 0
BBX 13 27 1 -3
BITMAP
00279BAA850000
0AFFFFFFFFD400
7FFFFFFFFFFE10
CFFFFFFFFFFF50
CFFFFFFFFFFF60
BFFFFFFFFFFF50
9FFFFFFFFFFF40
7FFFFFFFFFFF20
5FFFFFFFFFFF00
2FFFFFFFFFFC00
0FFFF76DFFFA00
0CFFF508FFF700
09FFF609FFF400
07FFF808FFF100
03EFFFEEFFC000
008FFFFFFF4000
006EFFFFFC1000
00DFFEFFFF7000
00EFE22EFF8000
00DFF10BFF7000
00CFF20DFF6000
00BFF73EFF5000
009FFFFFFF4000
003FFFFFFD0000
0008FEBFF50000
00002702200000
00000500000000
ENDCHAR
STARTCHAR nine
ENCODING 57
SWIDTH 584 0
DWIDTH 19 0
BBX 17 29 1 -5
BITMAP
000001358974000000
0001AFFFFFFF700000
000BFFFFFFFFFE4000
008FFFFFFFFFFFE400
06FFFFFFFFFFFFFA00
0DFFFFFFFFFFFFF900
5FFFFFFFFFFFFFFD00
9FFFFFFFFFFFFFFF00
8FFFFFFFFFFFFFFF20
AFFFFFFFFFFFFFFF40
AFFFFFFABFFFFFFF40
9FFFFFE10AFFFFFF50
6FFFFFF104FFFFFF40
2FFFFFFB89FFFFFF30
0AFFFFFFFFFFFFFF10
02DFFFFFFFFFFFFB00
002DFFFFFFFFFFF500
0000376337FFFFE000
0000122005FFFF9000
05CFFFF206FFFF5000
09FFFFF31DFFFE0000
03FFFFFDDFFFF70000
00CFFFFFFFFFA00000
004FFFFFFFFF300000
0005E99ABB8D000000
000020062205000000
000000052100000000
000000053000000000
000000011000000000
ENDCHAR
STARTCHAR colon
ENCODING 58
SWIDTH 386 0
DWIDTH 12 0
BBX 10 27 1 1
BITMAP
0000032000
48ABEFFFD4
5FFFFFFFF5
0DFFFFFFF4
08FFFFFFF3
0BFFFFFFF5
0BFFFFFFF6
09FFFFFFF6
07FFFFFFF7
07FFFFFFF7
06B9522530
0000000000
0000000000
0000000000
0000000000
0000000000
0001354310
5CEFFFFFE3
2FFFFFFFF1
2FFFFFFFF0
0FFFFFFFF3
0DFFFFFFF6
0CFFFFFFF5
09FFFFFFF4
05FFFFFFF2
05FFFFDFF1
0488410220
ENDCHAR
STARTCHAR semicolon
ENCODING 59
SWIDTH 375 0
DWIDTH 12 0
BBX 10 33 1 -5
BITMAP
0000253300
49CDFFFFC1
8FFFFFFFF1
3FFFFFFFF2
0DFFFFFFE0
0CFFFFFFF1
0CFFFFFFF1
0EFFFFFFF1
0CFFFFFFF1
0BFFFFFFF1
09D7322420
0100000000
0000000000
0000000000
0000000000
0000000000
0010000000
2CEB87BDA0
3FFFFFFFF0
1FFFFFFFF0
0DFFFFFFF0
0DFFFFFFF2
1FFFFFFFE1
2FFFFFFFE0
4FFFFFFFF0
6FFFFFFFE0
18769CFFF1
000006FFD0
00000AFFB0
00000DFF90
00000FFF70
00000FFF50
000009BD30
ENDCHAR
STARTCHAR less
ENCODING 60
SWIDTH 459 0
DWIDTH 15 0
BBX 14 18 0 2
BITMAP
00000898888775
00000FFFFFFFF4
00002FFFFFFF70
00008FFFFFF500
0002FFFFFFC000
001CFFFFFF2000
01CFFFFFF80000
0BFFFFFFA00000
1FFFFFFE100000
09FFFFFF500000
02EFFFFFF00000
00BFFFFFF30000
000AFFFFFC0000
0001DFFFFFA000
00003EFFFFF900
000004FFFFFF90
0000005EFFFFFA
00000003758C84
ENDCHAR
STARTCHAR equal
ENCODING 61
SWIDTH 485 0
DWIDTH 16 0
BBX 12 11 2 9
BITMAP
566744553562
EFFFFFFFFFF5
EFFFFFFFFFF4
FFFFFFFFFFF3
346775643681
000000000000
100001210120
FFEDDFFFEFF4
FFFFFFFFFFF4
FFFFFFFFFFF3
44BBB7A88791
ENDCHAR
STARTCHAR greater
ENCODING 62
SWIDTH 432 0
DWIDTH 14 0
BBX 13 18 0 2
BITMAP
19AAAA9B600000
08FFFFFFF00000
01DFFFFFE10000
003EFFFFF70000
0004FFFFFF3000
00009FFFFFC100
00001EFFFFFA00
000004FFFFFF70
0000009FFFFFC0
000004EFFFFF60
000006FFFFFF10
00000DFFFFFA10
00009FFFFF8000
0009FFFFFD0000
01AFFFFFF60000
0AFFFFFFB00000
0AFFFFFD100000
03566352000000
ENDCHAR
STARTCHAR question
ENCODING 63
SWIDTH 577 0
DWIDTH 18 0
BBX 16 29 1 -4
BITMAP
00018EEEEB710000
002EFFFFFFFB1000
03EFFFFFFFFFD500
0BFFFFFFFFFFFE10
5FFFFFFFFFFFFF80
4FFFFFFFFFFFFFC0
5FFFFFFFFFFFFFF0
5FFFFFFFFFFFFFF1
3FFFFFFFFFFFFFF0
0FFFFFD6DFFFFFE0
0BFFFF505FFFFFC0
05A8A9506FFFFFA0
00000000BFFFFF40
00000002EFFFF900
00000009FFFFF200
0000000CFFFFB000
0000000FFFFE2000
0000001FFFF50000
0000005FFF900000
0000005CA7200000
0000000000000000
0000000000000000
000049ACDB500000
00004FFFFF900000
00000DFFFF800000
00000AFFFF900000
00000AFFFFA00000
000009FFFF800000
0000046414100000
ENDCHAR
STARTCHAR at
ENCODING 64
SWIDTH 930 0
DWIDTH 30 0
BBX 28 35 1 -7
BITMAP
0000000000366543100000000000
000000002CFFFFFFFA2000000000
00000006FFFFFFFFFFE500000000
0000008FFFFFFFFFFFFF70000000
000008FFFFEB87669EFFF9000000
00006FFFB400000001AFFF900000
0002EFE5002565674109FFF70000
000BFF301AFFFFFFFD00BFFF4000
004FF600BFFFFFFFFFB12FFFD100
00CFC006FFFFFFFFFFF709FFF900
03FF500BFFFFFFFFFFF703FFFF20
09FF100DFFFFFFFFFFF700DFFF90
0EFC000DFFFFFFFFFFF3009FFFE0
4FF9000BFFFFFFFFFFF1008FFFF4
8FF70007FFFFFEFFFFE0006FFFF8
BFF60003FFFFD27FFFC0005FFFFA
EFF50000DFFF504FFFB0003FFFFC
CFF40000DFFF200FFF90001FFFFC
7FF50001AA41123FFF80000DFFFB
8FF60000279CFFFFFF70000BFFF9
8FF90000BFFFECEFFFC00008FFF7
7FFB0000CFFF000DFFF40006FFF4
6FFF1000BFFF002FFFFC0004FFF1
4FFF4000BFFE409FFFFFA104FFB0
1FFF9000CFFFFEFFFFEFFEACFF60
0BFFE100BFFFFFFFFF7FFFFFFE10
06FFF7006FFFFFFFF71EFFFFC400
00DFFE1004A3A6957004BC940000
006FFF9000000000000000000000
000BFFF500000000000000000000
0002EFFF50000000000000000000
00003EFFFB6444568B5000000000
000003DFFFFFFFFFFFD000000000
00000018FFFFFFFFFFF400000000
0000000028CFFFECA61000000000
ENDCHAR
STARTCHAR A
ENCODING 65
SWIDTH 494 0
DWIDTH 16 0
BBX 15 31 0 -7
BITMAP
0000011110000000
2ADEFFFFFFEDB950
02CFFFFFFFFFFC10
000AFFFFFFFFE200
000AFFFFFFFF9000
0009FFFFFFFF6000
0007FFFFFFFF4000
0007FFFFFFFF2000
000AFFFFFFFF2000
000AFFFFFFFF0000
0008FFFFFFFE0000
0007FFFEFFFD0000
0007FFFBFFFC0000
0008FFF7DFFC0000
0009FFF3CFFD0000
000AFFE1BFFC0000
000BFFE0AFFE0000
0007FFA19FFB0000
0009FFFFFFFD0000
000DFFFFFFFC0000
000DFFFFFFFA0000
000BFFFFFFF80000
0008FFF7FFF40000
0006FFD09FF10000
0006FF50AFF10000
0006CF209ED00000
0004872045B00000
0001712004900000
0000200018400000
0000000041000000
0000000040000000
ENDCHAR
STARTCHAR B
ENCODING 66
SWIDTH 517 0
DWIDTH 17 0
BBX 16 26 0 -2
BITMAP
0001358ABAA85000
1ADFFFFFFFFFFD40
07FFFFFFFFFFFFE1
00BFFFFFFFFFFFF5
003FFFFFFFFFFFF7
000BFFFFFFFFFFF5
0008FFFFFFFFFFF4
000CFFFFFFFFFFF2
0009FFFFFFFFFFF0
0007FFFFFFFFFFC0
0006FFFF76DFFFA0
0004FFFF508FFF70
0004FFFF609FFF40
0004FFFF809FFF10
0004FFFFFEEFFC00
0005FFFFFFFFF400
0004FFFFFFFFC100
0000FFFFEFFFF700
0000FFFE22EFF800
0000DFFF10BFF700
0000AFFF20DFF600
0000AFFF73EFF500
0000AFFFFFFFF400
0000AFDFFFFFD000
0000751DEBFF5000
0000000220220000
ENDCHAR
STARTCHAR C
ENCODING 67
SWIDTH 504 0
DWIDTH 16 0
BBX 16 28 0 -4
BITMAP
0000039ABBB40000
00009FFFFFFFA100
002AFFFFFFFFFB20
01DFFFFFFFFFFF70
06FFFFFFFFFFFFF4
0CFFFFFFFFFFFFF4
0FFFFFFFFFFFFFF5
1FFFFFFFFFFFFFF5
1FFFFFFFFFFFFFF5
0EFFFFFFFFFFFFF4
0CFFFFFFBFFFFFF3
0AFFFFF809FFFFF2
08FFFFF302FFFFF0
03FFFFF500EFFFD0
04FFFFF500231130
01FFFFF200000000
00DFFFF100000000
00AFFFF201530000
008FFFF304FFFC20
004FFFF507FFFD10
003FFFFA1DFFFB00
000AFFFFDFFFF700
0007FFFFFFFFD200
0004EFFFFFFE4000
000016E6BEF70000
000000907B500000
0000009098300000
0000002014100000
ENDCHAR
STARTCHAR D
ENCODING 68
SWIDTH 522 0
DWIDTH 17 0
BBX 16 29 1 -5
BITMAP
0000001345630000
478ACEFFFFFF4000
8FFFFFFFFFFFE300
7FFFFFFFFFFFFF50
1FFFFFFFFFFFFFA0
0BFFFFFFFFFFFFF1
06FFFFFFFFFFFFF2
02FFFFFFFFFFFFF1
00FFFFFFFFFFFFF1
00DFFFFFFFFFFFE0
00CFFFFFCEFFFFC0
00BFFFFC01EFFF90
00AFFFF8009FFF60
008FFFF5008FFF30
006FFFF5007FFF00
005FFFF4007FFC00
003FFFF6009FF900
001FFFF500DFF600
000EFFF501FFF400
000BFFF904FFF300
0008FFFEBFFFF200
0007FFFFFFFFF100
0009FFFFFFFFA000
0008F62AFFFE1000
0008B009FEA30000
0005800899000000
0003700777000000
0001200650000000
0000000230000000
ENDCHAR
STARTCHAR E
ENCODING 69
SWIDTH 570 0
DWIDTH 18 0
BBX 17 26 1 -2
BITMAP
013567888764210000
CFFFFFFFFFFFFFDA10
5FFFFFFFFFFFFFF700
0AFFFFFFFFFFFFF100
04EFFFFFFFFFFFD000
01FFFFFFFFFFFFA000
00FFFFFFFFFFFF5000
00FFFFFFFFFFFF1000
00EFFFFFFFFFFB0000
00DFFFFFFFFFF70000
00CFFFFB9CFFF40000
00AFFFF70015820000
009FFFF70000000000
008FFFFB9983000000
005FFFFFFFF9000000
005FFFFFFFF7000000
003FFFFFFFF7000000
001FFFFDBBD5000000
000EFFF30000000000
000CFFF41100000000
000BFFFDFFFC200000
0009FFFFFFFF100000
0008FCFFFFFA000000
000860AFFABA000000
000740ADB038000000
000200742044000000
ENDCHAR
STARTCHAR F
ENCODING 70
SWIDTH 559 0
DWIDTH 18 0
BBX 17 27 0 -3
BITMAP
001425555024210000
2DFFFFFFFFEFFFDB50
05FFFFFFFFFFFFFE10
005FFFFFFFFFFFF900
000AFFFFFFFFFFF400
0004FFFFFFFFFFF100
0002FFFFFFFFFFE000
0002FFFFFFFFFFC000
0002FFFFFFFFFFB000
0002FFFFFFFFFF9000
0001EFFFFFFFFF8000
0000AFFFF786AF9000
00007FFFF600015000
00007FFFFDBBB90000
00007FFFFFFFFB0000
00007FFFFFFFFB0000
00006FFFFFFFFA0000
00004FFFFC79AA0000
00000FFFF800010000
00002FFFF700000000
00004FFFF800000000
00007FFFF900000000
00007FFFFA00000000
00007FFFFB00000000
0000768F9900000000
0000600A0600000000
000010030000000000
ENDCHAR
STARTCHAR G
ENCODING 71
SWIDTH 499 0
DWIDTH 16 0
BBX 15 28 1 -4
BITMAP
0000265640000000
0039FFFFFD710000
08EFFFFFFFFD4000
6FFFFFFFFFFFF300
7FFFFFFFFFFFF900
CFFFFFFFFFFFFF10
DFFFFFFFFFFFFF40
DFFFFFFFFFFFFF50
BFFFFFFFFFFFFF30
AFFFFFFFFFFFFF00
8FFFFFAEFFFFFC00
6FFFFA03FFFFFA00
3FFFF900BFFFF800
1FFFF8009FFFF800
0EFFF60004789700
0CFFF60843552000
0AFFF80AFFFFF600
09FFFB09FFFFF800
08FFFD08FFFFF800
06FFFE231DFFF700
03FFFF503EFFF600
00DFFFEBFFFFF400
009FFFFFFFFFF100
002FFFEFFFFFA000
0006FB8EFFFB1000
0000635798900000
0000580112200000
0000110000000000
ENDCHAR
STARTCHAR H
ENCODING 72
SWIDTH 726 0
DWIDTH 23 0
BBX 23 31 0 -7
BITMAP
000000145760186664330000
23468BEFFF400FFFFFFFDA20
18FFFFFFFB000DFFFFFFFA00
00AFFFFFFA0008FFFFFFF200
004FFFFFFA0003FFFFFFA000
002FFFFFFA000AFFFFFF4000
001FFFFFF9000DFFFFFD0000
000CFFFFF9000DFFFFF80000
0009FFFFF8000DFFFFF50000
0006FFFFF8000DFFFFF40000
0003FFFFF7000DFFFFE10000
0001FFFFF7000DFFFF900000
0000DFFFF6000EFFFF500000
0000AFFFFCCADFFFFF500000
00008FFFFFFFFFFFFC000000
00006FFFFFFFFFFFFC000000
00004FFFFFFFFFFFFC000000
00002FFFFC42AFFFFA000000
00001FFFF9009FFFF8000000
00000EFFFB00BFFFF2000000
00000DFFFB00BFFFF1000000
00000CFFFB00BFFFE0000000
00000BFFFB00DFFFC0000000
00000BFFFB02DFFFA0000000
00001CB562009FFF90000000
0000040000002D3670000000
000000000000000310000000
000000000000200000000000
000000000003400000000000
000000000004400000000000
000000000002200000000000
ENDCHAR
STARTCHAR I
ENCODING 73
SWIDTH 401 0
DWIDTH 13 0
BBX 12 26 0 -2
BITMAP
17AAA99A9996
3EFFFFFFFFF9
09FFFFFFFFE1
008FFFFFFFB0
000DFFFFFF30
0007FFFFFF60
0003FFFFFF60
0005FFFFFF40
0007FFFFFF30
0007FFFFFF10
0007FFFFFE00
0006FFFFFA00
0005FFFFF600
0004FFFFF900
0002FFFFF900
0000FFFFF900
0000EFFFF400
0000CFFFF200
0000AFFFF500
00008FFFF400
00006FFFF300
00004FFFF200
00001FFFF100
00000D2EF300
00000A0A6400
000002061000
ENDCHAR
STARTCHAR J
ENCODING 74
SWIDTH 455 0
DWIDTH 15 0
BBX 15 26 -1 -2
BITMAP
0000005555542000
000000EFFFFFFE50
000000AFFFFFFB00
0000003FFFFFF700
0000000DFFFFF500
0000000BFFFFF100
00000009FFFF7000
0000000DFFFF6000
0000000EFFFF3000
0000001FFFFF2000
0000002FFFFF2000
0000002FFFFE1000
0000002FFFFB0000
0000001FFFF90000
0000000DFFF80000
0000201FFFF50000
169A902FFFF30000
AFFFA01FFFF20000
8FFFA02FFFE00000
3FFFB05FFFC00000
4FFFF4CFFFA00000
1FFFFFFFFF500000
0BFFFFFFFD000000
008DF5EFBA000000
000090BA14000000
0000202100000000
ENDCHAR
STARTCHAR K
ENCODING 75
SWIDTH 580 0
DWIDTH 19 0
BBX 18 26 0 -2
BITMAP
025786426005841000
5FFFFFFEC00FFFFDB7
04DFFFFFC01FFFFFC1
008FFFFFC03FFFFB10
002EFFFFD07FFFB100
0009FFFFE0AFFB0000
0004FFFFF0DFF70000
0000EFFFF6FFF40000
0000BFFFFEFFF10000
00009FFFFFFFC00000
00008FFFFFFFB00000
0000AFFFFFFFF00000
00007FFFFFFFF10000
00004FFFFFFFF00000
00001FFFFFFFF00000
00001EFFFFFFF20000
00000BFFFFFFF40000
00000CFFFFFFF20000
00000AFFFEFFF70000
000009FFE4EFFB0000
000008FF807FFE0000
000006FFB04FFF2000
000003FFE00DFF6000
000004FEF00DFF6000
000000B08109A56000
000000103100102000
ENDCHAR
STARTCHAR L
ENCODING 76
SWIDTH 416 0
DWIDTH 13 0
BBX 15 27 0 -3
BITMAP
4888888748820000
2BFFFFFFFF800000
02EFFFFFF8000000
00CFFFFFE2000000
00CFFFFF80000000
009FFFFFB0000000
005FFFFFD0000000
005FFFFFA0000000
005FFFFF90000000
005FFFFF90000000
003FFFFF60000000
001DFFFF80000000
000BFFFF90000000
000BFFFFA0000000
000BFFFFA0000000
0009FFFFA0000000
0004FFFF90000000
0004FFFF80000000
0004FFFFB0000000
0002FFFFF6521630
0000FFFFFFFFFE10
0000CFFFFFFFFE00
00009FFFFFFFFB00
00005FFFDCFFF800
00000B6897BFF700
000003047304B000
0000000000022000
ENDCHAR
STARTCHAR M
ENCODING 77
SWIDTH 740 0
DWIDTH 24 0
BBX 23 27 0 -2
BITMAP
000000000200230020000000
002468ACEF404FADFA630000
1EFFFFFFFF301FFFFFFFFC60
06FFFFFFFF702FFFFFFFE700
00BFFFFFFFC05FFFFFFF8000
002FFFFFFFF29FFFFFFF8000
001EFFFFFFF6DFFFFFFF5000
001FFFFFFFFBFFFFFFFE2000
000EFFFFFFFFFFFFFFFF1000
0008FFFFFFFFFFFFFFFD0000
0006FFFFFFFFFFFFFFFC0000
0004FFFFFFFFFFFFFFFC0000
0004FFFFFFFFFFFFFFFC0000
0004FFFFFFFFFFFFFFFC0000
0000EFFFEFFFFFCFFFFC0000
0000DFFFDCFFFFBFFFFC0000
0000AFFFD7FFFF7FFFFB0000
00006FFFF2FFFC5FFFFA0000
00004FFFF3DFFB3FFFF90000
00001FFFF5CFF93FFFF60000
00000EFFF7BFF83FFFF20000
00000DFFF66FF24FFFF10000
00000BFFF72FE05FFFE00000
00000AEEF70DD09EEFC00000
00000997440951820CA00000
000005D22000000008400000
000000200000000001000000
ENDCHAR
STARTCHAR N
ENCODING 78
SWIDTH 610 0
DWIDTH 20 0
BBX 19 30 0 -6
BITMAP
00012345803974200000
09FFFFFFE01EFFFFD950
1CFFFFFFF10AFFFFFC10
018FFFFFF408FFFFE200
004FFFFFFB07FFFF7000
002FFFFFFE26FFFF6000
002FFFFFFF77FFFF5000
000FFFFFFFC7FFFF4000
000EFFFFFFFAFFFF2000
000DFFFFFFFFFFFF0000
000BFFFFFFFFFFFD0000
0009FFFFFFFFFFFA0000
0008FFFFFFFFFFF80000
0005FFFFFFFFFFF60000
0003FFFFFFFFFFF40000
0000EFFFFFFFFFF30000
0000CFFFAFFFFFF20000
00008FFF7FFFFFF10000
00007FFF6BFFFFF00000
00006FFF46FFFFF00000
00005FFF64FFFFE00000
00004FFF60DFFFD00000
00003FFF708FFF900000
00002FFF806FFF800000
00001FFF902FFC800000
00000D93900DD8400000
00000B00700654000000
00000A00700600000000
00000800800500000000
00000000100000000000
ENDCHAR
STARTCHAR O
ENCODING 79
SWIDTH 504 0
DWIDTH 16 0
BBX 16 27 0 -3
BITMAP
0000016775200000
00019FFFFFEA5100
001DFFFFFFFFF700
01CFFFFFFFFFFF90
08FFFFFFFFFFFFF1
0EFFFFFFFFFFFFF0
2FFFFFFFFFFFFFF1
0EFFFFFFFFFFFFF5
0DFFFFFFFFFFFFF0
0CFFFFFFFFFFFFF1
0AFFFFFBAFFFFFF3
08FFFFE11EFFFFF4
05FFFFB00AFFFFF4
02FFFF9009FFFFF3
00FFFF7007FFFFF2
00EFFF9006FFFFF0
00DFFFA006FFFF90
00AFFFC007FFFF40
007FFFE00CFFFF20
003FFFF20CFFFE10
000FFFF93FFFF900
002FFFFFFFFFF600
000AFFFFFFFFD100
0001AFFFFFFF7000
000006F63FDA4000
000000C10F461000
000000200A100000
ENDCHAR
STARTCHAR P
ENCODING 80
SWIDTH 545 0
DWIDTH 17 0
BBX 17 26 0 -2
BITMAP
000245669A69551000
3DFFFFFFFFFFFFD200
04EFFFFFFFFFFFFC00
004FFFFFFFFFFFFF30
000BFFFFFFFFFFFF80
0008FFFFFFFFFFFFA0
0006FFFFFFFFFFFF60
0006FFFFFFFFFFFF20
0004FFFFFFFFFFFF00
0003FFFFFFFFFFFE00
0000FFFFF958FFFD00
0000DFFFF900EFFC00
0000AFFFF800EFFB00
00007FFFF900EFFA00
00004FFFF900EFF800
00002FFFFD99EFF500
00000FFFFFFFFFF200
00000EFFFFFFFFA000
00000EFFFEDCE91000
00000AFFFA00000000
000009FFFA00000000
00000AFFFB00000000
000007FFFC00000000
000004FFFB00000000
000001D7ED00000000
000000305400000000
ENDCHAR
STARTCHAR Q
ENCODING 81
SWIDTH 520 0
DWIDTH 17 0
BBX 17 29 0 -5
BITMAP
000000057641000000
000017EFFFFE300000
0007EFFFFFFFE60000
01CFFFFFFFFFFF9000
02FFFFFFFFFFFFF300
05FFFFFFFFFFFFF800
1DFFFFFFFFFFFFFA00
1FFFFFFFFFFFFFFB00
2FFFFFFFFFFFFFFC00
3FFFFFFFFDFFFFFE00
1FFFFFFF60DFFFFB00
0CFFFFFF10AFFFFA00
09FFFFFF008FFFFA00
05FFFFFD007FFFF900
01EFFFFC005FFFF900
00AFFFFB004FFFF800
00CFFFFC005FFFF700
008FFFFF106FFFF500
004FFFFF50DFFFF400
000CFFFFB1EFFFF100
0004FFFFFAFFFFA000
0000AFFFFFFFFF4000
00001CFFFFFFFF9000
000001CFFFFFFFFA30
0000002DFFFFFFFD10
000000015427FFE300
0000000000017F6000
0000000000000C0000
000000000000020000
ENDCHAR
STARTCHAR R
ENCODING 82
SWIDTH 599 0
DWIDTH 19 0
BBX 19 26 0 -2
BITMAP
00001179AA9656000000
27AEFEFFFFFFFFC40000
1BFFFFFFFFFFFFFFB100
00DFFFFFFFFFFFFFFC10
001EFFFFFFFFFFFFFF50
0008FFFFFFFFFFFFFF60
0002EFFFFFFFFFFFFF70
0000DFFFFFFFFFFFFF60
0000CFFFFFFFFFFFFF50
0000CFFFFFFFFFFFFF40
0000BFFFFB12CFFFFF30
0000AFFFFC002FFFFF20
00008FFFFB004FFFFF00
00003FFFFD007FFFFC00
00001DFFFFBAFFFFF600
00000EFFFFFFFFFFF100
000009FFFFFFFFFFD000
000006FFFFFFFFFA1000
000004FFFE7AFFFC0000
000004FFFF06FFFF3000
000003FFFE02FFFF5000
000000FFFF13FFFF6000
000000EFFF20FFFF2000
000000DFFF30EFFF8000
0000009AB4406DDFB000
00000011803008377000
ENDCHAR
STARTCHAR S
ENCODING 83
SWIDTH 504 0
DWIDTH 16 0
BBX 16 27 0 -3
BITMAP
0000000489610000
00003AEFFFFE6000
0009FFFFFFFFFB10
009FFFFFFFFFFFB1
00EFFFFFFFFFFFF8
06FFFFFFFFFFFFF5
0DFFFFFFFFFFFFF4
0FFFFFFFFFFFFFF3
1FFFFFFFFFFFFFF3
3FFFFFFFFFFFFFF2
3FFFFFFCAFFFFFF2
2FFFFFF30BFFFFF1
0EFFFFF505AA9CE2
0BFFFFFE86100021
04FFFFFFFFF91000
008FFFFFFFFFC100
0006EFFFFFFFFB00
000014BEFFFFFF20
000000012EFFFF40
019EEED409FFFF20
02FFFFF61CFFFE00
00BFFFFEDFFFF800
003FFFFFFFFFD000
000AFFFFFFFF7000
0001BEC9CC7C1000
0000024015150000
0000000003000000
ENDCHAR
STARTCHAR T
ENCODING 84
SWIDTH 622 0
DWIDTH 20 0
BBX 18 28 1 -4
BITMAP
000245666665410000
9BFFFFFFFFFFFFDA74
3FFFFFFFFFFFFFFFF9
0BFFFFFFFFFFFFFFE2
06FFFFFFFFFFFFFF60
02FFFFFFFFFFFFFF50
00EFFFFFFFFFFFFF70
00BFFFFFFFFFFFFF50
00AFFFFFFFFFFFFF30
009FFFFFFFFFFFFF10
009FFFFFFFFFFFFE00
009FD9BFFFFF48CC00
0021002FFFFE000300
0000000EFFFF100000
0000000FFFFF100000
0000000EFFFF100000
0000002FFFFC000000
0000002FFFFE000000
0000001FFFFC000000
0000000FFFFA000000
0000000EFFFA000000
00000009FFFC000000
0000000AFFFC000000
0000000BFFFC000000
0000000BFFFC000000
0000000CFFCA000000
0000000CAB36000000
000000060000000000
ENDCHAR
STARTCHAR U
ENCODING 85
SWIDTH 637 0
DWIDTH 20 0
BBX 20 26 0 -2
BITMAP
00257999910243210000
4BFFFFFFE000FFFFDA52
01DFFFFFE002FFFFFFD3
006FFFFFE004FFFFFF30
006FFFFFC004FFFFFD00
005FFFFFB004FFFFFB00
002FFFFFF104FFFFF700
000EFFFFF305FFFFF400
000CFFFFF305FFFFF100
000AFFFFF306FFFFC000
0008FFFFF207FFFF8000
0006FFFFE007FFFF5000
0004FFFFB008FFFF2000
0003FFFF900BFFFF1000
0004FFFFB00BFFFF0000
0005FFFFD00CFFFF0000
0002FFFFE00DFFFC0000
0002FFFFF20EFFFB0000
0000DFFFF31FFFF80000
00009FFFF66FFFF60000
00007FFFFFFFFFF40000
00004FFFFFFFFFE00000
00000EFFE7FFFF700000
000001DDC09583100000
00000077104190000000
00000011001370000000
ENDCHAR
STARTCHAR V
ENCODING 86
SWIDTH 570 0
DWIDTH 18 0
BBX 20 27 -1 -3
BITMAP
0124578A900199766662
15DFFFFF8001EFFFFF80
001DFFFF9004FFFFFC00
0005FFFFC006FFFFF500
0002EFFFC009FFFFE000
0000CFFFC00BFFFF9000
0000AFFFD00EFFFF3000
00009FFFE01FFFFE0000
00008FFFF14FFFFB0000
00008FFFF36FFFF70000
00007FFFF39FFFF20000
00006FFFF1BFFFE00000
00005FFFF2EFFFB00000
00004FFFF4FFFF900000
00001FFFF8FFFF600000
00000DFFF8FFFF300000
00000BFFFCFFFE000000
00000BFFFFFFF9000000
000009FFFFFFF7000000
000003FFFFFFF3000000
000001FFFFFFF1000000
000000DFFFFFC0000000
000000BFFFFF70000000
0000009FFFFF20000000
0000004FFFFF00000000
0000001BEEAD00000000
00000000117300000000
ENDCHAR
STARTCHAR W
ENCODING 87
SWIDTH 777 0
DWIDTH 25 0
BBX 25 26 0 -1
BITMAP
00000000000122100000000000
00000022200AFF200A76300000
00048CFEB00DFF500CFFFE9400
6AEFFFFFC02FFF700EFFFFFE80
17FFFFFFD06FFFB07FFFFFA000
002CFFFFF08FFFE08FFFFD0000
0005FFFFF2BFFFF1DFFFF50000
00009FFFF4EFFFF8FFFF900000
00003FFFF7FFFFFEFFFF100000
00002FFFFCFFFFFFFFFA000000
00001FFFFFFFFFFFFFF4000000
000009FFFFFFFFFFFFE0000000
000002EFFFFFFFFFFFA0000000
0000008FFFFFFFFFFF80000000
0000003FFFFFFFFFFF90000000
0000000EFFFFFFFFFF50000000
0000000BFFFFEFFFFF20000000
00000007FFFFAFFFFE00000000
00000004FFFF7FFFFB00000000
00000001FFFF3FFFF900000000
00000000CFFE0FFFF300000000
000000008FFC0DFFB000000000
000000004FF80BFF7000000000
000000000DF90BFF4000000000
00000000036A0AAF2000000000
00000000000400010000000000
ENDCHAR
STARTCHAR X
ENCODING 88
SWIDTH 587 0
DWIDTH 19 0
BBX 19 26 0 -2
BITMAP
00003666103541000000
58BEFFFFC11EFFEB7400
03DFFFFFD02FFFFFFF90
001BFFFFF17FFFFF9100
0000CFFFF4DFFFF50000
00006FFFFDFFFF600000
00000CFFFFFFFD100000
000005FFFFFFF8000000
000000DFFFFFF5000000
0000009FFFFFF2000000
0000008FFFFFF0000000
0000007FFFFFD0000000
0000008FFFFFA0000000
0000004FFFFF50000000
0000002FFFFF20000000
0000000AFFFF20000000
0000000EFFFF10000000
0000003FFFFF20000000
0000005FFFFF50000000
0000007FFFFF70000000
0000009FFCFFB0000000
000000DFF4FFF2000000
000001EFD0EFF7000000
000005FFD0DFFA000000
00000CFE90A8BC000000
00000741000004100000
ENDCHAR
STARTCHAR Y
ENCODING 89
SWIDTH 688 0
DWIDTH 22 0
BBX 23 26 0 -2
BITMAP
001376888100029300000000
3BFFFFFFF80006FFEC860000
018FFFFFFE1008FFFFFFDA50
0002BFFFFFA00CFFFFFF9200
000009FFFFF24FFFFFF60000
000002EFFFF9BFFFFF700000
0000003DFFFFFFFFF9000000
00000006FFFFFFFFC0000000
00000001EFFFFFFF50000000
000000008FFFFFFF20000000
000000002FFFFFFF00000000
000000000DFFFFFD00000000
0000000006FFFFFC00000000
0000000000EFFFFA00000000
0000000000AFFFF900000000
00000000006FFFF800000000
00000000003FFFF700000000
00000000001FFFF600000000
00000000000EFFF500000000
00000000000CFFF500000000
00000000000BFFF400000000
00000000000AFFF300000000
000000000009FFF200000000
000000000008FFF100000000
000000000006EA7000000000
000000000002000000000000
ENDCHAR
STARTCHAR Z
ENCODING 90
SWIDTH 695 0
DWIDTH 22 0
BBX 21 25 1 -1
BITMAP
0003799989998640000000
5AEFFFFFFFFFFFFED95100
AFFFFFFFFFFFFFFFFFFFA0
4FFFFFFFFFFFFFFFFFFD10
0BFFFFFFFFFFFFFFFFF500
04FFFFFFFFFFFFFFFFC000
00CFFFFFFFFFFFFFFF5000
006FFFFFFFFFFFFFFD0000
002FFFFFFFFFFFFFF60000
000FFFFFFFFFFFFFD00000
000DFFFDDFFFFFFF600000
000CFA301EFFFFF8000000
000750009FFFFE40000000
00000004FFFFF500000000
00000009FFFF9000000000
0000000DFFFD0000000000
0000003FFFF40000000000
0000006FFFB00000000000
000000EFFE200000000000
000005FFFC664100000000
00001EFFFFFFFF40000000
00006FFFFFFFFD20000000
00009FFFFFFFF900000000
00006FCAFFFFF400000000
00000430425B9000000000
ENDCHAR
STARTCHAR bracketleft
ENCODING 91
SWIDTH 410 0
DWIDTH 13 0
BBX 12 29 1 -1
BITMAP
067876555510
0BFFFFFFFFA0
0BFFFFFFFFF0
0BFFFFFFFFF0
0BFFFFFFFFF0
0BFFFFFFFFF1
0BFFFFFFEDE0
0AFFFE100010
0EFFFE000000
0EFFFD000000
0DFFFD000000
0EFFFE000000
0FFFFE000000
1FFFFE000000
1EFFFE000000
1EFFFE000000
3FFFFF000000
4FFFFF000000
3FFFFF000000
2FFFFF000000
1FFFFF000000
1EFFFF000000
0DFFFF000000
0AFFFF000000
08FFFF878787
06FFFFFFFFF6
03FFFFFFFFD0
01FFFE5FEE60
00B615087400
ENDCHAR
STARTCHAR backslash
ENCODING 92
SWIDTH 292 0
DWIDTH 9 0
BBX 10 29 0 -3
BITMAP
0100000000
AD70000000
8FE0000000
5FF4000000
3FF9000000
0DFE100000
07FF100000
08FF100000
04FF700000
00EFA00000
00AFE00000
005FF70000
001FFF1000
000BFF4000
0006FF8000
0002FFB000
0000BFF000
00009FF400
00005FF700
00000EFA00
00000BF800
000005FB00
000001FF10
000000CF60
0000007FC0
0000002FF2
0000000EF7
0000000BE9
0000000743
ENDCHAR
STARTCHAR bracketright
ENCODING 93
SWIDTH 407 0
DWIDTH 13 0
BBX 12 29 0 -1
BITMAP
016678887540
0BFFFFFFFF90
0FFFFFFFFF90
0FFFFFFFFF90
0FFFFFFFFF90
1FFFFFFFFF90
0EDEFFFFFF90
000001EFFF90
000000EFFFC0
000000DFFFC0
000000CFFFC0
000000BFFFD0
000000BFFFE0
000000AFFFF0
0000009FFFE1
0000009FFFE0
0000009FFFF3
0000009FFFF3
0000009FFFF3
0000009FFFF2
0000009FFFF1
000000AFFFD1
000000AFFFE0
000000BFFFE0
587987DFFFE0
6FFFFFFFFFE0
4FFFFFFFFFF0
4EEFFFFFFFF0
022666504CB0
ENDCHAR
STARTCHAR asciicircum
ENCODING 94
SWIDTH 523 0
DWIDTH 17 0
BBX 15 13 1 22
BITMAP
0000000001000000
0000CECCEF500000
0004FFFFFFC00000
000AFFFFFFF50000
002FFFFFFFFD0000
009FFFFFFFFF5000
01EFFFC4FFFFD000
07FFFF309FFFF600
0DFFFA001EFFFD00
5FFFF20006FFFF60
9FFF800000BFFD20
07FA0000002DD200
0030000000021000
ENDCHAR
STARTCHAR underscore
ENCODING 95
SWIDTH 452 0
DWIDTH 14 0
BBX 12 6 1 -1
BITMAP
111110000011
7FFFFCEFEDFC
7FFFFFFFFFFB
7FFFFFFFFFFB
7FFFFFFFFFFB
5ABBBBD988C8
ENDCHAR
STARTCHAR grave
ENCODING 96
SWIDTH 444 0
DWIDTH 14 0
BBX 12 9 1 24
BITMAP
000110000000
0009C2000000
001FFE300000
004FFFE50000
05EFFFFF7000
3EFFFFFFFA20
0048CFFFFFE1
0000026AEFF1
000000000460
ENDCHAR
STARTCHAR a
ENCODING 97
SWIDTH 479 0
DWIDTH 15 0
BBX 16 27 0 -3
BITMAP
03578ABCCC9BCDD5
4EFFFFFFFFFFFF50
03EFFFFFFFFFF900
003EFFFFFFFFF400
000BFFFFFFFFF100
000BFFFFFFFFE000
0009FFFFFFFFE000
0006FFFFFFFFE000
0007FFFFFFFFE000
000BFFFFFFFFD000
000AFFFFFFFFB000
0007FFFFFFFF8000
0005FFFFDFFF9000
0006FFFDAFFFB000
000AFFF98FFFD000
000BFFF65FFFB100
000DFFF44FFFD100
000EFFF24FFFF000
000EFFF12FFFD000
000AFFFFFFFFC000
001EFFFFFFFFA000
000FFFFFFFFF8000
000CFFF79FFF7000
000CFFF31DFF6000
000DFFA00DFF6000
000CFF6019EF4000
0006AA2000020000
ENDCHAR
STARTCHAR b
ENCODING 98
SWIDTH 610 0
DWIDTH 20 0
BBX 19 27 0 -3
BITMAP
00000013455666640000
0179CEFFFFFFFFFFD200
1CFFFFFFFFFFFFFFFB00
01EFFFFFFFFFFFFFFF20
006FFFFFFFFFFFFFFF60
000CFFFFFFFFFFFFFF90
0003EFFFFFFFFFFFFFA0
0000CFFFFFFFFFFFFFB0
0000EFFFFFFFFFFFFFB0
0000CFFFFFFFFFFFFF90
00009FFFFFCBEFFFFF40
00006FFFFC005FFFFE00
00004FFFFF204FFFF900
00002FFFFE006FFFF400
00002FFFFFC77FFFC000
00001FFFFFFFFFFF5000
00000FFFFFFFFFE70000
00000EFFFFFFFFFC1000
000009FFFF99EFFF8000
000008FFFD008FFFB000
000006FFFE008FFFA000
000001FFFE008FFF6000
000003FFFF96CFFF4000
000000DFFFFFFFFE1000
000000FECFFFFFF80000
000000911837EFE10000
00000000000013200000
ENDCHAR
STARTCHAR c
ENCODING 99
SWIDTH 534 0
DWIDTH 17 0
BBX 17 26 0 -2
BITMAP
00000278DDB8300000
00007FFFFFFFF80000
0029FFFFFFFFFF8100
01DFFFFFFFFFFFF700
07FFFFFFFFFFFFFF40
0CFFFFFFFFFFFFFF50
1FFFFFFFFFFFFFFF20
2FFFFFFFFFFFFFFF40
2FFFFFFFFFFFFFFF40
0EFFFFFFFFFFFFFF30
0CFFFFFFFCFFFFFF20
08FFFFFF42CFFFFF00
04FFFFFC007FFFFE00
01FFFFFD003FFFFC00
00CFFFFF103589A900
00DFFFFA0000000000
00AFFFFA0000000000
007FFFFC0002000000
003FFFFE008FE92000
000EFFFF20DFFF6000
000CFFFF53FFFF2000
0007FFFFBBFFFF1000
0000DFFFFFFFFA0000
00009FFFFFFFD20000
0000299CCBFD100000
0000002623A4000000
ENDCHAR
STARTCHAR d
ENCODING 100
SWIDTH 573 0
DWIDTH 18 0
BBX 18 28 0 -4
BITMAP
000002578974100000
18CEFFFFFFFFFD4000
05FFFFFFFFFFFFF500
04FFFFFFFFFFFFFF40
00DFFFFFFFFFFFFFE3
008FFFFFFFFFFFFFF8
003FFFFFFFFFFFFFFD
000DFFFFFFFFFFFFFE
0009FFFFFFFFFFFFFE
0005FFFFFFFFFFFFFD
0001FFFFFFFFFFFFFB
0000DFFFFFABFFFFF8
0000AFFFFC00CFFFF4
00007FFFF9008FFFF1
00004FFFF8004FFFB0
00002FFFF9004FFF60
00000EFFF6004FFF20
00000CFFF8008FFD00
00000AFFF8009FF900
000009FFF600EFF600
000007FFF801FFF300
000006FFFD48FFF200
000005FFFFDFFFC000
000005FFFFFFFF9000
000004FFFFFFFF5000
000003F604FFFC0000
000001D001BC910000
000000600000000000
ENDCHAR
STARTCHAR e
ENCODING 101
SWIDTH 632 0
DWIDTH 20 0
BBX 20 27 0 -3
BITMAP
00000246678776420000
039DFFFFFFFFFFFFFDA1
2EFFFFFFFFFFFFFFFFA0
03FFFFFFFFFFFFFFFE10
008FFFFFFFFFFFFFF800
001EFFFFFFFFFFFFF200
000EFFFFFFFFFFFFD000
000CFFFFFFFFFFFFA000
0009FFFFFFFFFFFF8000
0007FFFFFFFFFFFF7000
0004FFFFFFFFFFFF4000
0002FFFFFB1348CF1000
0000EFFFFC0000020000
0000CFFFFC0000000000
00009FFFFECCCC600000
00004FFFFFFFFF700000
00004FFFFFFFFF700000
00003FFFFFFFFF600000
00001FFFFE888D300000
00000EFFFC0001000000
00000CFFFC4320000000
000009FFFDCFFFE00000
000006FFFFFFFFC00000
000003FFFFFFFFA00000
000000E40DFDAC900000
00000060021003700000
00000000000000100000
ENDCHAR
STARTCHAR f
ENCODING 102
SWIDTH 559 0
DWIDTH 18 0
BBX 17 27 0 -3
BITMAP
002526666135310000
3DFFFFFFFFEFFFEB50
05FFFFFFFFFFFFFE10
005FFFFFFFFFFFF800
000AFFFFFFFFFFF400
0004FFFFFFFFFFF100
0002FFFFFFFFFFE000
0002FFFFFFFFFFC000
0002FFFFFFFFFFA000
0002FFFFFFFFFF9000
0001EFFFFFFFFF8000
0000BFFFF675AF9000
00008FFFF400015000
00008FFFFCBBB40000
00008FFFFFFFF40000
00008FFFFFFFF40000
00007FFFFFFFF30000
00005FFFFC78A90000
00001FFFF700010000
00004FFFF600000000
00005FFFF700000000
00008FFFF700000000
00008FFFF800000000
00008FFFF900000000
0000886F9800000000
0000600A0400000000
000010060600000000
ENDCHAR
STARTCHAR g
ENCODING 103
SWIDTH 546 0
DWIDTH 18 0
BBX 16 27 1 -3
BITMAP
0000366454200000
004EFFEFFFFC4000
04DFFFFFFFFFF800
6FFFFFFFFFFFFF70
AFFFFFFFFFFFFFE1
DFFFFFFFFFFFFFF7
FFFFFFFFFFFFFFFB
FFFFFFFFFFFFFFFD
DFFFFFFFFFFFFFFE
BFFFFFFFFFFFFFFC
9FFFFFFDFFFFFFF9
7FFFFF808FFFFFF5
4FFFFF600DFFFFF2
1FFFFF4009FFFFF0
0EFFFF2004ACEFE0
09FFFF3031000241
04FFFF30BFD96300
01FFFF90AFFFFFD0
00CFFFD09FFFFFA0
00AFFFE08CEFFF90
009FFFE320AFFF80
007FFFFB26EFFF70
002FFFFFFFFFFF70
000CFFFFFFFFFF50
0004EFFFFFFFFF20
00006EACDFCBD400
0000041615021000
ENDCHAR
STARTCHAR h
ENCODING 104
SWIDTH 730 0
DWIDTH 23 0
BBX 23 27 0 -3
BITMAP
00000148AB900BBAB9784100
279ACFFFFF300BFFFFFFFF50
02DFFFFFFB0008FFFFFFFA00
005FFFFFFD0002EFFFFFF300
001FFFFFFC0002EFFFFFB000
000FFFFFFC0008FFFFFF5000
000EFFFFFB000AFFFFFE1000
000BFFFFFB0009FFFFFA0000
0009FFFFFB0009FFFFF80000
0006FFFFFA0009FFFFF70000
0002FFFFFA0008FFFFF30000
0000EFFFF90009FFFFD00000
0000BFFFF9102CFFFF700000
00008FFFFFFEFFFFFF600000
00006FFFFFFFFFFFFF000000
00004FFFFFFFFFFFFF000000
00003FFFFFFDEFFFFF000000
00002FFFFC105FFFFD000000
00001FFFFC008FFFFA000000
00000FFFFE009FFFF6000000
00000DFFFE009FFFF4000000
00000CFFFD009FFFF2000000
00000AFFFD00CFFFF0000000
000009FFFB009FFFD0000000
00000BA120006FDDC0000000
0000000000000723A0000000
000000000000000100000000
ENDCHAR
STARTCHAR i
ENCODING 105
SWIDTH 412 0
DWIDTH 13 0
BBX 13 26 0 -2
BITMAP
12479B79A53200
3DFFFFFFFFFD20
06FFFFFFFFF600
007FFFFFFFE200
0009FFFFFF9000
0003FFFFFF7000
0001EFFFFF6000
0002FFFFFF2000
0003FFFFFE0000
0004FFFFFB0000
0004FFFFF90000
0003FFFFF70000
0002FFFFF60000
0000FFFFF60000
0000DFFFF80000
0000BFFFF90000
00008FFFF40000
00005FFFF30000
00003FFFF10000
00002FFFF00000
00002FFFE00000
00001FFFD00000
00000FFFD00000
00000D9EC00000
00000308B00000
00000000100000
ENDCHAR
STARTCHAR j
ENCODING 106
SWIDTH 458 0
DWIDTH 15 0
BBX 15 26 -1 -2
BITMAP
0000178997410000
00000CFFFFFFD950
000004FFFFFFFD30
000000EFFFFFFC00
000000AFFFFFFB00
0000007FFFFFF600
0000002FFFFFE100
0000001FFFFFC000
0000001FFFFFE000
0000001FFFFFD000
0000001FFFFFC000
0000001FFFFFB000
0000001FFFFFA000
0000000DFFFF9000
0000000AFFFF6000
0000300BFFFF4000
1688D00BFFFF3000
9FFFF00BFFFF3000
5FFFF409FFFF2000
0EFFF80BFFFE0000
0CFFFE8FFFFB0000
08FFFFFFFFF70000
01EFFFFFFFF10000
003BDFFFFFE00000
00000349D5A00000
0000000000200000
ENDCHAR
STARTCHAR k
ENCODING 107
SWIDTH 636 0
DWIDTH 20 0
BBX 20 26 0 -2
BITMAP
00002343191056998620
37BEFFFEED01EFFFFFE5
19FFFFFFFA03FFFFFB10
005FFFFFF907FFFFC100
002FFFFFF90BFFFD1000
000BFFFFFA0EFFD20000
0004FFFFFB1FFFA00000
0000CFFFFD2FFF900000
00006FFFFE3FFF700000
00002FFFFF5FFE300000
00003FFFFF8FF9000000
00001FFFFFBFF4000000
00000FFFFFEFE0000000
00000EFFFFFFB0000000
00000DFFFFFFC0000000
000009FFFFFFF1000000
000005FFFFFFF7000000
000003FFFFFFFC000000
000003FFFFCFFF200000
000000EFFE3FFF700000
000000CFF90AFFD00000
000000DFF903FFF50000
000000AFF900BFF70000
0000009FFB00CFFE1000
0000004A3A007D6A2000
00000000000002000000
ENDCHAR
STARTCHAR l
ENCODING 108
SWIDTH 438 0
DWIDTH 14 0
BBX 15 27 0 -3
BITMAP
0004788889DDC100
29EFFFFFFFF81000
01CFFFFFFFA00000
006FFFFFFF200000
002FFFFFF9000000
001FFFFFFD000000
000CFFFFFC000000
000CFFFFFA000000
0009FFFFF7000000
0009FFFFF8000000
0006FFFFF9000000
0003FFFFF8000000
00009FFFF8000000
00008FFFF7000000
00008FFFF6000000
00008FFFF5000000
00006FFFF4000000
00005FFFF5000000
00003FFFF5000000
00002FFFFE853550
00000FFFFFFFFFA0
00000DFFFFFFFF50
00000BFFFFFFFF10
00000AFFF6DFFD00
000008B2417DFA00
000006800003C400
0000011000002000
ENDCHAR
STARTCHAR m
ENCODING 109
SWIDTH 770 0
DWIDTH 25 0
BBX 24 28 0 -3
BITMAP
000000000000012000000000
0000000258B107E8CDB84100
00037ADFFFE004FFFFFFFFC7
19EFFFFFFFF108FFFFFFFF70
06FFFFFFFFF30CFFFFFFF600
006FFFFFFFF62FFFFFFFD000
000FFFFFFFFA5FFFFFFFC000
001FFFFFFFFB9FFFFFFF6000
001FFFFFFFFEDFFFFFFF3000
003EFFFFFFFFFFFFFFFF1000
0009FFFFFFFFFFFFFFFD0000
0008FFFFFFFFFFFFFFFB0000
0006FFFFFFFFFFFFFFF80000
0007FFFFFFFFFFFFFFF60000
0006FFFFFFFFFFFFFFF40000
0002FFFFFEFFFFDFFFF10000
0000FFFFFAFFFCCFFFE00000
0000DFFFF7FFF8EFFFB00000
0000BFFFF4FFF3FFFF800000
00008FFFF1FFE3FFFF400000
00006FFFF3FFB4FFFE100000
00006FFFF3DF86FFF9000000
00006FFFF0AF38FFF5000000
00002FFFE09E0AFFF2000000
00001D74E07B0A7CE1000000
00000C200020030460000000
00000C200000000010000000
000002000000000000000000
ENDCHAR
STARTCHAR n
ENCODING 110
SWIDTH 664 0
DWIDTH 21 0
BBX 21 28 0 -4
BITMAP
245679AA89007643334440
1EFFFFFFFD009FFFFFFF60
07FFFFFFFF306FFFFFFC00
01EFFFFFFF502FFFFFF400
007FFFFFFFC01FFFFFC000
005FFFFFFFF22FFFFF7000
004FFFFFFFF64FFFFF3000
003FFFFFFFFA6FFFFE0000
003FFFFFFFFE8FFFFC0000
002FFFFFFFFFEFFFFA0000
000FFFFFFFFFFFFFF80000
000EFFFFFFFFFFFFF60000
000CFFFFFFFFFFFFF40000
000AFFFFFFFFFFFFF20000
0008FFFFFFFFFFFFF00000
0005FFFFEFFFFFFFC00000
0001EFFF8FFFFFFF900000
0000EFFF7DFFFFFF600000
0000EFFF68FFFFFF500000
0000CFFF34FFFFFF100000
0000AFFF61EFFFFC000000
00009FFF40EFFFFB000000
00007FFF408FFFF4000000
00006FFF407FFFF0000000
00004FFE405FFDC0000000
00002A90303CC880000000
0000000000030850000000
0000000000000100000000
ENDCHAR
STARTCHAR o
ENCODING 111
SWIDTH 545 0
DWIDTH 17 0
BBX 17 27 0 -3
BITMAP
000002688777100000
00019FFFFFFFE60000
001CFFFFFFFFFFA100
00CFFFFFFFFFFFF500
07FFFFFFFFFFFFFF60
0DFFFFFFFFFFFFFF90
1FFFFFFFFFFFFFFF80
1EFFFFFFFFFFFFFF90
1DFFFFFFFFFFFFFFC0
0AFFFFFFFFFFFFFFA0
09FFFFFF9DFFFFFFA0
07FFFFF904FFFFFFB0
05FFFFF301FFFFFF80
03FFFFF100FFFFFF60
01FFFFF100DFFFFF30
00EFFFF100BFFFFE00
00BFFFF100DFFFFA00
008FFFF100EFFFF600
004FFFF603FFFFF100
001FFFF906FFFFB000
000CFFFE1AFFFF6000
0009FFFFFFFFFF5000
0004FFFFFFFFFC0000
000086EFFFFFF40000
000000581CFDD00000
000000000890A00000
000000000000400000
ENDCHAR
STARTCHAR p
ENCODING 112
SWIDTH 557 0
DWIDTH 18 0
BBX 17 26 0 -2
BITMAP
001356774756740000
1DFFFFFFFFFFFFC300
06FFFFFFFFFFFFFE20
005FFFFFFFFFFFFF90
000BFFFFFFFFFFFFD0
0008FFFFFFFFFFFFF0
0007FFFFFFFFFFFFF0
0006FFFFFFFFFFFFA0
0006FFFFFFFFFFFFA0
0005FFFFFFFFFFFF80
0003FFFFF86BFFFF70
0002FFFFF901FFFF40
0000EFFFF300DFFF20
0000DFFFF500DFFF00
0000BFFFF502FFFC00
00009FFFF99AFFF800
00007FFFFFFFFFF400
00003FFFFFFFFFD000
00002FFFFECFFF5000
00000EFFF900230000
00001FFFFB00000000
00000DFFF800000000
00000DFFFA00000000
00000CFFFA00000000
000009FDFB00000000
000002303100000000
ENDCHAR
STARTCHAR q
ENCODING 113
SWIDTH 562 0
DWIDTH 18 0
BBX 18 29 0 -5
BITMAP
00000017AA97400000
000029FFFFFFFC1000
0029FFFFFFFFFFC400
03EFFFFFFFFFFFFE20
02FFFFFFFFFFFFFF90
07FFFFFFFFFFFFFFD0
1EFFFFFFFFFFFFFFF0
1FFFFFFFFFFFFFFFF1
3FFFFFFFFFFFFFFFF2
2FFFFFFFF9CFFFFFF4
0EFFFFFFA01CFFFFF0
0BFFFFFF7016FFFFF0
07FFFFFF500AFFFFE0
03FFFFFF4003FFFFE0
00DFFFFF2000FFFFD0
00AFFFFF1000FFFFC0
00CFFFFF4001FFFFB0
006FFFFF8014FFFF90
003FFFFFD07FFFFF80
000AFFFFF3AFFFFF30
0003FFFFFDFFFFFC00
00006FFFFFFFFFF900
000007FFFFFFFFFE30
0000007FFFFFFFFFE7
00000007EFFEDFFFE2
0000000001001EFE20
00000000000001D800
000000000000008200
000000000000001000
ENDCHAR
STARTCHAR r
ENCODING 114
SWIDTH 616 0
DWIDTH 20 0
BBX 20 27 0 -3
BITMAP
00001169897553000000
289BFFFFFFFFFFD82000
0BFFFFFFFFFFFFFFF910
01CFFFFFFFFFFFFFFFB0
002EFFFFFFFFFFFFFFF1
0005FFFFFFFFFFFFFFF1
0000FFFFFFFFFFFFFFF0
0000DFFFFFFFFFFFFFD0
0000CFFFFFFFFFFFFFA0
0000BFFFFFFFFFFFFF70
00009FFFFF63BFFFFF40
00007FFFFF001EFFFF10
00005FFFFE001FFFFD00
00005FFFFF004FFFFB00
00006FFFFFB8CFFFF900
00002FFFFFFFFFFFF500
00000EFFFFFFFFFFC000
00000CFFFFFFFFFE6000
00000DFFFEDEFFF50000
00000AFFFE0AFFF70000
00000CFFFC09FFF90000
00000AFFFF18FFF80000
00000AFFFE05FFF80000
00000AFFFD07FFF90000
000009FFB905FFFA0000
00000753010057EC0000
00000000000000260000
ENDCHAR
STARTCHAR s
ENCODING 115
SWIDTH 481 0
DWIDTH 15 0
BBX 15 26 0 -2
BITMAP
0000027798400000
00008FFFFFFD3000
000AFFFFFFFFE400
008FFFFFFFFFFE30
02FFFFFFFFFFFFC0
09FFFFFFFFFFFF90
0DFFFFFFFFFFFF70
1FFFFFFFFFFFFF60
2FFFFFFFFFFFFF50
2FFFFFFFFFFFFF30
2FFFFFFBEFFFFF20
1FFFFFE06FFFFF10
0DFFFFF00DFEFF00
09FFFFF831015A10
04FFFFFFFF900000
01DFFFFFFFFA0000
002DFFFFFFFF4000
00018AFFFFFF9000
00000035CFFFD000
001577805FFFE000
01CFFFE13FFFB000
008FFFF7AFFF7000
002EFFFFFFFD1000
0008FFFFFFF70000
0002EFFFFFF10000
00004B6412300000
ENDCHAR
STARTCHAR t
ENCODING 116
SWIDTH 683 0
DWIDTH 22 0
BBX 21 29 0 -5
BITMAP
0000148AAAAAAAA9641000
15AEFFFFFFFFFFFFFFFC60
1CFFFFFFFFFFFFFFFFFF40
02FFFFFFFFFFFFFFFFFB00
009FFFFFFFFFFFFFFFF300
003FFFFFFFFFFFFFFFB000
000DFFFFFFFFFFFFFFC000
0009FFFFFFFFFFFFFFC000
0006FFFFFFFFFFFFFFA000
0004FFFFFFFFFFFFFF9000
0002FFFFFFFFFFEFFF7000
0001FFC88FFFFF569C5000
000172004FFFFF40011000
000000002FFFFF60000000
000000000FFFFF70000000
000000001EFFFF70000000
000000000EFFFF60000000
000000000DFFFF60000000
000000000BFFFF60000000
000000000AFFFF40000000
0000000009FFFF50000000
0000000004FFFF50000000
0000000004FFFF30000000
0000000005FFFF20000000
0000000004FFFF10000000
0000000004FFFF10000000
0000000002BBEF20000000
0000000000007520000000
0000000000000110000000
ENDCHAR
STARTCHAR u
ENCODING 117
SWIDTH 708 0
DWIDTH 23 0
BBX 23 25 0 -1
BITMAP
000025788820022100000000
28CEFFFFFF3006FFD9B71000
01DFFFFFFF1006FFFFFFFA50
005FFFFFFF1009FFFFFFFB10
003FFFFFFF200BFFFFFFC100
001EFFFFFF1009FFFFFF8000
000AFFFFFF5007FFFFFF3000
0007FFFFFF7007FFFFFC0000
0005FFFFFF8008FFFFF70000
0002FFFFFF8008FFFFF30000
0000EFFFFF8009FFFFE00000
0000CFFFFF800AFFFFB00000
00009FFFFF300AFFFF900000
00008FFFFF300EFFFF800000
00007FFFFF301FFFFF700000
00006FFFFF400FFFFF600000
00006FFFFF800FFFFF400000
00001EFFFFB02FFFFF100000
00000BFFFFB06FFFFC000000
000004FFFFD19FFFFB000000
000001FFFFFFFFFFF7000000
000000DFFFFFFFFFF3000000
000000AFFFB8FFFFC0000000
00000001BA7088A940000000
000000000010011000000000
ENDCHAR
STARTCHAR v
ENCODING 118
SWIDTH 644 0
DWIDTH 21 0
BBX 21 27 0 -3
BITMAP
0013566781003876432100
17FFFFFFC0007FFFFFFA20
008FFFFFF000BFFFFFA000
001EFFFFF101FFFFFE1000
000AFFFFF205FFFFF90000
0004FFFFF704FFFFF40000
0000EFFFF905FFFFE00000
0000BFFFF906FFFFA00000
00008FFFFA07FFFF700000
00005FFFFC08FFFF500000
00002FFFFF18FFFF100000
00000EFFFF29FFFD000000
00000BFFFF3BFFFB000000
000007FFFF4CFFF8000000
000004FFFF4DFFF4000000
000000EFFF5FFFF1000000
000000AFFFAFFFC0000000
0000004FFFFFFFB0000000
0000001EFFFFFF70000000
0000000CFFFFFF40000000
00000006FFFFFD00000000
00000001FFFFFA00000000
000000009FFFF900000000
000000001FFFF600000000
000000001FFED000000000
000000000D991000000000
0000000002000000000000
ENDCHAR
STARTCHAR w
ENCODING 119
SWIDTH 704 0
DWIDTH 23 0
BBX 23 25 0 -1
BITMAP
000002110069700401000000
048BDEFB00CFD006EEC95100
3DFFFFFE00FFF106FFFFFC40
019FFFFF23FFF709FFFFA000
000AFFFF44FFF90CFFFF5000
0006FFFF58FFFE0EFFFE0000
0000CFFF9AFFFF5FFFF70000
0000AFFFDBFFFFDFFFE10000
00007FFFFCFFFFFFFF900000
00004FFFFFFFFFFFFF400000
00001DFFFFFFFFFFFE000000
000006FFFFFFFFFFFB000000
000000DFFFFFFFFFFA000000
000000AFFFFFFFFFFB000000
0000006FFFFFFFFFF5000000
0000003FFFFFFFFFF4000000
0000000EFFFFCFFFF4000000
0000000AFFFE7FFFF4000000
00000006FFFC6FFFF4000000
00000002FFFA4FFFD1000000
00000000DFF92FFF90000000
000000008FF61EFF80000000
000000004FF60EFF80000000
0000000003600CAD60000000
000000000000010100000000
ENDCHAR
STARTCHAR x
ENCODING 120
SWIDTH 599 0
DWIDTH 19 0
BBX 20 26 0 -2
BITMAP
00014888202864100000
59DFFFFFE20DFFFEA720
01AFFFFFF11FFFFFFE91
0007FFFFF46FFFFF8100
00009FFFF7BFFFF50000
00003FFFFEFFFF700000
000009FFFFFFFE100000
000002FFFFFFFA000000
000000BFFFFFF7000000
0000007FFFFFF4000000
0000006FFFFFF2000000
0000005FFFFFE0000000
0000005FFFFFB0000000
0000002FFFFF60000000
0000000DFFFF40000000
00000007FFFF40000000
0000000DFFFF20000000
0000001FFFFF40000000
0000003FFFFF70000000
0000005FFFFF90000000
0000007FFCFFE0000000
000000BFF3EFF5000000
000000EFF0CFF9000000
000004FFF0BFFC000000
00000AFD81778C000000
00000350000002300000
ENDCHAR
STARTCHAR y
ENCODING 121
SWIDTH 604 0
DWIDTH 19 0
BBX 19 26 0 -2
BITMAP
00035674000182000000
19FFFFFF3004FFC96100
01AFFFFFB009FFFFFE40
0007FFFFF20DFFFFE200
00002EFFF65FFFFE1000
00000BFFFABFFFF40000
000005FFFFFFFF900000
0000007FFFFFFD000000
0000005FFFFFF9000000
0000002FFFFFF7000000
0000000DFFFFF5000000
0000000AFFFFF4000000
00000006FFFFF3000000
00000003FFFFF2000000
00000000EFFFF0000000
00000000BFFFE0000000
000000009FFFD0000000
000000008FFFB0000000
000000008FFFC0000000
000000009FFFC0000000
000000009FFFB0000000
00000000AFFF90000000
00000000AFFF50000000
000000009FFF30000000
000000007FFE30000000
000000004A2210000000
ENDCHAR
STARTCHAR z
ENCODING 122
SWIDTH 622 0
DWIDTH 20 0
BBX 18 26 1 -2
BITMAP
00169AA9AAAA943100
8CFFFFFFFFFFFFFEB5
9FFFFFFFFFFFFFFFF9
2FFFFFFFFFFFFFFFF3
0AFFFFFFFFFFFFFFA0
02FFFFFFFFFFFFFF20
009FFFFFFFFFFFFC00
004FFFFFFFFFFFF900
001FFFFFFFFFFFF800
000EFFFFFFFFFFF400
000BFFFFDFFFFFB000
0009FC619FFFFD1000
00049000EFFFE00000
00010005FFFF500000
0000000CFFFC000000
0000000DFFF3000000
0000005FFFC1000000
0000006FFF50000000
000000CFFF10000000
000002FFF911000000
000006FFFEFFF90000
00000CFFFFFFF90000
00001FFFFFFFF50000
00001EFEFFFFF60000
00000891899CF30000
000001000000900000
ENDCHAR
STARTCHAR braceleft
ENCODING 123
SWIDTH 372 0
DWIDTH 12 0
BBX 11 32 1 -4
BITMAP
000000000320
00000004BF50
000004DFFF40
00006FFFFF30
0003FFFFFF10
000CFFFFFE00
005FFFFFFC00
00CFFFFFFA00
07FFFFFFF800
0DFFFFFFF600
1FFFFFFFF500
3FFFFFFEB400
5FFFFFD20000
7FFFFF600000
9FFFFF200000
AFFFFF000000
BFFFFE000000
BFFFFD000000
BFFFFC000000
BFFFFC000000
AFFFFD000000
8FFFFF000000
5FFFFF200000
1FFFFF800000
0AFFFFE00000
03FFFFFB1000
00CFFFFFA000
005FFFFFE000
000BFFFFF300
0002EFFFF500
00004CFFF300
0000005A7000
ENDCHAR
STARTCHAR bar
ENCODING 124
SWIDTH 208 0
DWIDTH 7 0
BBX 4 30 1 -4
BITMAP
0385
0CF7
0EF9
0FFB
1FF9
3FF7
1FFB
0BFB
0BF8
0DF5
0EF4
0EF5
0FF5
0FF6
0FF7
0FF7
0FF7
0FF9
0FF7
0FF6
0EF5
0AF4
0AF4
0CF5
0DF5
0FF3
0FF3
0FF6
0DB5
0211
ENDCHAR
STARTCHAR braceright
ENCODING 125
SWIDTH 338 0
DWIDTH 11 0
BBX 10 32 0 -5
BITMAP
0962100000
1FFFF90000
2FFFFFB000
0DFFFFFB00
0CFFFFFF80
0BFFFFFFE0
0AFFFFFFF3
09FFFFFFF4
08FFFFFFF4
07FFFFFFF4
07FFFFFFF3
037CFFFFF3
0001DFFFF3
00008FFFF2
00005FFFF1
00004FFFF0
00003FFFF0
00003FFFE0
00003FFFC0
00004FFFB0
00007FFF90
00009FFF70
0000BFFF50
0000EFFF20
0003FFFD00
0005FFF900
033AFFF300
1CFFFF7000
3FFFFA0000
5FFFD10000
3EEE300000
0120000000
ENDCHAR
STARTCHAR asciitilde
ENCODING 126
SWIDTH 535 0
DWIDTH 17 0
BBX 15 8 1 17
BITMAP
0036000014E92000
07FF70028FFFE200
9FFFF77FFFFFFD10
7FFFFFFFFFFFFFA0
0AFFFFFFFFFFFF70
01DFFFFF97DFF800
0019EFA200185000
0000010000000000
ENDCHAR
STARTCHAR exclamdown
ENCODING 161
SWIDTH 347 0
DWIDTH 11 0
BBX 11 39 0 1
BITMAP
005751001000
00BFFFDCEA00
00AFFFFFFC00
009FFFFFFD00
00AFFFFFFE00
00AFFFFFFF00
00BFFFFFFB00
02EFFFFFFA00
07FFFFFFFB00
19FFFFFFFD00
001135686300
000000000000
000000000000
000000340000
0003CBF70000
0006FFFA0000
0007FFFE0000
0007FFFF0000
0007FFFF0000
0007FFFF0000
0007FFFC0000
0008FFFF2000
0009FFFF3000
000CFFFF7000
000EFFFF4000
003FFFFF2000
007FFFFF6000
00CFFFFF9000
02FFFFFFB000
02FFFFFFD000
00FFFFFFE000
00EFFFFFF100
008FFFFFF400
02EFFFFFF200
0AFFFFFFF700
0CFFFFFFFE20
1FFFFFFFFF10
19DFFFFFD800
000483430000
ENDCHAR
STARTCHAR cent
ENCODING 162
SWIDTH 552 0
DWIDTH 18 0
BBX 17 46 0 -12
BITMAP
000000000200000000
000000007A00000000
00000000B900000000
00000000CA00000000
00000000DA00000000
00000000EA00000000
00000000EA00000000
00000000EA00000000
00000000EA00000000
00000000EA00000000
00000047FFA9500000
00006DFFFFFFFA0000
0017FFFFFFFFFF9200
00CFFFFFFFFFFFF900
05FFFFFFFFFFFFFF50
0BFFFFFFFFFFFFFF60
0FFFFFFFFFFFFFFF30
1FFFFFFFFFFFFFFF60
0EFFFFFFFFFFFFFF60
0CFFFFFFFFFFFFFF50
08FFFFFFFCFFFFFF40
04FFFFFF51BFFFFF20
01FFFFFE005FFFFF00
00DFFFFF002FFFFE00
00BFFFFF2024578A00
00BFFFFC0000000000
008FFFFD0000000000
005FFFFE0003000000
002EFFFF106FEA2000
000CFFFF409FFF8000
000AFFFF71EFFF4000
0005FFFFD9FFFF3000
0000CFFFFFFFFD0000
00009FFFFFFFD50000
0000299CDDFE200000
000000179985000000
000000009800000000
000000009800000000
00000000A800000000
00000000A900000000
00000000B900000000
00000000BA00000000
00000000BA00000000
00000000BB00000000
00000000BA00000000
000000007500000000
ENDCHAR
STARTCHAR sterling
ENCODING 163
SWIDTH 589 0
DWIDTH 19 0
BBX 17 27 1 -3
BITMAP
000024654530000000
001CFFFEFFFD600000
029FFFFFFFFFFC2000
2DFFFFFFFFFFFFD100
5FFFFFFFFFFFFFFA00
7FFFFFFFFFFFFFFF30
9FFFFFFFFFFFFFFF80
8FFFFFFFFFFFFFFFA0
7FFFFFFFFFFFFFFFB0
5FFFFFFFFFFFFFFF90
3FFFFFFDFFFFFFFF40
1FFFFFE03DFFFFFE00
0DFFFFC007FFFFF900
0AFFFFA003FFFFF500
07FFFF8001ABEFF400
7DFFFFEAA000024200
9FFFFFFFE000000000
47CFFFFA8000000000
002FFFF80000000000
004FFFFD9963588000
007FFFFFFFFFFF4000
00AFFFFFFFFFFF1000
00CFFFFFFFFFFA0000
00CFFFF7FFFFF40000
008729B2F8FFF10000
00000770602E300000
000000000013000000
ENDCHAR
STARTCHAR yen
ENCODING 165
SWIDTH 692 0
DWIDTH 22 0
BBX 24 26 -1 2
BITMAP
332242666200005400000000
2CFFFFFFF90000DFFDB99762
007EFFFFFF1001FFFFFFFD61
0001AFFFFFB005FFFFFFD100
000009FFFFF20DFFFFFF3000
000001EFFFF97FFFFFF50000
0000003EFFFEEFFFFF700000
00000004FFFFFFFFFA000000
00000000DFFFFFFFF2000000
000000008FFFFFFFF0000000
000000005FFFFFFFE8876400
000FFFEEEFFFFFFFFFFFFC00
000FFFFFFFFFFFFFDBCFE500
0002444444FFFFFF60000000
0000000000AFFFFF30000000
0007AA9998CFFFFF99AAAA00
000DFFFFFFFFFFFFFFFFFE00
000799ABBCDFFFFFAA99A900
00000000006FFFFD00000000
00000000006FFFFD00000000
00000000004FFFFD00000000
00000000001FFFFD00000000
00000000000DFFFD00000000
00000000000AFFFE00000000
000000000005FFAE00000000
000000000001710300000000
ENDCHAR
STARTCHAR brokenbar
ENCODING 166
SWIDTH 201 0
DWIDTH 6 0
BBX 4 30 1 -4
BITMAP
1A60
0FF4
2FF5
4FF7
2FF8
0FFA
5FF7
4FF2
1FF3
0DF5
0CE5
0000
0000
0000
0000
0000
0000
0000
0DE6
0EF7
0DF5
0CF2
0DF2
0DF3
0DF5
0BF7
0BF7
0EF7
0CC5
0210
ENDCHAR
STARTCHAR section
ENCODING 167
SWIDTH 477 0
DWIDTH 15 0
BBX 15 31 0 -7
BITMAP
0000018CDD930000
00004EFFFFFFB100
0003EFFFFFFFFD10
000CFFFFFFFFFF80
004FFFFFFFFFFF40
008FFFFFFFFFFF10
008FFFFFFFFFFC00
007FFFFFFFFFF800
005FFFFFDFFFF400
003FFFF91EFFF100
001FFFF907FDC000
000EFFFE63001000
000CFFFFFFD71000
004FFFFFFFFF6000
02EFFFEFFFFF8000
0BFFFF459FFFE000
1FFFFF200DFFF000
3FFFFF100EFFA000
2FFFFF206FFF3000
1EFFFFB48FFC0000
08FFFFFFFFF60000
03FFFFFFFFE10000
005EEFFFFFC00000
00001AAEFFF40000
00124707FFF50000
03FFFF26FFF20000
00DFFFCDFFB00000
004FFFFFFF500000
001DFFFFFD000000
0002EA8683000000
0000100000000000
ENDCHAR
STARTCHAR dieresis
ENCODING 168
SWIDTH 633 0
DWIDTH 20 0
BBX 16 9 2 25
BITMAP
0010000000026751
9FFDCD500CFFFFFB
BFFFFF600CFFFFFB
CFFFFF700CFFFFFA
CFFFFF700CFFFFF9
CFFFFF700CFFFFFD
CFFFFF600CFFFFFB
BFFFFF500BFFFEFA
1346551001331020
ENDCHAR
STARTCHAR copyright
ENCODING 169
SWIDTH 783 0
DWIDTH 25 0
BBX 23 28 1 -3
BITMAP
000000002689851000000000
0000004CFFFFFFFA20000000
00001AFFEA9BBBDFF8000000
0002DFE6000221029FA10000
001DFD3019EFFE7004EA0000
00BFE301CFFFFFF7003F7000
05FF600CFFFFFFFF4007F200
0CFD005FFFFFFFFFC000D900
3FF5009FFFFFFFFFD0007E10
7FE100BFFFFFFFFFD0003F40
AFA000CFFFFFFFFFE0000F90
BF6000BFFFFFFFFFD0000DB0
CF4000AFFFF8BFFFC0000DC0
CF40007FFFC03FFFB0000ED0
BF90005FFFD00EFF80000EC0
BF90005FFFC0011220001FB0
9FA0002FFFA0000000002F90
8FB0000EFFA0031000006F50
4FE0000BFFC03FFB1000BF20
0EF40009FFE17FFD0002FB00
08FA0004FFF8EFFA000AF500
02FF4000FFFFFFF5006FD000
007FD200BFFFFF9004FF5000
000CFD2004867B107FF90000
0001CFF82000005CFFB00000
00001AFFFDBABEFFF9000000
0000005CFFFFFFFC50000000
000000002566652000000000
ENDCHAR
STARTCHAR guillemotleft
ENCODING 171
SWIDTH 759 0
DWIDTH 24 0
BBX 23 18 1 2
BITMAP
000006655555001776665500
00002FFFFFF5007FFFFFFA00
0000AFFFFF4001EFFFFFB000
0005FFFFFA000BFFFFFD1000
002EFFFFF3006FFFFFF50000
01DFFFFFB001EFFFFFB00000
0AFFFFFE2008FFFFFF300000
5FFFFFF7001EFFFFF9000000
CFFFFFC0005FFFFFD1000000
CFFFFF40004FFFFFA0000000
4FFFFFC0000DFFFFF7000000
0AFFFFF70003DFFFFC000000
00BFFFFB00009FFFFF200000
001DFFFF90000BFFFFB10000
0003EFFFF80002EFFFFC1000
00005FFFFF70003FFFFFA000
000008FFFFF50007FFFFF800
0000007AABCA1000878BCB20
ENDCHAR
STARTCHAR uni00AD
ENCODING 173
SWIDTH 446 0
DWIDTH 14 0
BBX 12 5 1 9
BITMAP
033320010122
3FFFFEFFFEF8
4FFFFFFFFFF7
5FFFFFFFFFF6
055ABA7877B4
ENDCHAR
STARTCHAR registered
ENCODING 174
SWIDTH 780 0
DWIDTH 25 0
BBX 24 28 0 -3
BITMAP
000000000135542000000000
00000005BFFFFFFC60000000
000002CFFE941026CD300000
00003EFF9100000006E50000
0002EFF949CCB991004E6000
000CFFFFFFFFFFFE6005F400
005FF77FFFFFFFFFF600AD00
00CFC00BFFFFFFFFFB002F70
03FF5006FFFFFFFFFC000BD0
07FE0003FFFFFFFFFC0007F4
0BFA0002FFFFFFFFFB0005F8
0EF70001FFFE48FFFA0004FB
1FF60001FFFE00EFF90006FD
08F30000CFFF00FFF70007FE
06F000009FFFACFFF20006FC
05F200007FFFFFFFC00004F8
04F500002FFFFFFF500001F4
02FA00000CFF9CFF400000F2
00CF200006FFE19FE20001F0
008FB00003FFF38FFA0006C0
001EF70001FFF46FFA000D60
0008FF6000DFA54EFE009E10
0000CFF8001712066A19F400
00002DFFC400000006DF8000
000002CFFFD9767AEFF80000
00000018EFFFFFFFFE500000
0000000027CFFFFC71000000
000000000000121000000000
ENDCHAR
STARTCHAR macron
ENCODING 175
SWIDTH 446 0
DWIDTH 14 0
BBX 12 5 1 9
BITMAP
033320010122
3FFFFEFFFEF8
4FFFFFFFFFF7
5FFFFFFFFFF6
055ABA7877B4
ENDCHAR
STARTCHAR acute
ENCODING 180
SWIDTH 439 0
DWIDTH 14 0
BBX 12 9 1 24
BITMAP
000000011000
0000002DA000
000003EFF200
00005EFFF500
0007FFFFFE50
01AFFFFFFFE3
1DFFFFFC8300
1FFEA6200000
064000000000
ENDCHAR
STARTCHAR mu
ENCODING 181
SWIDTH 679 0
DWIDTH 22 0
BBX 24 25 -1 -1
BITMAP
000014688850012200000000
16CEFFFFFF8000FFFAA93000
009FFFFFFF7000FFFFFFFD81
000EFFFFFF6003FFFFFFFE40
000CFFFFFF8005FFFFFFF400
000AFFFFFF6003FFFFFFE100
0005FFFFFFB001FFFFFF9000
0002FFFFFFD001FFFFFF3000
0000EFFFFFE002FFFFFD0000
0000BFFFFFE003FFFFF90000
00009FFFFFE003FFFFF50000
00006FFFFFD004FFFFF30000
00004FFFFF9005FFFFF00000
00003FFFFF8008FFFFE00000
00002FFFFF900AFFFFD00000
00001FFFFFA009FFFFC00000
00001DFFFFC00BFFFFA00000
00000AFFFFC00EFFFF600000
000005FFFFC04FFFFF200000
000000EFFFE17FFFFF100000
000000CFFFFFFFFFFC000000
0000009FFFFFFFFFF7000000
0000005FFFC8FFFFF2000000
00000001A97097C870000000
000000000010015000000000
ENDCHAR
STARTCHAR paragraph
ENCODING 182
SWIDTH 591 0
DWIDTH 19 0
BBX 19 26 0 -2
BITMAP
00002365657A87520000
004DFFFFFFFFFFFFFDA0
05FFFFFFFFFFFFFFFE30
0DFFFFFFFFFFFFFFD200
1FFFFFFFFFFFFFFF7000
1FFFFFFFFFF506FF5000
0FFFFFFFFFF607FF4000
0BFFFFFFFFF609FF3000
0AFFFFFFFFF50AFF2000
07FFFFFFFFF40AFF0000
03FFFFFFFFF40BFF1000
00DFFFFFFFF30BFF0000
008FFFFFFFF20BFE0000
001EFFFFFFF20BFC0000
0005FFFFDFF20BF90000
000036521CF20BF70000
000000000EF10BF30000
000000000EF10AE00000
000000000DF10AC00000
000000000AF00AB00000
000000000CF00AD00000
000000000DF00AB00000
000000000EE00AA00000
000000000DE00AA00000
000000000EE00BA00000
00000000013006500000
ENDCHAR
STARTCHAR periodcentered
ENCODING 183
SWIDTH 388 0
DWIDTH 12 0
BBX 10 11 1 7
BITMAP
0000012100
48BBEFFFD4
1EFFFFFFF5
0DFFFFFFF5
0BFFFFFFF3
0AFFFFFFF7
08FFFFFFF7
07FFFFFFF6
06FFFFFFF5
06FFFFFFF4
04A8632441
ENDCHAR
STARTCHAR cedilla
ENCODING 184
SWIDTH 270 0
DWIDTH 9 0
BBX 7 11 1 -11
BITMAP
04FF3000
09FE1000
0DF80000
3FE10000
6FFECD30
5DFFFF40
0005FF30
0005FF30
379CFF20
6FFFFF20
27679810
ENDCHAR
STARTCHAR guillemotright
ENCODING 187
SWIDTH 767 0
DWIDTH 25 0
BBX 24 18 0 2
BITMAP
19AAAAAB5001564112000000
08FFFFFFD001CFFFFD100000
01DFFFFFD0002EFFFFB00000
004EFFFFF50005FFFFF90000
0005FFFFFF10007FFFFF5000
0000AFFFFFA00009FFFFE400
00002FFFFFF70002FFFFF900
000005FFFFFF3000DFFFFFA0
000000AFFFFF70004EFFFFF3
000005FFFFFE10000AFFFFF8
000007FFFFFB00007FFFFFF6
00002EFFFFF70002FFFFFFE1
0001CFFFFF40000AFFFFFF50
001BFFFFFB00003FFFFFFA00
01BFFFFFF40000CFFFFFC100
0AFFFFFFA00007FFFFFE2000
0AFFFFFC10005FFFFFF60000
035663520000BDEEEEC00000
ENDCHAR
STARTCHAR Agrave
ENCODING 192
SWIDTH 494 0
DWIDTH 16 0
BBX 17 41 -2 -7
BITMAP
000110000000000000
000AC1000000000000
002FFD300000000000
005FFFE50000000000
05EFFFFF7000000000
3EFFFFFFFA20000000
0048DFFFFFE1000000
0000026AEFE1000000
000000000450000000
000000000000000000
000000011110000000
002ADEFFFFFFEDB950
0002CFFFFFFFFFFC10
00000AFFFFFFFFE200
00000AFFFFFFFF9000
000009FFFFFFFF6000
000007FFFFFFFF4000
000007FFFFFFFF2000
00000AFFFFFFFF2000
00000AFFFFFFFF0000
000008FFFFFFFE0000
000007FFFEFFFD0000
000007FFFBFFFC0000
000008FFF7DFFC0000
000009FFF3CFFD0000
00000AFFE1BFFC0000
00000BFFE0AFFE0000
000007FFA19FFB0000
000009FFFFFFFD0000
00000DFFFFFFFC0000
00000DFFFFFFFA0000
00000BFFFFFFF80000
000008FFF7FFF40000
000006FFD09FF10000
000006FF50AFF10000
000006CF209ED00000
000004872045B00000
000001712004900000
000000200018400000
000000000041000000
000000000040000000
ENDCHAR
STARTCHAR Aacute
ENCODING 193
SWIDTH 494 0
DWIDTH 16 0
BBX 19 41 0 -7
BITMAP
00000000000000020000
000000000000007E2000
00000000000009FF9000
000000000001BFFFB000
00000000002DFFFFFA20
0000000005EFFFFFFF90
000000007FFFFFEA6100
000000008FFC84000000
00000000272000000000
00000000000000000000
00000111100000000000
2ADEFFFFFFEDB9500000
02CFFFFFFFFFFC100000
000AFFFFFFFFE2000000
000AFFFFFFFF90000000
0009FFFFFFFF60000000
0007FFFFFFFF40000000
0007FFFFFFFF20000000
000AFFFFFFFF20000000
000AFFFFFFFF00000000
0008FFFFFFFE00000000
0007FFFEFFFD00000000
0007FFFBFFFC00000000
0008FFF7DFFC00000000
0009FFF3CFFD00000000
000AFFE1BFFC00000000
000BFFE0AFFE00000000
0007FFA19FFB00000000
0009FFFFFFFD00000000
000DFFFFFFFC00000000
000DFFFFFFFA00000000
000BFFFFFFF800000000
0008FFF7FFF400000000
0006FFD09FF100000000
0006FF50AFF100000000
0006CF209ED000000000
0004872045B000000000
00017120049000000000
00002000184000000000
00000000410000000000
00000000400000000000
ENDCHAR
STARTCHAR Acircumflex
ENCODING 194
SWIDTH 494 0
DWIDTH 16 0
BBX 15 44 0 -7
BITMAP
0000243236300000
00009FFFFFD00000
0001EFFFFFF60000
0007FFFFFFFD0000
000EFFFFFFFF6000
006FFFFBFFFFD000
00CFFFA08FFFF600
04FFFC100BFFFE10
0AFFD10001CFFF70
2FFE2000002DFFC0
2CF400000003ED20
0130000000002100
0000000000000000
0000011110000000
2ADEFFFFFFEDB950
02CFFFFFFFFFFC10
000AFFFFFFFFE200
000AFFFFFFFF9000
0009FFFFFFFF6000
0007FFFFFFFF4000
0007FFFFFFFF2000
000AFFFFFFFF2000
000AFFFFFFFF0000
0008FFFFFFFE0000
0007FFFEFFFD0000
0007FFFBFFFC0000
0008FFF7DFFC0000
0009FFF3CFFD0000
000AFFE1BFFC0000
000BFFE0AFFE0000
0007FFA19FFB0000
0009FFFFFFFD0000
000DFFFFFFFC0000
000DFFFFFFFA0000
000BFFFFFFF80000
0008FFF7FFF40000
0006FFD09FF10000
0006FF50AFF10000
0006CF209ED00000
0004872045B00000
0001712004900000
0000200018400000
0000000041000000
0000000040000000
ENDCHAR
STARTCHAR Atilde
ENCODING 195
SWIDTH 494 0
DWIDTH 16 0
BBX 16 40 0 -7
BITMAP
0002000000750000
008F70001BEFD300
2CFFF508EFFFFE20
5FFFFFFFFFFFFFB1
09FFFFFFFFFFFFF2
00CFFFFFFDEFFF60
001CFFFA301AE400
0000372000001000
0000000000000000
0000011110000000
2ADEFFFFFFEDB950
02CFFFFFFFFFFC10
000AFFFFFFFFE200
000AFFFFFFFF9000
0009FFFFFFFF6000
0007FFFFFFFF4000
0007FFFFFFFF2000
000AFFFFFFFF2000
000AFFFFFFFF0000
0008FFFFFFFE0000
0007FFFEFFFD0000
0007FFFBFFFC0000
0008FFF7DFFC0000
0009FFF3CFFD0000
000AFFE1BFFC0000
000BFFE0AFFE0000
0007FFA19FFB0000
0009FFFFFFFD0000
000DFFFFFFFC0000
000DFFFFFFFA0000
000BFFFFFFF80000
0008FFF7FFF40000
0006FFD09FF10000
0006FF50AFF10000
0006CF209ED00000
0004872045B00000
0001712004900000
0000200018400000
0000000041000000
0000000040000000
ENDCHAR
STARTCHAR Adieresis
ENCODING 196
SWIDTH 494 0
DWIDTH 16 0
BBX 16 41 0 -7
BITMAP
0010000000016751
8FFDCD500BFFFFFB
BFFFFF700CFFFFFB
BFFFFF700CFFFFFA
CFFFFF700CFFFFF9
CFFFFF700CFFFFFD
BFFFFF600BFFFFFC
BFFFFF600BFFFEFA
1336551001331020
0000000000000000
0000011110000000
2ADEFFFFFFEDB950
02CFFFFFFFFFFC10
000AFFFFFFFFE200
000AFFFFFFFF9000
0009FFFFFFFF6000
0007FFFFFFFF4000
0007FFFFFFFF2000
000AFFFFFFFF2000
000AFFFFFFFF0000
0008FFFFFFFE0000
0007FFFEFFFD0000
0007FFFBFFFC0000
0008FFF7DFFC0000
0009FFF3CFFD0000
000AFFE1BFFC0000
000BFFE0AFFE0000
0007FFA19FFB0000
0009FFFFFFFD0000
000DFFFFFFFC0000
000DFFFFFFFA0000
000BFFFFFFF80000
0008FFF7FFF40000
0006FFD09FF10000
0006FF50AFF10000
0006CF209ED00000
0004872045B00000
0001712004900000
0000200018400000
0000000041000000
0000000040000000
ENDCHAR
STARTCHAR Aring
ENCODING 197
SWIDTH 494 0
DWIDTH 16 0
BBX 15 41 0 -7
BITMAP
0000002443000000
00001AFFFFA00000
0000BFFFFFFA0000
0002FFB78EFF4000
0002FF4002FF4000
0000EF4000FF3000
0000AF9106F90000
00008FFEEFF20000
00003CDFFF800000
00000028B4000000
0000011110000000
2ADEFFFFFFEDB950
02CFFFFFFFFFFC10
000AFFFFFFFFE200
000AFFFFFFFF9000
0009FFFFFFFF6000
0007FFFFFFFF4000
0007FFFFFFFF2000
000AFFFFFFFF2000
000AFFFFFFFF0000
0008FFFFFFFE0000
0007FFFEFFFD0000
0007FFFBFFFC0000
0008FFF7DFFC0000
0009FFF3CFFD0000
000AFFE1BFFC0000
000BFFE0AFFE0000
0007FFA19FFB0000
0009FFFFFFFD0000
000DFFFFFFFC0000
000DFFFFFFFA0000
000BFFFFFFF80000
0008FFF7FFF40000
0006FFD09FF10000
0006FF50AFF10000
0006CF209ED00000
0004872045B00000
0001712004900000
0000200018400000
0000000041000000
0000000040000000
ENDCHAR
STARTCHAR AE
ENCODING 198
SWIDTH 733 0
DWIDTH 23 0
BBX 23 31 0 -7
BITMAP
000001245677887655300000
29CEFFFFFFFFFFFFFFFFDB40
02CFFFFFFFFFFFFFFFFFFD00
0009FFFFFFFFFFFFFFFFF600
000BFFFFFFFFFFFFFFFFE100
000AFFFFFFFFFFFFFFFFA000
000AFFFFFFFFFFFFFFFF4000
0009FFFFFFFFFFFFFFFE0000
0008FFFFFFFFFFFFFFFB0000
0007FFFFFFFFFFFFFFFA0000
0006FFFFFFFFFC9CFFF90000
0006FFFFFFFFFA0014740000
0007FFFBFFFFFB0000000000
0008FFF6DFFFFD9994000000
0009FFF3CFFFFFFFFE000000
000AFFE1CFFFFFFFFD000000
000BFFD0BFFFFFFFFB000000
0008FF919FFFFEBBB9000000
0009FFFFFFFFF80000000000
000CFFFFFFFFF81110000000
000EFFFFFFFFFDFFFC500000
000BFFFFFFFFFFFFFF400000
0008FFE8FFFDEFFFFE000000
0006FFB0CFD06FFCAE000000
0005FF40BFC06CE10C000000
0004CF208EA0694009000000
000286203770690026000000
000181200750680056000000
000010001910540021000000
000000004100000000000000
000000004000000000000000
ENDCHAR
STARTCHAR Ccedilla
ENCODING 199
SWIDTH 504 0
DWIDTH 16 0
BBX 16 38 0 -14
BITMAP
0000039ABBB40000
00009FFFFFFFA100
002AFFFFFFFFFB20
01DFFFFFFFFFFF70
06FFFFFFFFFFFFF4
0CFFFFFFFFFFFFF4
0FFFFFFFFFFFFFF5
1FFFFFFFFFFFFFF5
1FFFFFFFFFFFFFF5
0EFFFFFFFFFFFFF4
0CFFFFFFBFFFFFF3
0AFFFFF809FFFFF2
08FFFFF302FFFFF0
03FFFFF500EFFFD0
04FFFFF500231130
01FFFFF200000000
00DFFFF100000000
00AFFFF201530000
008FFFF304FFFC20
004FFFF507FFFD10
003FFFFA1DFFFB00
000AFFFFDFFFF700
0007FFFFFFFFD200
0004EFFFFFFE4000
000016E6BEF70000
000000907B500000
0000009098300000
0000002014CFB000
0000000001FF7000
0000000006FE1000
000000000AF80000
000000000EFFDCA0
000000000CEFFFC0
000000000000CFB0
000000000000CFA0
00000000068AEFA0
000000000DFFFFA0
0000000006678950
ENDCHAR
STARTCHAR Egrave
ENCODING 200
SWIDTH 570 0
DWIDTH 18 0
BBX 18 36 0 -2
BITMAP
000200000000000000
005E40000000000000
00DFF6000000000000
01EFFF800000000000
3CFFFFFA1000000000
CFFFFFFFC400000000
037BFFFFFF40000000
0000159DFF50000000
000000003700000000
000000000000000000
001356788876421000
0CFFFFFFFFFFFFFDA1
05FFFFFFFFFFFFFF70
00AFFFFFFFFFFFFF10
004EFFFFFFFFFFFD00
001FFFFFFFFFFFFA00
000FFFFFFFFFFFF500
000FFFFFFFFFFFF100
000EFFFFFFFFFFB000
000DFFFFFFFFFF7000
000CFFFFB9CFFF4000
000AFFFF7001582000
0009FFFF7000000000
0008FFFFB998300000
0005FFFFFFFF900000
0005FFFFFFFF700000
0003FFFFFFFF700000
0001FFFFDBBD500000
0000EFFF3000000000
0000CFFF4110000000
0000BFFFDFFFC20000
00009FFFFFFFF10000
00008FCFFFFFA00000
0000860AFFABA00000
0000740ADB03800000
000020074204400000
ENDCHAR
STARTCHAR Eacute
ENCODING 201
SWIDTH 570 0
DWIDTH 18 0
BBX 20 36 1 -2
BITMAP
00000000000000020000
000000000000004E6000
00000000000006FFD000
0000000000008FFFE200
00000000000AFFFFFD30
0000000003CFFFFFFFD1
000000003FFFFFFB7200
000000004FFDA5100000
00000000073000000000
00000000000000000000
01356788876421000000
CFFFFFFFFFFFFFDA1000
5FFFFFFFFFFFFFF70000
0AFFFFFFFFFFFFF10000
04EFFFFFFFFFFFD00000
01FFFFFFFFFFFFA00000
00FFFFFFFFFFFF500000
00FFFFFFFFFFFF100000
00EFFFFFFFFFFB000000
00DFFFFFFFFFF7000000
00CFFFFB9CFFF4000000
00AFFFF7001582000000
009FFFF7000000000000
008FFFFB998300000000
005FFFFFFFF900000000
005FFFFFFFF700000000
003FFFFFFFF700000000
001FFFFDBBD500000000
000EFFF3000000000000
000CFFF4110000000000
000BFFFDFFFC20000000
0009FFFFFFFF10000000
0008FCFFFFFA00000000
000860AFFABA00000000
000740ADB03800000000
00020074204400000000
ENDCHAR
STARTCHAR Ecircumflex
ENCODING 202
SWIDTH 570 0
DWIDTH 18 0
BBX 17 39 1 -2
BITMAP
000005423550000000
00005FFFFFF2000000
0000BFFFFFFA000000
0003FFFFFFFF300000
000AFFFFFFFFA00000
002FFFFCEFFFF30000
008FFFD14FFFFB0000
01EFFE3006FFFF3000
06FFF400009FFFB000
0DFF5000000BFFF200
1AF700000001CE4000
003000000000120000
000000000000000000
013567888764210000
CFFFFFFFFFFFFFDA10
5FFFFFFFFFFFFFF700
0AFFFFFFFFFFFFF100
04EFFFFFFFFFFFD000
01FFFFFFFFFFFFA000
00FFFFFFFFFFFF5000
00FFFFFFFFFFFF1000
00EFFFFFFFFFFB0000
00DFFFFFFFFFF70000
00CFFFFB9CFFF40000
00AFFFF70015820000
009FFFF70000000000
008FFFFB9983000000
005FFFFFFFF9000000
005FFFFFFFF7000000
003FFFFFFFF7000000
001FFFFDBBD5000000
000EFFF30000000000
000CFFF41100000000
000BFFFDFFFC200000
0009FFFFFFFF100000
0008FCFFFFFA000000
000860AFFABA000000
000740ADB038000000
000200742044000000
ENDCHAR
STARTCHAR Edieresis
ENCODING 203
SWIDTH 570 0
DWIDTH 18 0
BBX 17 36 1 -2
BITMAP
001000000000576200
5EFECE9007FFFFFF10
6FFFFFB007FFFFFF10
7FFFFFC007FFFFFF00
7FFFFFB007FFFFFD10
7FFFFFC007FFFFFF30
7FFFFFB007FFFFFF10
6FFFFFA007FFFEFF00
033555300023102100
000000000000000000
013567888764210000
CFFFFFFFFFFFFFDA10
5FFFFFFFFFFFFFF700
0AFFFFFFFFFFFFF100
04EFFFFFFFFFFFD000
01FFFFFFFFFFFFA000
00FFFFFFFFFFFF5000
00FFFFFFFFFFFF1000
00EFFFFFFFFFFB0000
00DFFFFFFFFFF70000
00CFFFFB9CFFF40000
00AFFFF70015820000
009FFFF70000000000
008FFFFB9983000000
005FFFFFFFF9000000
005FFFFFFFF7000000
003FFFFFFFF7000000
001FFFFDBBD5000000
000EFFF30000000000
000CFFF41100000000
000BFFFDFFFC200000
0009FFFFFFFF100000
0008FCFFFFFA000000
000860AFFABA000000
000740ADB038000000
000200742044000000
ENDCHAR
STARTCHAR Igrave
ENCODING 204
SWIDTH 401 0
DWIDTH 13 0
BBX 15 36 -3 -2
BITMAP
0002000000000000
004E500000000000
00BFF70000000000
01DFFF9000000000
2BFFFFFB10000000
BFFFFFFFD4000000
027BFFFFFF500000
0000159CFF600000
0000000027100000
0000000000000000
00017AAA99A99960
0003EFFFFFFFFF90
00009FFFFFFFFE10
000008FFFFFFFB00
000000DFFFFFF300
0000007FFFFFF600
0000003FFFFFF600
0000005FFFFFF400
0000007FFFFFF300
0000007FFFFFF100
0000007FFFFFE000
0000006FFFFFA000
0000005FFFFF6000
0000004FFFFF9000
0000002FFFFF9000
0000000FFFFF9000
0000000EFFFF4000
0000000CFFFF2000
0000000AFFFF5000
00000008FFFF4000
00000006FFFF3000
00000004FFFF2000
00000001FFFF1000
00000000D2EF3000
00000000A0A64000
0000000020610000
ENDCHAR
STARTCHAR Iacute
ENCODING 205
SWIDTH 401 0
DWIDTH 13 0
BBX 18 36 0 -2
BITMAP
000000000000020000
0000000000003E8000
000000000005EFE000
00000000006FFFF300
0000000008FFFFFD40
00000002BFFFFFFFD1
0000002EFFFFFC7300
0000003FFEA6100000
000000074000000000
000000000000000000
17AAA99A9996000000
3EFFFFFFFFF9000000
09FFFFFFFFE1000000
008FFFFFFFB0000000
000DFFFFFF30000000
0007FFFFFF60000000
0003FFFFFF60000000
0005FFFFFF40000000
0007FFFFFF30000000
0007FFFFFF10000000
0007FFFFFE00000000
0006FFFFFA00000000
0005FFFFF600000000
0004FFFFF900000000
0002FFFFF900000000
0000FFFFF900000000
0000EFFFF400000000
0000CFFFF200000000
0000AFFFF500000000
00008FFFF400000000
00006FFFF300000000
00004FFFF200000000
00001FFFF100000000
00000D2EF300000000
00000A0A6400000000
000002061000000000
ENDCHAR
STARTCHAR Icircumflex
ENCODING 206
SWIDTH 401 0
DWIDTH 13 0
BBX 15 39 -1 -2
BITMAP
0000542356000000
0003FFFFFF400000
000AFFFFFFB00000
002FFFFFFFF40000
008FFFFFFFFC0000
01EFFFDDFFFF4000
07FFFE23EFFFC000
0DFFF4005FFFF500
5FFF500007FFFC00
CFF70000009FFF30
9F900000000BF500
0300000000003000
0000000000000000
017AAA99A9996000
03EFFFFFFFFF9000
009FFFFFFFFE1000
0008FFFFFFFB0000
0000DFFFFFF30000
00007FFFFFF60000
00003FFFFFF60000
00005FFFFFF40000
00007FFFFFF30000
00007FFFFFF10000
00007FFFFFE00000
00006FFFFFA00000
00005FFFFF600000
00004FFFFF900000
00002FFFFF900000
00000FFFFF900000
00000EFFFF400000
00000CFFFF200000
00000AFFFF500000
000008FFFF400000
000006FFFF300000
000004FFFF200000
000001FFFF100000
000000D2EF300000
000000A0A6400000
0000002061000000
ENDCHAR
STARTCHAR Idieresis
ENCODING 207
SWIDTH 401 0
DWIDTH 13 0
BBX 17 36 -2 -2
BITMAP
001000000000576300
4EFECEA005FFFFFF20
5FFFFFD006FFFFFF20
5FFFFFD006FFFFFF10
6FFFFFD006FFFFFE10
6FFFFFD006FFFFFF40
6FFFFFC006FFFFFF30
5FFFFFB005FFFEFF10
033565300023101100
000000000000000000
0017AAA99A99960000
003EFFFFFFFFF90000
0009FFFFFFFFE10000
00008FFFFFFFB00000
00000DFFFFFF300000
000007FFFFFF600000
000003FFFFFF600000
000005FFFFFF400000
000007FFFFFF300000
000007FFFFFF100000
000007FFFFFE000000
000006FFFFFA000000
000005FFFFF6000000
000004FFFFF9000000
000002FFFFF9000000
000000FFFFF9000000
000000EFFFF4000000
000000CFFFF2000000
000000AFFFF5000000
0000008FFFF4000000
0000006FFFF3000000
0000004FFFF2000000
0000001FFFF1000000
0000000D2EF3000000
0000000A0A64000000
000000020610000000
ENDCHAR
STARTCHAR Eth
ENCODING 208
SWIDTH 530 0
DWIDTH 17 0
BBX 17 29 1 -5
BITMAP
000000146789700000
0169BEFFFFFFF70000
03FFFFFFFFFFFF5000
06FFFFFFFFFFFFF700
00DFFFFFFFFFFFFE00
007FFFFFFFFFFFFF30
002FFFFFFFFFFFFF60
000DFFFFFFFFFFFF70
000AFFFFFFFFFFFF80
0009FFFFFFFFFFFF70
0008FFFFFDDFFFFF50
0006FFFFF20AFFFF20
0004FFFFC006FFFD00
1103FFFFA115FFF900
CFFFFFFFFF95FFF500
7ABCFFFFEC44FFF200
0000FFFFA005FFD000
0000CFFF9009FF9000
00009FFF900DFF6000
00006FFFD01EFF4000
00003FFFFBFFFF4000
00004FFFFFFFFF2000
00005FFFFFFFFB0000
00004FB45FFFF20000
00004F101FFB400000
00002C001DA0000000
000009002A80000000
000002002800000000
000000000400000000
ENDCHAR
STARTCHAR Ntilde
ENCODING 209
SWIDTH 610 0
DWIDTH 20 0
BBX 19 39 0 -6
BITMAP
00001100000372000000
0004DC10006CFF800000
007FFFB13CFFFFF70000
00DFFFFFFFFFFFFF4000
003FFFFFFFFFFFFF8000
0005FFFFFFDDFFFC1000
00007FFFD6005E910000
00000155000001000000
00000000000000000000
00012345803974200000
09FFFFFFE01EFFFFD950
1CFFFFFFF10AFFFFFC10
018FFFFFF408FFFFE200
004FFFFFFB07FFFF7000
002FFFFFFE26FFFF6000
002FFFFFFF77FFFF5000
000FFFFFFFC7FFFF4000
000EFFFFFFFAFFFF2000
000DFFFFFFFFFFFF0000
000BFFFFFFFFFFFD0000
0009FFFFFFFFFFFA0000
0008FFFFFFFFFFF80000
0005FFFFFFFFFFF60000
0003FFFFFFFFFFF40000
0000EFFFFFFFFFF30000
0000CFFFAFFFFFF20000
00008FFF7FFFFFF10000
00007FFF6BFFFFF00000
00006FFF46FFFFF00000
00005FFF64FFFFE00000
00004FFF60DFFFD00000
00003FFF708FFF900000
00002FFF806FFF800000
00001FFF902FFC800000
00000D93900DD8400000
00000B00700654000000
00000A00700600000000
00000800800500000000
00000000100000000000
ENDCHAR
STARTCHAR Ograve
ENCODING 210
SWIDTH 504 0
DWIDTH 16 0
BBX 18 37 -2 -3
BITMAP
000100000000000000
000BB1000000000000
003FFD200000000000
006FFFE40000000000
16EFFFFF6000000000
4EFFFFFFF910000000
0049DFFFFFD0000000
0000027AEFE0000000
000000001450000000
000000000000000000
000000016775200000
0000019FFFFFEA5100
00001DFFFFFFFFF700
0001CFFFFFFFFFFF90
0008FFFFFFFFFFFFF1
000EFFFFFFFFFFFFF0
002FFFFFFFFFFFFFF1
000EFFFFFFFFFFFFF5
000DFFFFFFFFFFFFF0
000CFFFFFFFFFFFFF1
000AFFFFFBAFFFFFF3
0008FFFFE11EFFFFF4
0005FFFFB00AFFFFF4
0002FFFF9009FFFFF3
0000FFFF7007FFFFF2
0000EFFF9006FFFFF0
0000DFFFA006FFFF90
0000AFFFC007FFFF40
00007FFFE00CFFFF20
00003FFFF20CFFFE10
00000FFFF93FFFF900
00002FFFFFFFFFF600
00000AFFFFFFFFD100
000001AFFFFFFF7000
00000006F63FDA4000
00000000C10F461000
00000000200A100000
ENDCHAR
STARTCHAR Oacute
ENCODING 211
SWIDTH 504 0
DWIDTH 16 0
BBX 19 37 0 -3
BITMAP
00000000000000020000
000000000000008E2000
0000000000001AFF8000
000000000001CFFFA000
00000000002DFFFFF920
0000000006EFFFFFFF80
000000008FFFFFEA5100
00000000AFFB84000000
00000000362000000000
00000000000000000000
00000167752000000000
00019FFFFFEA51000000
001DFFFFFFFFF7000000
01CFFFFFFFFFFF900000
08FFFFFFFFFFFFF10000
0EFFFFFFFFFFFFF00000
2FFFFFFFFFFFFFF10000
0EFFFFFFFFFFFFF50000
0DFFFFFFFFFFFFF00000
0CFFFFFFFFFFFFF10000
0AFFFFFBAFFFFFF30000
08FFFFE11EFFFFF40000
05FFFFB00AFFFFF40000
02FFFF9009FFFFF30000
00FFFF7007FFFFF20000
00EFFF9006FFFFF00000
00DFFFA006FFFF900000
00AFFFC007FFFF400000
007FFFE00CFFFF200000
003FFFF20CFFFE100000
000FFFF93FFFF9000000
002FFFFFFFFFF6000000
000AFFFFFFFFD1000000
0001AFFFFFFF70000000
000006F63FDA40000000
000000C10F4610000000
000000200A1000000000
ENDCHAR
STARTCHAR Ocircumflex
ENCODING 212
SWIDTH 504 0
DWIDTH 16 0
BBX 16 40 0 -3
BITMAP
0000243236300000
0000AFFFFFC00000
0002FFFFFFF40000
0008FFFFFFFC0000
001EFFFFFFFF5000
007FFFFBFFFFC000
00DFFF909FFFF500
05FFFB000BFFFD00
0CFFD10001DFFF60
3FFE1000002EFFB0
3DE300000003EC10
0120000000003100
0000000000000000
0000016775200000
00019FFFFFEA5100
001DFFFFFFFFF700
01CFFFFFFFFFFF90
08FFFFFFFFFFFFF1
0EFFFFFFFFFFFFF0
2FFFFFFFFFFFFFF1
0EFFFFFFFFFFFFF5
0DFFFFFFFFFFFFF0
0CFFFFFFFFFFFFF1
0AFFFFFBAFFFFFF3
08FFFFE11EFFFFF4
05FFFFB00AFFFFF4
02FFFF9009FFFFF3
00FFFF7007FFFFF2
00EFFF9006FFFFF0
00DFFFA006FFFF90
00AFFFC007FFFF40
007FFFE00CFFFF20
003FFFF20CFFFE10
000FFFF93FFFF900
002FFFFFFFFFF600
000AFFFFFFFFD100
0001AFFFFFFF7000
000006F63FDA4000
000000C10F461000
000000200A100000
ENDCHAR
STARTCHAR Otilde
ENCODING 213
SWIDTH 504 0
DWIDTH 16 0
BBX 17 36 -1 -3
BITMAP
000110000047200000
004EC10007DFF70000
08FFFA04CFFFFF6000
1EFFFFFFFFFFFFE300
04FFFFFFFFFFFFF700
007FFFFFFDEFFFB000
0008FFFD6006E80000
000016400000100000
000000000000000000
000000167752000000
000019FFFFFEA51000
0001DFFFFFFFFF7000
001CFFFFFFFFFFF900
008FFFFFFFFFFFFF10
00EFFFFFFFFFFFFF00
02FFFFFFFFFFFFFF10
00EFFFFFFFFFFFFF50
00DFFFFFFFFFFFFF00
00CFFFFFFFFFFFFF10
00AFFFFFBAFFFFFF30
008FFFFE11EFFFFF40
005FFFFB00AFFFFF40
002FFFF9009FFFFF30
000FFFF7007FFFFF20
000EFFF9006FFFFF00
000DFFFA006FFFF900
000AFFFC007FFFF400
0007FFFE00CFFFF200
0003FFFF20CFFFE100
0000FFFF93FFFF9000
0002FFFFFFFFFF6000
0000AFFFFFFFFD1000
00001AFFFFFFF70000
0000006F63FDA40000
0000000C10F4610000
0000000200A1000000
ENDCHAR
STARTCHAR Odieresis
ENCODING 214
SWIDTH 504 0
DWIDTH 16 0
BBX 16 37 0 -3
BITMAP
0010000000026751
9FFDCD400CFFFFFA
CFFFFF600DFFFFFA
CFFFFF600DFFFFF9
DFFFFF600DFFFFF8
DFFFFF600DFFFFFC
DFFFFF500DFFFFFB
CFFFFF400CFFFEF9
1346551001430020
0000000000000000
0000016775200000
00019FFFFFEA5100
001DFFFFFFFFF700
01CFFFFFFFFFFF90
08FFFFFFFFFFFFF1
0EFFFFFFFFFFFFF0
2FFFFFFFFFFFFFF1
0EFFFFFFFFFFFFF5
0DFFFFFFFFFFFFF0
0CFFFFFFFFFFFFF1
0AFFFFFBAFFFFFF3
08FFFFE11EFFFFF4
05FFFFB00AFFFFF4
02FFFF9009FFFFF3
00FFFF7007FFFFF2
00EFFF9006FFFFF0
00DFFFA006FFFF90
00AFFFC007FFFF40
007FFFE00CFFFF20
003FFFF20CFFFE10
000FFFF93FFFF900
002FFFFFFFFFF600
000AFFFFFFFFD100
0001AFFFFFFF7000
000006F63FDA4000
000000C10F461000
000000200A100000
ENDCHAR
STARTCHAR multiply
ENCODING 215
SWIDTH 359 0
DWIDTH 12 0
BBX 12 13 0 6
BITMAP
000000001000
001C5006D100
01CFE12EFC10
2DFFFACFFFA0
5FFFFFFFFFE1
05FFFFFFFC40
004FFFFFE200
005FFFFFF500
06FFFFFFFF40
4FFFFFFFFFE1
0BFFFDCFFFD1
01DFE22DFD20
003D3003C200
ENDCHAR
STARTCHAR Oslash
ENCODING 216
SWIDTH 658 0
DWIDTH 21 0
BBX 23 27 -1 -3
BITMAP
000000016764400000000000
0000019FFFFFFC8200000000
00002DFFFFFFFFFE10000500
0001CFFFFFFFFFFFD3008C10
0008FFFFFFFFFFFFF809D100
000EFFFFFFFFFFFFF89C2000
003FFFFFFFFFFFFFFED10000
001FFFFFFFFFFFFFFE300000
000EFFFFFFFFFFFFF8000000
000DFFFFFFFFFFFFF9000000
000BFFFFFC8FFFFFFB000000
0008FFFFE20BFFFFFC000000
0006FFFFA008FFFFFB000000
0003FFFF804FFFFFFB000000
0001FFFF73EAFFFFF9000000
0000FFFFBE92FFFFF7000000
0000EFFFF902FFFFE3000000
0000BFFFC002FFFFC0000000
00008FFFD008FFFFA0000000
00004FFFF309FFFF80000000
0000AFFFFA1EFFFF30000000
000BCFFFFFFFFFFE00000000
00AA0BFFFFFFFFF700000000
09A002BFFFFFFFF000000000
5B000007F71EF8C000000000
30000000D10CA07000000000
000000002008400000000000
ENDCHAR
STARTCHAR Ugrave
ENCODING 217
SWIDTH 637 0
DWIDTH 20 0
BBX 20 36 0 -2
BITMAP
00002000000000000000
0003E500000000000000
000BFF80000000000000
000DFFFA000000000000
02BFFFFFC10000000000
0BFFFFFFFD5000000000
0026BFFFFFF600000000
00000149CFF700000000
00000000026100000000
00000000000000000000
00257999910243210000
4BFFFFFFE000FFFFDA52
01DFFFFFE002FFFFFFD3
006FFFFFE004FFFFFF30
006FFFFFC004FFFFFD00
005FFFFFB004FFFFFB00
002FFFFFF104FFFFF700
000EFFFFF305FFFFF400
000CFFFFF305FFFFF100
000AFFFFF306FFFFC000
0008FFFFF207FFFF8000
0006FFFFE007FFFF5000
0004FFFFB008FFFF2000
0003FFFF900BFFFF1000
0004FFFFB00BFFFF0000
0005FFFFD00CFFFF0000
0002FFFFE00DFFFC0000
0002FFFFF20EFFFB0000
0000DFFFF31FFFF80000
00009FFFF66FFFF60000
00007FFFFFFFFFF40000
00004FFFFFFFFFE00000
00000EFFE7FFFF700000
000001DDC09583100000
00000077104190000000
00000011001370000000
ENDCHAR
STARTCHAR Uacute
ENCODING 218
SWIDTH 637 0
DWIDTH 20 0
BBX 22 36 0 -2
BITMAP
0000000000000000011000
00000000000000003D8000
0000000000000004EFF100
000000000000006FFFF300
00000000000008FFFFFE50
000000000002BFFFFFFFD2
00000000002EFFFFFC8300
00000000002FFEA6100000
0000000000064000000000
0000000000000000000000
0025799991024321000000
4BFFFFFFE000FFFFDA5200
01DFFFFFE002FFFFFFD300
006FFFFFE004FFFFFF3000
006FFFFFC004FFFFFD0000
005FFFFFB004FFFFFB0000
002FFFFFF104FFFFF70000
000EFFFFF305FFFFF40000
000CFFFFF305FFFFF10000
000AFFFFF306FFFFC00000
0008FFFFF207FFFF800000
0006FFFFE007FFFF500000
0004FFFFB008FFFF200000
0003FFFF900BFFFF100000
0004FFFFB00BFFFF000000
0005FFFFD00CFFFF000000
0002FFFFE00DFFFC000000
0002FFFFF20EFFFB000000
0000DFFFF31FFFF8000000
00009FFFF66FFFF6000000
00007FFFFFFFFFF4000000
00004FFFFFFFFFE0000000
00000EFFE7FFFF70000000
000001DDC0958310000000
0000007710419000000000
0000001100137000000000
ENDCHAR
STARTCHAR Ucircumflex
ENCODING 219
SWIDTH 637 0
DWIDTH 20 0
BBX 20 39 0 -2
BITMAP
00000004422560000000
0000003FFFFFF4000000
0000009FFFFFFC000000
000001FFFFFFFF500000
000008FFFFFFFFC00000
00000EFFFDDFFFF50000
00006FFFE23EFFFD0000
0000CFFF4004FFFF6000
0004FFF600007FFFD000
000BFF70000009FFF400
0009F900000000AF6000
00003000000000030000
00000000000000000000
00257999910243210000
4BFFFFFFE000FFFFDA52
01DFFFFFE002FFFFFFD3
006FFFFFE004FFFFFF30
006FFFFFC004FFFFFD00
005FFFFFB004FFFFFB00
002FFFFFF104FFFFF700
000EFFFFF305FFFFF400
000CFFFFF305FFFFF100
000AFFFFF306FFFFC000
0008FFFFF207FFFF8000
0006FFFFE007FFFF5000
0004FFFFB008FFFF2000
0003FFFF900BFFFF1000
0004FFFFB00BFFFF0000
0005FFFFD00CFFFF0000
0002FFFFE00DFFFC0000
0002FFFFF20EFFFB0000
0000DFFFF31FFFF80000
00009FFFF66FFFF60000
00007FFFFFFFFFF40000
00004FFFFFFFFFE00000
00000EFFE7FFFF700000
000001DDC09583100000
00000077104190000000
00000011001370000000
ENDCHAR
STARTCHAR Udieresis
ENCODING 220
SWIDTH 637 0
DWIDTH 20 0
BBX 20 36 0 -2
BITMAP
00001000000000476300
003DFECEB005FFFFFF30
004FFFFFE005FFFFFF30
005FFFFFE005FFFFFF20
005FFFFFE005FFFFFF10
005FFFFFE005FFFFFF50
005FFFFFD005FFFFFF30
004FFFFFC005FFFEFF20
00033565300023101100
00000000000000000000
00257999910243210000
4BFFFFFFE000FFFFDA52
01DFFFFFE002FFFFFFD3
006FFFFFE004FFFFFF30
006FFFFFC004FFFFFD00
005FFFFFB004FFFFFB00
002FFFFFF104FFFFF700
000EFFFFF305FFFFF400
000CFFFFF305FFFFF100
000AFFFFF306FFFFC000
0008FFFFF207FFFF8000
0006FFFFE007FFFF5000
0004FFFFB008FFFF2000
0003FFFF900BFFFF1000
0004FFFFB00BFFFF0000
0005FFFFD00CFFFF0000
0002FFFFE00DFFFC0000
0002FFFFF20EFFFB0000
0000DFFFF31FFFF80000
00009FFFF66FFFF60000
00007FFFFFFFFFF40000
00004FFFFFFFFFE00000
00000EFFE7FFFF700000
000001DDC09583100000
00000077104190000000
00000011001370000000
ENDCHAR
STARTCHAR Yacute
ENCODING 221
SWIDTH 688 0
DWIDTH 22 0
BBX 23 37 0 -2
BITMAP
000000000000000000200000
000000000000000003D80000
00000000000000004EFE0000
0000000000000006FFFF3000
000000000000008FFFFFD400
0000000000002BFFFFFFFD20
000000000002EFFFFFC73000
000000000002FFEA61000000
000000000000640000000000
000000000000000000000000
000000000000000000000000
001376888100029300000000
3BFFFFFFF80006FFEC860000
018FFFFFFE1008FFFFFFDA50
0002BFFFFFA00CFFFFFF9200
000009FFFFF24FFFFFF60000
000002EFFFF9BFFFFF700000
0000003DFFFFFFFFF9000000
00000006FFFFFFFFC0000000
00000001EFFFFFFF50000000
000000008FFFFFFF20000000
000000002FFFFFFF00000000
000000000DFFFFFD00000000
0000000006FFFFFC00000000
0000000000EFFFFA00000000
0000000000AFFFF900000000
00000000006FFFF800000000
00000000003FFFF700000000
00000000001FFFF600000000
00000000000EFFF500000000
00000000000CFFF500000000
00000000000BFFF400000000
00000000000AFFF300000000
000000000009FFF200000000
000000000008FFF100000000
000000000006EA7000000000
000000000002000000000000
ENDCHAR
STARTCHAR Thorn
ENCODING 222
SWIDTH 521 0
DWIDTH 17 0
BBX 16 34 0 -4
BITMAP
0001012132000000
6ADFDFFFF4000000
5FFFFFFFE0000000
4FFFFFFFC0000000
2FFFFFFFA0000000
0FFFFFFF70000000
0DFFFFFFC5965200
0AFFFFFFFFFFFF60
08FFFFFFFFFFFFF1
06FFFFFFFFFFFFF6
05FFFFFFFFFFFFF9
04FFFFFFFFFFFFFA
04FFFFFFFFFFFFFA
03FFFFFFFFFFFFF9
01FFFFFFFFFFFFF8
00EFFFFFFFFFFFF7
00CFFFFF856FFFF6
00AFFFFF700CFFF4
007FFFFF600AFFF2
005FFFFF8009FFE0
002FFFFF8009FFB0
000EFFFFC99DFF70
000BFFFFFFFFFF30
0008FFFFFFFFFC00
0006FFFFECCED200
0002FFFF80000000
0004FFFF90000000
0006FFFF90000000
0004FFFFA0000000
0000FFFFA0000000
0000BC8FB0000000
0000970A60000000
0000880940000000
0000390900000000
ENDCHAR
STARTCHAR germandbls
ENCODING 223
SWIDTH 546 0
DWIDTH 18 0
BBX 16 27 1 -3
BITMAP
0000023444420000
007DFFFFFFFFE910
08FFFFFFFFFFFFB0
2FFFFFFFFFFFFFF4
7FFFFFFFFFFFFFF7
AFFFFFFFFFFFFFF8
BFFFFFFFFFFFFFF7
9FFFFFFFFFFFFFF7
DFFFFFFFFFFFFFF9
DFFFFFFFFFFFFFF4
BFFFFFFABFFFFFD0
9FFFFF900AFFFF80
6FFFFF9008FFFF20
4FFFFF900BFFFB00
2FFFFF836CFFF500
0EFFFF85FFFFF200
0CFFFF85FFFE5000
09FFFF84FFFFB000
07FFFF72BFFFF500
07FFFF700DFFF600
06FFFF800DFFF400
04FFFF800DFFF100
01EFFF746FFFD000
00AFFF77FFFFA000
00CECF78FFFF3000
007219249FFA0000
0000000001410000
ENDCHAR
STARTCHAR agrave
ENCODING 224
SWIDTH 479 0
DWIDTH 15 0
BBX 17 38 -1 -3
BITMAP
000200000000000000
005E40000000000000
00CFF6000000000000
01EFFF900000000000
2CFFFFFB1000000000
CFFFFFFFD400000000
027BFFFFFF50000000
0000159CFF50000000
000000003710000000
000000000000000000
000000000000000000
003578ABCCC9BCDD50
04EFFFFFFFFFFFF500
003EFFFFFFFFFF9000
0003EFFFFFFFFF4000
0000BFFFFFFFFF1000
0000BFFFFFFFFE0000
00009FFFFFFFFE0000
00006FFFFFFFFE0000
00007FFFFFFFFE0000
0000BFFFFFFFFD0000
0000AFFFFFFFFB0000
00007FFFFFFFF80000
00005FFFFDFFF90000
00006FFFDAFFFB0000
0000AFFF98FFFD0000
0000BFFF65FFFB1000
0000DFFF44FFFD1000
0000EFFF24FFFF0000
0000EFFF12FFFD0000
0000AFFFFFFFFC0000
0001EFFFFFFFFA0000
0000FFFFFFFFF80000
0000CFFF79FFF70000
0000CFFF31DFF60000
0000DFFA00DFF60000
0000CFF6019EF40000
00006AA20000200000
ENDCHAR
STARTCHAR aacute
ENCODING 225
SWIDTH 479 0
DWIDTH 15 0
BBX 20 38 0 -3
BITMAP
00000000000000020000
000000000000003E7000
00000000000005FFE000
0000000000007FFFE200
000000000009FFFFFD40
0000000003BFFFFFFFD1
000000002FFFFFFC7300
000000003FFDA6100000
00000000074000000000
00000000000000000000
00000000000000000000
03578ABCCC9BCDD50000
4EFFFFFFFFFFFF500000
03EFFFFFFFFFF9000000
003EFFFFFFFFF4000000
000BFFFFFFFFF1000000
000BFFFFFFFFE0000000
0009FFFFFFFFE0000000
0006FFFFFFFFE0000000
0007FFFFFFFFE0000000
000BFFFFFFFFD0000000
000AFFFFFFFFB0000000
0007FFFFFFFF80000000
0005FFFFDFFF90000000
0006FFFDAFFFB0000000
000AFFF98FFFD0000000
000BFFF65FFFB1000000
000DFFF44FFFD1000000
000EFFF24FFFF0000000
000EFFF12FFFD0000000
000AFFFFFFFFC0000000
001EFFFFFFFFA0000000
000FFFFFFFFF80000000
000CFFF79FFF70000000
000CFFF31DFF60000000
000DFFA00DFF60000000
000CFF6019EF40000000
0006AA20000200000000
ENDCHAR
STARTCHAR acircumflex
ENCODING 226
SWIDTH 479 0
DWIDTH 15 0
BBX 16 40 0 -3
BITMAP
0000054235600000
00004FFFFFF30000
0000BFFFFFFB0000
0002FFFFFFFF4000
0009FFFFFFFFB000
001EFFFCEFFFF400
007FFFE23FFFFC00
00DFFF3006FFFF40
05FFF500008FFFC0
0CFF6000000AFFF2
09F800000000BF50
0030000000001300
0000000000000000
03578ABCCC9BCDD5
4EFFFFFFFFFFFF50
03EFFFFFFFFFF900
003EFFFFFFFFF400
000BFFFFFFFFF100
000BFFFFFFFFE000
0009FFFFFFFFE000
0006FFFFFFFFE000
0007FFFFFFFFE000
000BFFFFFFFFD000
000AFFFFFFFFB000
0007FFFFFFFF8000
0005FFFFDFFF9000
0006FFFDAFFFB000
000AFFF98FFFD000
000BFFF65FFFB100
000DFFF44FFFD100
000EFFF24FFFF000
000EFFF12FFFD000
000AFFFFFFFFC000
001EFFFFFFFFA000
000FFFFFFFFF8000
000CFFF79FFF7000
000CFFF31DFF6000
000DFFA00DFF6000
000CFF6019EF4000
0006AA2000020000
ENDCHAR
STARTCHAR atilde
ENCODING 227
SWIDTH 479 0
DWIDTH 15 0
BBX 16 36 0 -3
BITMAP
0002000000940000
01BE50002CFFC100
3DFFE319EFFFFC00
8FFFFFFFFFFFFF80
0CFFFFFFFFFFFFD0
02EFFFFFFDFFFE30
003DFFF9203CC200
0000461000010000
0000000000000000
03578ABCCC9BCDD5
4EFFFFFFFFFFFF50
03EFFFFFFFFFF900
003EFFFFFFFFF400
000BFFFFFFFFF100
000BFFFFFFFFE000
0009FFFFFFFFE000
0006FFFFFFFFE000
0007FFFFFFFFE000
000BFFFFFFFFD000
000AFFFFFFFFB000
0007FFFFFFFF8000
0005FFFFDFFF9000
0006FFFDAFFFB000
000AFFF98FFFD000
000BFFF65FFFB100
000DFFF44FFFD100
000EFFF24FFFF000
000EFFF12FFFD000
000AFFFFFFFFC000
001EFFFFFFFFA000
000FFFFFFFFF8000
000CFFF79FFF7000
000CFFF31DFF6000
000DFFA00DFF6000
000CFF6019EF4000
0006AA2000020000
ENDCHAR
STARTCHAR adieresis
ENCODING 228
SWIDTH 479 0
DWIDTH 15 0
BBX 17 37 0 -3
BITMAP
001000000000576200
4EFECE9006FFFFFF10
6FFFFFC007FFFFFF10
6FFFFFC006FFFFFF00
7FFFFFC006FFFFFE10
7FFFFFC006FFFFFF30
6FFFFFB006FFFFFF20
5FFFFFB006FFFEFF10
033565300023101100
000000000000000000
03578ABCCC9BCDD500
4EFFFFFFFFFFFF5000
03EFFFFFFFFFF90000
003EFFFFFFFFF40000
000BFFFFFFFFF10000
000BFFFFFFFFE00000
0009FFFFFFFFE00000
0006FFFFFFFFE00000
0007FFFFFFFFE00000
000BFFFFFFFFD00000
000AFFFFFFFFB00000
0007FFFFFFFF800000
0005FFFFDFFF900000
0006FFFDAFFFB00000
000AFFF98FFFD00000
000BFFF65FFFB10000
000DFFF44FFFD10000
000EFFF24FFFF00000
000EFFF12FFFD00000
000AFFFFFFFFC00000
001EFFFFFFFFA00000
000FFFFFFFFF800000
000CFFF79FFF700000
000CFFF31DFF600000
000DFFA00DFF600000
000CFF6019EF400000
0006AA200002000000
ENDCHAR
STARTCHAR aring
ENCODING 229
SWIDTH 479 0
DWIDTH 15 0
BBX 16 39 0 -3
BITMAP
0000001443000000
000008FFFFC20000
00007FFFFFFD2000
0000DFD77CFF8000
0000DF8001DF8000
0000AF8000BF7000
00006FC103ED0000
00004FFFDFF60000
00000CCFFFC00000
00000017B7000000
0000000000000000
0000000000000000
03578ABCCC9BCDD5
4EFFFFFFFFFFFF50
03EFFFFFFFFFF900
003EFFFFFFFFF400
000BFFFFFFFFF100
000BFFFFFFFFE000
0009FFFFFFFFE000
0006FFFFFFFFE000
0007FFFFFFFFE000
000BFFFFFFFFD000
000AFFFFFFFFB000
0007FFFFFFFF8000
0005FFFFDFFF9000
0006FFFDAFFFB000
000AFFF98FFFD000
000BFFF65FFFB100
000DFFF44FFFD100
000EFFF24FFFF000
000EFFF12FFFD000
000AFFFFFFFFC000
001EFFFFFFFFA000
000FFFFFFFFF8000
000CFFF79FFF7000
000CFFF31DFF6000
000DFFA00DFF6000
000CFF6019EF4000
0006AA2000020000
ENDCHAR
STARTCHAR ae
ENCODING 230
SWIDTH 755 0
DWIDTH 24 0
BBX 24 27 0 -3
BITMAP
02578ABCCC9CDDCB96410000
3EFFFFFFFFFFFFFFFFFFEC91
03EFFFFFFFFFFFFFFFFFFF90
002DFFFFFFFFFFFFFFFFFE10
0008FFFFFFFFFFFFFFFFF700
0008FFFFFFFFFFFFFFFFF100
0006FFFFFFFFFFFFFFFFC000
0003FFFFFFFFFFFFFFFF9000
0004FFFFFFFFFFFFFFFF8000
0009FFFFFFFFFFFFFFFF6000
0008FFFFFFFFFFFFFFFF4000
0005FFFFFFFFFF1248CF1000
0002FFFFDFFFFF3000020000
0004FFFF8FFFFF3000000000
0007FFFD6FFFFFDCCC500000
0008FFFA3FFFFFFFFF600000
000AFFF72FFFFFFFFF600000
000BFFF51FFFFFFFFF400000
000BFFF40FFFFFA88D000000
0007FFFEFFFFFF3001000000
000CFFFFFFFFFF5421000000
000BFFFFFFFFFFBFFFE00000
0007FFF97FFFFFFFFFC00000
0009FFF60DFFFFFFFF800000
000AFFB10BFF47FDAC800000
0009FF9009EF102002700000
0004AC300002000000100000
ENDCHAR
STARTCHAR ccedilla
ENCODING 231
SWIDTH 534 0
DWIDTH 17 0
BBX 17 37 0 -13
BITMAP
00000278DDB8300000
00007FFFFFFFF80000
0029FFFFFFFFFF8100
01DFFFFFFFFFFFF700
07FFFFFFFFFFFFFF40
0CFFFFFFFFFFFFFF50
1FFFFFFFFFFFFFFF20
2FFFFFFFFFFFFFFF40
2FFFFFFFFFFFFFFF40
0EFFFFFFFFFFFFFF30
0CFFFFFFFCFFFFFF20
08FFFFFF42CFFFFF00
04FFFFFC007FFFFE00
01FFFFFD003FFFFC00
00CFFFFF103589A900
00DFFFFA0000000000
00AFFFFA0000000000
007FFFFC0002000000
003FFFFE008FE92000
000EFFFF20DFFF6000
000CFFFF53FFFF2000
0007FFFFBBFFFF1000
0000DFFFFFFFFA0000
00009FFFFFFFD20000
0000299CCBFD100000
0000002623A4000000
0000000009FD000000
000000000EF9000000
000000003FF3000000
000000008FB0000000
00000000BFFECC0000
000000009EFFFE0000
00000000000AFE0000
00000000000AFD0000
0000000058AEFC0000
00000000BFFFFC0000
000000005768960000
ENDCHAR
STARTCHAR egrave
ENCODING 232
SWIDTH 632 0
DWIDTH 20 0
BBX 20 37 0 -3
BITMAP
00011000000000000000
0009D200000000000000
001FFE30000000000000
004FFFF5000000000000
05EFFFFF800000000000
2EFFFFFFFB2000000000
0038CFFFFFE100000000
0000026AEFF100000000
00000000046000000000
00000000000000000000
00000246678776420000
039DFFFFFFFFFFFFFDA1
2EFFFFFFFFFFFFFFFFA0
03FFFFFFFFFFFFFFFE10
008FFFFFFFFFFFFFF800
001EFFFFFFFFFFFFF200
000EFFFFFFFFFFFFD000
000CFFFFFFFFFFFFA000
0009FFFFFFFFFFFF8000
0007FFFFFFFFFFFF7000
0004FFFFFFFFFFFF4000
0002FFFFFB1348CF1000
0000EFFFFC0000020000
0000CFFFFC0000000000
00009FFFFECCCC600000
00004FFFFFFFFF700000
00004FFFFFFFFF700000
00003FFFFFFFFF600000
00001FFFFE888D300000
00000EFFFC0001000000
00000CFFFC4320000000
000009FFFDCFFFE00000
000006FFFFFFFFC00000
000003FFFFFFFFA00000
000000E40DFDAC900000
00000060021003700000
00000000000000100000
ENDCHAR
STARTCHAR eacute
ENCODING 233
SWIDTH 632 0
DWIDTH 20 0
BBX 21 37 0 -3
BITMAP
0000000000000000020000
00000000000000006F3000
0000000000000008FFA000
00000000000001AFFFC100
0000000000001CFFFFFB20
000000000005DFFFFFFFA0
00000000006FFFFFEA6100
00000000007FFC94000000
0000000000172000000000
0000000000000000000000
0000024667877642000000
039DFFFFFFFFFFFFFDA100
2EFFFFFFFFFFFFFFFFA000
03FFFFFFFFFFFFFFFE1000
008FFFFFFFFFFFFFF80000
001EFFFFFFFFFFFFF20000
000EFFFFFFFFFFFFD00000
000CFFFFFFFFFFFFA00000
0009FFFFFFFFFFFF800000
0007FFFFFFFFFFFF700000
0004FFFFFFFFFFFF400000
0002FFFFFB1348CF100000
0000EFFFFC000002000000
0000CFFFFC000000000000
00009FFFFECCCC60000000
00004FFFFFFFFF70000000
00004FFFFFFFFF70000000
00003FFFFFFFFF60000000
00001FFFFE888D30000000
00000EFFFC000100000000
00000CFFFC432000000000
000009FFFDCFFFE0000000
000006FFFFFFFFC0000000
000003FFFFFFFFA0000000
000000E40DFDAC90000000
0000006002100370000000
0000000000000010000000
ENDCHAR
STARTCHAR ecircumflex
ENCODING 234
SWIDTH 632 0
DWIDTH 20 0
BBX 20 40 0 -3
BITMAP
00000015323640000000
0000008FFFFFD0000000
000001EFFFFFF7000000
000006FFFFFFFE100000
00000DFFFFFFFF700000
00005FFFFBFFFFE10000
0000BFFFB07FFFF70000
0003FFFD100AFFFE1000
000AFFE20000CFFF8000
001FFE2000001DFFD000
002CF400000002ED2000
00003000000000210000
00000000000000000000
00000246678776420000
039DFFFFFFFFFFFFFDA1
2EFFFFFFFFFFFFFFFFA0
03FFFFFFFFFFFFFFFE10
008FFFFFFFFFFFFFF800
001EFFFFFFFFFFFFF200
000EFFFFFFFFFFFFD000
000CFFFFFFFFFFFFA000
0009FFFFFFFFFFFF8000
0007FFFFFFFFFFFF7000
0004FFFFFFFFFFFF4000
0002FFFFFB1348CF1000
0000EFFFFC0000020000
0000CFFFFC0000000000
00009FFFFECCCC600000
00004FFFFFFFFF700000
00004FFFFFFFFF700000
00003FFFFFFFFF600000
00001FFFFE888D300000
00000EFFFC0001000000
00000CFFFC4320000000
000009FFFDCFFFE00000
000006FFFFFFFFC00000
000003FFFFFFFFA00000
000000E40DFDAC900000
00000060021003700000
00000000000000100000
ENDCHAR
STARTCHAR edieresis
ENCODING 235
SWIDTH 632 0
DWIDTH 20 0
BBX 20 37 0 -3
BITMAP
00001000000001675100
007FFDCE600AFFFFFC00
00AFFFFF800BFFFFFC00
00AFFFFF800AFFFFFB00
00BFFFFF800AFFFFFA00
00BFFFFF800AFFFFFE00
00AFFFFF700AFFFFFD00
009FFFFF700AFFFEFB00
00133555200033102100
00000000000000000000
00000246678776420000
039DFFFFFFFFFFFFFDA1
2EFFFFFFFFFFFFFFFFA0
03FFFFFFFFFFFFFFFE10
008FFFFFFFFFFFFFF800
001EFFFFFFFFFFFFF200
000EFFFFFFFFFFFFD000
000CFFFFFFFFFFFFA000
0009FFFFFFFFFFFF8000
0007FFFFFFFFFFFF7000
0004FFFFFFFFFFFF4000
0002FFFFFB1348CF1000
0000EFFFFC0000020000
0000CFFFFC0000000000
00009FFFFECCCC600000
00004FFFFFFFFF700000
00004FFFFFFFFF700000
00003FFFFFFFFF600000
00001FFFFE888D300000
00000EFFFC0001000000
00000CFFFC4320000000
000009FFFDCFFFE00000
000006FFFFFFFFC00000
000003FFFFFFFFA00000
000000E40DFDAC900000
00000060021003700000
00000000000000100000
ENDCHAR
STARTCHAR igrave
ENCODING 236
SWIDTH 411 0
DWIDTH 13 0
BBX 16 36 -3 -2
BITMAP
0002000000000000
002E700000000000
008FF90000000000
00BFFFB100000000
29FFFFFD20000000
9FFFFFFFE6000000
016AEFFFFF800000
0000048BFF900000
0000000026200000
0000000000000000
00012479B79A5320
0003DFFFFFFFFFD2
00006FFFFFFFFF60
000006FFFFFFFE20
0000009FFFFFF900
0000003FFFFFF700
0000001EFFFFF600
0000002FFFFFF200
0000003FFFFFE000
0000004FFFFFB000
0000004FFFFF9000
0000003FFFFF7000
0000002FFFFF6000
0000000FFFFF6000
0000000DFFFF8000
0000000BFFFF9000
00000008FFFF3000
00000005FFFF3000
00000003FFFF0000
00000002FFFF0000
00000002FFFE0000
00000001FFFD0000
00000000FFFC0000
00000000D8EC0000
00000000308B0000
0000000000010000
ENDCHAR
STARTCHAR iacute
ENCODING 237
SWIDTH 411 0
DWIDTH 13 0
BBX 18 36 0 -2
BITMAP
000000000000011000
0000000000002CA000
000000000003DFF200
00000000004EFFF500
0000000006FFFFFE60
000000019FFFFFFFE4
0000000DFFFFFD8400
0000001EFEA7200000
000000055100000000
000000000000000000
12479B79A532000000
3DFFFFFFFFFD200000
06FFFFFFFFF6000000
006FFFFFFFE2000000
0009FFFFFF90000000
0003FFFFFF70000000
0001EFFFFF60000000
0002FFFFFF20000000
0003FFFFFE00000000
0004FFFFFB00000000
0004FFFFF900000000
0003FFFFF700000000
0002FFFFF600000000
0000FFFFF600000000
0000DFFFF800000000
0000BFFFF900000000
00008FFFF300000000
00005FFFF300000000
00003FFFF000000000
00002FFFF000000000
00002FFFE000000000
00001FFFD000000000
00000FFFC000000000
00000D8EC000000000
00000308B000000000
000000001000000000
ENDCHAR
STARTCHAR icircumflex
ENCODING 238
SWIDTH 411 0
DWIDTH 13 0
BBX 15 39 0 -2
BITMAP
0000442356000000
0003FFFFFF400000
000AFFFFFFC00000
002FFFFFFFF40000
008FFFFFFFFC0000
01EFFFDDFFFF5000
06FFFE23EFFFC000
0DFFF4005FFFF500
4FFF600007FFFD00
BFF70000009FFF30
9F900000000AF600
0300000000003000
0000000000000000
12479B79A5320000
3DFFFFFFFFFD2000
06FFFFFFFFF60000
006FFFFFFFE20000
0009FFFFFF900000
0003FFFFFF700000
0001EFFFFF600000
0002FFFFFF200000
0003FFFFFE000000
0004FFFFFB000000
0004FFFFF9000000
0003FFFFF7000000
0002FFFFF6000000
0000FFFFF6000000
0000DFFFF8000000
0000BFFFF9000000
00008FFFF3000000
00005FFFF3000000
00003FFFF0000000
00002FFFF0000000
00002FFFE0000000
00001FFFD0000000
00000FFFC0000000
00000D8EC0000000
00000308B0000000
0000000010000000
ENDCHAR
STARTCHAR idieresis
ENCODING 239
SWIDTH 411 0
DWIDTH 13 0
BBX 17 36 -2 -2
BITMAP
001000000000476300
1DFFCDC003EFFFFF50
2FFFFFF103FFFFFF50
3FFFFFF103FFFFFF40
3FFFFFF103FFFFFF30
3FFFFFF103FFFFFF70
3FFFFFF003FFFFFF50
2FFFFFE003FFFFFF40
033465400014201100
000000000000000000
0012479B79A5320000
003DFFFFFFFFFD2000
0006FFFFFFFFF60000
00006FFFFFFFE20000
000009FFFFFF900000
000003FFFFFF700000
000001EFFFFF600000
000002FFFFFF200000
000003FFFFFE000000
000004FFFFFB000000
000004FFFFF9000000
000003FFFFF7000000
000002FFFFF6000000
000000FFFFF6000000
000000DFFFF8000000
000000BFFFF9000000
0000008FFFF3000000
0000005FFFF3000000
0000003FFFF0000000
0000002FFFF0000000
0000002FFFE0000000
0000001FFFD0000000
0000000FFFC0000000
0000000D8EC0000000
0000000308B0000000
000000000010000000
ENDCHAR
STARTCHAR eth
ENCODING 240
SWIDTH 530 0
DWIDTH 17 0
BBX 17 29 1 -5
BITMAP
000000146789700000
0169BEFFFFFFF70000
03FFFFFFFFFFFF5000
06FFFFFFFFFFFFF700
00DFFFFFFFFFFFFE00
007FFFFFFFFFFFFF30
002FFFFFFFFFFFFF60
000DFFFFFFFFFFFF70
000AFFFFFFFFFFFF80
0009FFFFFFFFFFFF70
0008FFFFFDDFFFFF50
0006FFFFF20AFFFF20
0004FFFFC006FFFD00
1103FFFFA115FFF900
CFFFFFFFFF95FFF500
7ABCFFFFEC44FFF200
0000FFFFA005FFD000
0000CFFF9009FF9000
00009FFF900DFF6000
00006FFFD01EFF4000
00003FFFFBFFFF4000
00004FFFFFFFFF2000
00005FFFFFFFFB0000
00004FB45FFFF20000
00004F101FFB400000
00002C001DA0000000
000009002A80000000
000002002800000000
000000000400000000
ENDCHAR
STARTCHAR ntilde
ENCODING 241
SWIDTH 664 0
DWIDTH 21 0
BBX 21 37 0 -4
BITMAP
0000011000004720000000
00004DC10006DFF7000000
0007FFFB03CFFFFF700000
000DFFFFFFFFFFFFF40000
0003FFFFFFFFFFFFF80000
00006FFFFFFDDFFFC00000
000007FFFD6006E9000000
0000001550000010000000
0000000000000000000000
245679AA89007643334440
1EFFFFFFFD009FFFFFFF60
07FFFFFFFF306FFFFFFC00
01EFFFFFFF502FFFFFF400
007FFFFFFFC01FFFFFC000
005FFFFFFFF22FFFFF7000
004FFFFFFFF64FFFFF3000
003FFFFFFFFA6FFFFE0000
003FFFFFFFFE8FFFFC0000
002FFFFFFFFFEFFFFA0000
000FFFFFFFFFFFFFF80000
000EFFFFFFFFFFFFF60000
000CFFFFFFFFFFFFF40000
000AFFFFFFFFFFFFF20000
0008FFFFFFFFFFFFF00000
0005FFFFEFFFFFFFC00000
0001EFFF8FFFFFFF900000
0000EFFF7DFFFFFF600000
0000EFFF68FFFFFF500000
0000CFFF34FFFFFF100000
0000AFFF61EFFFFC000000
00009FFF40EFFFFB000000
00007FFF408FFFF4000000
00006FFF407FFFF0000000
00004FFE405FFDC0000000
00002A90303CC880000000
0000000000030850000000
0000000000000100000000
ENDCHAR
STARTCHAR ograve
ENCODING 242
SWIDTH 545 0
DWIDTH 17 0
BBX 18 37 -1 -3
BITMAP
000200000000000000
001E80000000000000
007FFA100000000000
00AFFFC10000000000
28FFFFFD3000000000
8FFFFFFFE700000000
015AEFFFFF90000000
0000048BFFA0000000
000000001630000000
000000000000000000
000000268877710000
000019FFFFFFFE6000
0001CFFFFFFFFFFA10
000CFFFFFFFFFFFF50
007FFFFFFFFFFFFFF6
00DFFFFFFFFFFFFFF9
01FFFFFFFFFFFFFFF8
01EFFFFFFFFFFFFFF9
01DFFFFFFFFFFFFFFC
00AFFFFFFFFFFFFFFA
009FFFFFF9DFFFFFFA
007FFFFF904FFFFFFB
005FFFFF301FFFFFF8
003FFFFF100FFFFFF6
001FFFFF100DFFFFF3
000EFFFF100BFFFFE0
000BFFFF100DFFFFA0
0008FFFF100EFFFF60
0004FFFF603FFFFF10
0001FFFF906FFFFB00
0000CFFFE1AFFFF600
00009FFFFFFFFFF500
00004FFFFFFFFFC000
0000086EFFFFFF4000
0000000581CFDD0000
0000000000890A0000
000000000000040000
ENDCHAR
STARTCHAR oacute
ENCODING 243
SWIDTH 545 0
DWIDTH 17 0
BBX 20 37 0 -3
BITMAP
00000000000000002000
000000000000001CB000
00000000000002DFF300
0000000000004EFFF600
000000000005FFFFFE61
00000000019FFFFFFFE4
000000000CFFFFFD8400
000000000EFEB7200000
00000000055100000000
00000000000000000000
00000268877710000000
00019FFFFFFFE6000000
001CFFFFFFFFFFA10000
00CFFFFFFFFFFFF50000
07FFFFFFFFFFFFFF6000
0DFFFFFFFFFFFFFF9000
1FFFFFFFFFFFFFFF8000
1EFFFFFFFFFFFFFF9000
1DFFFFFFFFFFFFFFC000
0AFFFFFFFFFFFFFFA000
09FFFFFF9DFFFFFFA000
07FFFFF904FFFFFFB000
05FFFFF301FFFFFF8000
03FFFFF100FFFFFF6000
01FFFFF100DFFFFF3000
00EFFFF100BFFFFE0000
00BFFFF100DFFFFA0000
008FFFF100EFFFF60000
004FFFF603FFFFF10000
001FFFF906FFFFB00000
000CFFFE1AFFFF600000
0009FFFFFFFFFF500000
0004FFFFFFFFFC000000
000086EFFFFFF4000000
000000581CFDD0000000
000000000890A0000000
00000000000040000000
ENDCHAR
STARTCHAR ocircumflex
ENCODING 244
SWIDTH 545 0
DWIDTH 17 0
BBX 17 40 0 -3
BITMAP
000003432461000000
00001EFFFFF7000000
00006FFFFFFE100000
0000DFFFFFFF800000
0005FFFFFFFFE10000
000BFFFECFFFF80000
003FFFF51DFFFE1000
009FFF7002EFFF9000
01FFF900004FFFF200
08FFA0000006FFF700
06FC100000007F9000
002100000000030000
000000000000000000
000002688777100000
00019FFFFFFFE60000
001CFFFFFFFFFFA100
00CFFFFFFFFFFFF500
07FFFFFFFFFFFFFF60
0DFFFFFFFFFFFFFF90
1FFFFFFFFFFFFFFF80
1EFFFFFFFFFFFFFF90
1DFFFFFFFFFFFFFFC0
0AFFFFFFFFFFFFFFA0
09FFFFFF9DFFFFFFA0
07FFFFF904FFFFFFB0
05FFFFF301FFFFFF80
03FFFFF100FFFFFF60
01FFFFF100DFFFFF30
00EFFFF100BFFFFE00
00BFFFF100DFFFFA00
008FFFF100EFFFF600
004FFFF603FFFFF100
001FFFF906FFFFB000
000CFFFE1AFFFF6000
0009FFFFFFFFFF5000
0004FFFFFFFFFC0000
000086EFFFFFF40000
000000581CFDD00000
000000000890A00000
000000000000400000
ENDCHAR
STARTCHAR otilde
ENCODING 245
SWIDTH 545 0
DWIDTH 17 0
BBX 17 36 0 -3
BITMAP
000200000075100000
008F80001AEFE30000
1BFFF607EFFFFE2000
4FFFFFFFFFFFFFB200
08FFFFFFFFFFFFF200
00BFFFFFFDEFFF7000
001BFFFB4019E50000
000027300000100000
000000000000000000
000002688777100000
00019FFFFFFFE60000
001CFFFFFFFFFFA100
00CFFFFFFFFFFFF500
07FFFFFFFFFFFFFF60
0DFFFFFFFFFFFFFF90
1FFFFFFFFFFFFFFF80
1EFFFFFFFFFFFFFF90
1DFFFFFFFFFFFFFFC0
0AFFFFFFFFFFFFFFA0
09FFFFFF9DFFFFFFA0
07FFFFF904FFFFFFB0
05FFFFF301FFFFFF80
03FFFFF100FFFFFF60
01FFFFF100DFFFFF30
00EFFFF100BFFFFE00
00BFFFF100DFFFFA00
008FFFF100EFFFF600
004FFFF603FFFFF100
001FFFF906FFFFB000
000CFFFE1AFFFF6000
0009FFFFFFFFFF5000
0004FFFFFFFFFC0000
000086EFFFFFF40000
000000581CFDD00000
000000000890A00000
000000000000400000
ENDCHAR
STARTCHAR odieresis
ENCODING 246
SWIDTH 545 0
DWIDTH 17 0
BBX 17 37 0 -3
BITMAP
001100000000376400
1DFFCDC103EFFFFF60
1FFFFFF202FFFFFF60
2FFFFFF202FFFFFF50
2FFFFFF202FFFFFF40
2FFFFFF202FFFFFF80
2FFFFFF102FFFFFF60
1FFFFFF002FFFFFF50
023465400014201100
000000000000000000
000002688777100000
00019FFFFFFFE60000
001CFFFFFFFFFFA100
00CFFFFFFFFFFFF500
07FFFFFFFFFFFFFF60
0DFFFFFFFFFFFFFF90
1FFFFFFFFFFFFFFF80
1EFFFFFFFFFFFFFF90
1DFFFFFFFFFFFFFFC0
0AFFFFFFFFFFFFFFA0
09FFFFFF9DFFFFFFA0
07FFFFF904FFFFFFB0
05FFFFF301FFFFFF80
03FFFFF100FFFFFF60
01FFFFF100DFFFFF30
00EFFFF100BFFFFE00
00BFFFF100DFFFFA00
008FFFF100EFFFF600
004FFFF603FFFFF100
001FFFF906FFFFB000
000CFFFE1AFFFF6000
0009FFFFFFFFFF5000
0004FFFFFFFFFC0000
000086EFFFFFF40000
000000581CFDD00000
000000000890A00000
000000000000400000
ENDCHAR
STARTCHAR oslash
ENCODING 248
SWIDTH 676 0
DWIDTH 22 0
BBX 22 27 -1 -3
BITMAP
0000001588867100000000
000005EFFFFFFE60000037
00007FFFFFFFFFF90004E3
0005FFFFFFFFFFFF304E40
001EFFFFFFFFFFFFF7E400
006FFFFFFFFFFFFFFF5000
008FFFFFFFFFFFFFF90000
008FFFFFFFFFFFFFF60000
006FFFFFFFFFFFFFF90000
003FFFFFFFFFFFFFF70000
001FFFFFFABFFFFFF60000
000FFFFFB01FFFFFF80000
000DFFFF608FFFFFF60000
000BFFFF36FEFFFFF40000
0008FFFF8F5AFFFFF10000
0006FFFFF608FFFFD00000
0003FFFF700AFFFF900000
0000FFFF300EFFFF500000
0000BFFF602FFFFF100000
0000BFFFA05FFFFC000000
0009DFFFE1AFFFF8000000
009B3FFFFFFFFFF5000000
07B10DFFFFFFFFD0000000
1B10057DFFFFFF40000000
1100000491BFDD00000000
00000000007A1A00000000
0000000000000400000000
ENDCHAR
STARTCHAR ugrave
ENCODING 249
SWIDTH 708 0
DWIDTH 23 0
BBX 23 35 0 -1
BITMAP
000002000000000000000000
00002E700000000000000000
00009FF90000000000000000
0000BFFFB100000000000000
0029FFFFFD20000000000000
009FFFFFFFE6000000000000
00016AEFFFFF800000000000
000000048BFF900000000000
000000000026200000000000
000000000000000000000000
000025788820022100000000
28CEFFFFFF3006FFD9B71000
01DFFFFFFF1006FFFFFFFA50
005FFFFFFF1009FFFFFFFB10
003FFFFFFF200BFFFFFFC100
001EFFFFFF1009FFFFFF8000
000AFFFFFF5007FFFFFF3000
0007FFFFFF7007FFFFFC0000
0005FFFFFF8008FFFFF70000
0002FFFFFF8008FFFFF30000
0000EFFFFF8009FFFFE00000
0000CFFFFF800AFFFFB00000
00009FFFFF300AFFFF900000
00008FFFFF300EFFFF800000
00007FFFFF301FFFFF700000
00006FFFFF400FFFFF600000
00006FFFFF800FFFFF400000
00001EFFFFB02FFFFF100000
00000BFFFFB06FFFFC000000
000004FFFFD19FFFFB000000
000001FFFFFFFFFFF7000000
000000DFFFFFFFFFF3000000
000000AFFFB8FFFFC0000000
00000001BA7088A940000000
000000000010011000000000
ENDCHAR
STARTCHAR uacute
ENCODING 250
SWIDTH 708 0
DWIDTH 23 0
BBX 23 35 0 -1
BITMAP
000000000000000000110000
000000000000000002CA0000
00000000000000003DFF2000
0000000000000004EFFF5000
000000000000006FFFFFE600
00000000000019FFFFFFFE30
000000000000DFFFFFD84000
000000000001EFEA72000000
000000000000551000000000
000000000000000000000000
000025788820022100000000
28CEFFFFFF3006FFD9B71000
01DFFFFFFF1006FFFFFFFA50
005FFFFFFF1009FFFFFFFB10
003FFFFFFF200BFFFFFFC100
001EFFFFFF1009FFFFFF8000
000AFFFFFF5007FFFFFF3000
0007FFFFFF7007FFFFFC0000
0005FFFFFF8008FFFFF70000
0002FFFFFF8008FFFFF30000
0000EFFFFF8009FFFFE00000
0000CFFFFF800AFFFFB00000
00009FFFFF300AFFFF900000
00008FFFFF300EFFFF800000
00007FFFFF301FFFFF700000
00006FFFFF400FFFFF600000
00006FFFFF800FFFFF400000
00001EFFFFB02FFFFF100000
00000BFFFFB06FFFFC000000
000004FFFFD19FFFFB000000
000001FFFFFFFFFFF7000000
000000DFFFFFFFFFF3000000
000000AFFFB8FFFFC0000000
00000001BA7088A940000000
000000000010011000000000
ENDCHAR
STARTCHAR ucircumflex
ENCODING 251
SWIDTH 708 0
DWIDTH 23 0
BBX 23 38 0 -1
BITMAP
000000004432470000000000
00000001EFFFFF6000000000
00000007FFFFFFE100000000
0000000EFFFFFFF700000000
0000005FFFFFFFFE10000000
000000CFFFECFFFF70000000
000004FFFF41DFFFE1000000
00000AFFF6003EFFF8000000
00002FFF800005FFFE100000
00009FF90000007FFF600000
00007FB000000008F8000000
000003100000000030000000
000000000000000000000000
000025788820022100000000
28CEFFFFFF3006FFD9B71000
01DFFFFFFF1006FFFFFFFA50
005FFFFFFF1009FFFFFFFB10
003FFFFFFF200BFFFFFFC100
001EFFFFFF1009FFFFFF8000
000AFFFFFF5007FFFFFF3000
0007FFFFFF7007FFFFFC0000
0005FFFFFF8008FFFFF70000
0002FFFFFF8008FFFFF30000
0000EFFFFF8009FFFFE00000
0000CFFFFF800AFFFFB00000
00009FFFFF300AFFFF900000
00008FFFFF300EFFFF800000
00007FFFFF301FFFFF700000
00006FFFFF400FFFFF600000
00006FFFFF800FFFFF400000
00001EFFFFB02FFFFF100000
00000BFFFFB06FFFFC000000
000004FFFFD19FFFFB000000
000001FFFFFFFFFFF7000000
000000DFFFFFFFFFF3000000
000000AFFFB8FFFFC0000000
00000001BA7088A940000000
000000000010011000000000
ENDCHAR
STARTCHAR udieresis
ENCODING 252
SWIDTH 708 0
DWIDTH 23 0
BBX 23 35 0 -1
BITMAP
000001000000000476300000
0001DFFCDC003EFFFFF50000
0002FFFFFF103FFFFFF50000
0003FFFFFF103FFFFFF40000
0003FFFFFF103FFFFFF30000
0003FFFFFF103FFFFFF70000
0003FFFFFF003FFFFFF50000
0002FFFFFE003FFFFFF40000
000033465400014201100000
000000000000000000000000
000025788820022100000000
28CEFFFFFF3006FFD9B71000
01DFFFFFFF1006FFFFFFFA50
005FFFFFFF1009FFFFFFFB10
003FFFFFFF200BFFFFFFC100
001EFFFFFF1009FFFFFF8000
000AFFFFFF5007FFFFFF3000
0007FFFFFF7007FFFFFC0000
0005FFFFFF8008FFFFF70000
0002FFFFFF8008FFFFF30000
0000EFFFFF8009FFFFE00000
0000CFFFFF800AFFFFB00000
00009FFFFF300AFFFF900000
00008FFFFF300EFFFF800000
00007FFFFF301FFFFF700000
00006FFFFF400FFFFF600000
00006FFFFF800FFFFF400000
00001EFFFFB02FFFFF100000
00000BFFFFB06FFFFC000000
000004FFFFD19FFFFB000000
000001FFFFFFFFFFF7000000
000000DFFFFFFFFFF3000000
000000AFFFB8FFFFC0000000
00000001BA7088A940000000
000000000010011000000000
ENDCHAR
STARTCHAR yacute
ENCODING 253
SWIDTH 604 0
DWIDTH 19 0
BBX 21 37 0 -2
BITMAP
0000000000000000020000
0000000000000000AD1000
000000000000001BFF6000
00000000000002DFFF9000
0000000000003EFFFFF720
000000000007FFFFFFFE70
0000000000AFFFFFE95100
0000000000BFFB83000000
0000000000461000000000
0000000000000000000000
0000000000000000000000
0003567400018200000000
19FFFFFF3004FFC9610000
01AFFFFFB009FFFFFE4000
0007FFFFF20DFFFFE20000
00002EFFF65FFFFE100000
00000BFFFABFFFF4000000
000005FFFFFFFF90000000
0000007FFFFFFD00000000
0000005FFFFFF900000000
0000002FFFFFF700000000
0000000DFFFFF500000000
0000000AFFFFF400000000
00000006FFFFF300000000
00000003FFFFF200000000
00000000EFFFF000000000
00000000BFFFE000000000
000000009FFFD000000000
000000008FFFB000000000
000000008FFFC000000000
000000009FFFC000000000
000000009FFFB000000000
00000000AFFF9000000000
00000000AFFF5000000000
000000009FFF3000000000
000000007FFE3000000000
000000004A221000000000
ENDCHAR
STARTCHAR thorn
ENCODING 254
SWIDTH 498 0
DWIDTH 16 0
BBX 15 34 0 -4
BITMAP
0001011130000000
6ADFDFFFB0000000
5FFFFFFF70000000
4FFFFFFF50000000
2FFFFFFF20000000
0FFFFFFE00000000
0DFFFFFF79653000
0AFFFFFFFFFFF900
08FFFFFFFFFFFF40
06FFFFFFFFFFFFA0
05FFFFFFFFFFFFD0
04FFFFFFFFFFFFE0
04FFFFFFFFFFFFE0
03FFFFFFFFFFFFD0
01FFFFFFFFFFFFD0
00EFFFFFFFFFFFC0
00CFFFFD55DFFFB0
00AFFFFF008FFFA0
007FFFFE006FFF80
005FFFFF005FFF60
002FFFFF005FFF30
000EFFFF99BFFF00
000BFFFFFFFFFB00
0008FFFFFFFFF600
0006FFFFECCFA000
0002FFFF80000000
0004FFFF80000000
0006FFFF90000000
0004FFFFA0000000
0000FFFFA0000000
0000BC8FA0000000
0000970A50000000
0000880930000000
0000390900000000
ENDCHAR
STARTCHAR ydieresis
ENCODING 255
SWIDTH 604 0
DWIDTH 19 0
BBX 19 36 0 -2
BITMAP
00001100000000366400
000CFFCDD202DFFFFF70
000FFFFFF301FFFFFF70
000FFFFFF300FFFFFF60
000FFFFFF300FFFFFF50
001FFFFFF300FFFFFF90
000FFFFFF300FFFFFF80
000EFFFFF200FFFFEF70
00023465400014200100
00000000000000000000
00035674000182000000
19FFFFFF3004FFC96100
01AFFFFFB009FFFFFE40
0007FFFFF20DFFFFE200
00002EFFF65FFFFE1000
00000BFFFABFFFF40000
000005FFFFFFFF900000
0000007FFFFFFD000000
0000005FFFFFF9000000
0000002FFFFFF7000000
0000000DFFFFF5000000
0000000AFFFFF4000000
00000006FFFFF3000000
00000003FFFFF2000000
00000000EFFFF0000000
00000000BFFFE0000000
000000009FFFD0000000
000000008FFFB0000000
000000008FFFC0000000
000000009FFFC0000000
000000009FFFB0000000
00000000AFFF90000000
00000000AFFF50000000
000000009FFF30000000
000000007FFE30000000
000000004A2210000000
ENDCHAR
STARTCHAR Amacron
ENCODING 256
SWIDTH 494 0
DWIDTH 16 0
BBX 15 37 0 -7
BITMAP
0013331011023000
009FFFEFFFEFF200
00AFFFFFFFFFF200
00BFFFFFFFFFF000
00249BB79879B000
0000000000000000
0000011110000000
2ADEFFFFFFEDB950
02CFFFFFFFFFFC10
000AFFFFFFFFE200
000AFFFFFFFF9000
0009FFFFFFFF6000
0007FFFFFFFF4000
0007FFFFFFFF2000
000AFFFFFFFF2000
000AFFFFFFFF0000
0008FFFFFFFE0000
0007FFFEFFFD0000
0007FFFBFFFC0000
0008FFF7DFFC0000
0009FFF3CFFD0000
000AFFE1BFFC0000
000BFFE0AFFE0000
0007FFA19FFB0000
0009FFFFFFFD0000
000DFFFFFFFC0000
000DFFFFFFFA0000
000BFFFFFFF80000
0008FFF7FFF40000
0006FFD09FF10000
0006FF50AFF10000
0006CF209ED00000
0004872045B00000
0001712004900000
0000200018400000
0000000041000000
0000000040000000
ENDCHAR
STARTCHAR amacron
ENCODING 257
SWIDTH 479 0
DWIDTH 15 0
BBX 16 34 0 -3
BITMAP
0013332001012100
004FFFFEFFFEF700
004FFFFFFFFFF700
005FFFFFFFFFF500
00056AB98877B300
0000000000000000
0000000000000000
03578ABCCC9BCDD5
4EFFFFFFFFFFFF50
03EFFFFFFFFFF900
003EFFFFFFFFF400
000BFFFFFFFFF100
000BFFFFFFFFE000
0009FFFFFFFFE000
0006FFFFFFFFE000
0007FFFFFFFFE000
000BFFFFFFFFD000
000AFFFFFFFFB000
0007FFFFFFFF8000
0005FFFFDFFF9000
0006FFFDAFFFB000
000AFFF98FFFD000
000BFFF65FFFB100
000DFFF44FFFD100
000EFFF24FFFF000
000EFFF12FFFD000
000AFFFFFFFFC000
001EFFFFFFFFA000
000FFFFFFFFF8000
000CFFF79FFF7000
000CFFF31DFF6000
000DFFA00DFF6000
000CFF6019EF4000
0006AA2000020000
ENDCHAR
STARTCHAR Abreve
ENCODING 258
SWIDTH 494 0
DWIDTH 16 0
BBX 16 42 0 -7
BITMAP
0009AAA200000000
0009FFF20007FEC5
0005FFF4000BFFF4
0001FFFC203FFFD0
0000EFFFFEFFFFB0
00009FFFFFFFFF30
0000178FFFFFF900
0000000D44FED400
0000000100D37300
0000000000003100
0000000000000000
0000011110000000
2ADEFFFFFFEDB950
02CFFFFFFFFFFC10
000AFFFFFFFFE200
000AFFFFFFFF9000
0009FFFFFFFF6000
0007FFFFFFFF4000
0007FFFFFFFF2000
000AFFFFFFFF2000
000AFFFFFFFF0000
0008FFFFFFFE0000
0007FFFEFFFD0000
0007FFFBFFFC0000
0008FFF7DFFC0000
0009FFF3CFFD0000
000AFFE1BFFC0000
000BFFE0AFFE0000
0007FFA19FFB0000
0009FFFFFFFD0000
000DFFFFFFFC0000
000DFFFFFFFA0000
000BFFFFFFF80000
0008FFF7FFF40000
0006FFD09FF10000
0006FF50AFF10000
0006CF209ED00000
0004872045B00000
0001712004900000
0000200018400000
0000000041000000
0000000040000000
ENDCHAR
STARTCHAR abreve
ENCODING 259
SWIDTH 479 0
DWIDTH 15 0
BBX 16 38 0 -3
BITMAP
0009AAA100000000
0009FFF20008FEC5
0005FFF4000BFFF4
0001FFFC203FFFD0
0000EFFFFEFFFFB0
00009FFFFFFFFF30
0000278FFFFFF900
0000000D34FED400
0000000100D37200
0000000000003100
0000000000000000
03578ABCCC9BCDD5
4EFFFFFFFFFFFF50
03EFFFFFFFFFF900
003EFFFFFFFFF400
000BFFFFFFFFF100
000BFFFFFFFFE000
0009FFFFFFFFE000
0006FFFFFFFFE000
0007FFFFFFFFE000
000BFFFFFFFFD000
000AFFFFFFFFB000
0007FFFFFFFF8000
0005FFFFDFFF9000
0006FFFDAFFFB000
000AFFF98FFFD000
000BFFF65FFFB100
000DFFF44FFFD100
000EFFF24FFFF000
000EFFF12FFFD000
000AFFFFFFFFC000
001EFFFFFFFFA000
000FFFFFFFFF8000
000CFFF79FFF7000
000CFFF31DFF6000
000DFFA00DFF6000
000CFF6019EF4000
0006AA2000020000
ENDCHAR
STARTCHAR Aogonek
ENCODING 260
SWIDTH 494 0
DWIDTH 16 0
BBX 16 38 0 -14
BITMAP
0000011110000000
2ADEFFFFFFEDB950
02CFFFFFFFFFFC10
000AFFFFFFFFE200
000AFFFFFFFF9000
0009FFFFFFFF6000
0007FFFFFFFF4000
0007FFFFFFFF2000
000AFFFFFFFF2000
000AFFFFFFFF0000
0008FFFFFFFE0000
0007FFFEFFFD0000
0007FFFBFFFC0000
0008FFF7DFFC0000
0009FFF3CFFD0000
000AFFE1BFFC0000
000BFFE0AFFE0000
0007FFA19FFB0000
0009FFFFFFFD0000
000DFFFFFFFC0000
000DFFFFFFFA0000
000BFFFFFFF80000
0008FFF7FFF40000
0006FFD09FF10000
0006FF50BFF10000
0006CF21FFD00000
00048727FFB00000
0001712BFF900000
0000200EFF600000
0000002FFF400000
0000003FFF500000
0000003FFF800000
0000002FFFE40000
0000000EFFFFCAA2
00000009FFFFFFF2
00000001EFFFFFF0
000000002AFFFFE0
0000000000146630
ENDCHAR
STARTCHAR aogonek
ENCODING 261
SWIDTH 479 0
DWIDTH 15 0
BBX 17 36 0 -12
BITMAP
03578ABCCC9BCDD500
4EFFFFFFFFFFFF5000
03EFFFFFFFFFF90000
003EFFFFFFFFF40000
000BFFFFFFFFF10000
000BFFFFFFFFE00000
0009FFFFFFFFE00000
0006FFFFFFFFE00000
0007FFFFFFFFE00000
000BFFFFFFFFD00000
000AFFFFFFFFB00000
0007FFFFFFFF800000
0005FFFFDFFF900000
0006FFFDAFFFB00000
000AFFF98FFFD00000
000BFFF65FFFB10000
000DFFF44FFFD10000
000EFFF24FFFF00000
000EFFF12FFFD00000
000AFFFFFFFFC00000
001EFFFFFFFFA00000
000FFFFFFFFF800000
000CFFF79FFF700000
000CFFF31DFF600000
000DFFA00DFF500000
000CFF600EFF300000
0006AA202FFF100000
000000004FFF000000
000000006FFD000000
000000006FFD000000
000000005FFF400000
000000003FFFFC9960
000000000DFFFFFF90
0000000005FFFFFF80
00000000005EFFFF60
000000000000467420
ENDCHAR
STARTCHAR Cacute
ENCODING 262
SWIDTH 504 0
DWIDTH 16 0
BBX 18 38 0 -4
BITMAP
000000000000011000
0000000000001CB000
000000000003DFF300
00000000004EFFF600
0000000006FFFFFE61
000000019FFFFFFFE4
0000000DFFFFFD8400
0000000EFEA7200000
000000055100000000
000000000000000000
0000039ABBB4000000
00009FFFFFFFA10000
002AFFFFFFFFFB2000
01DFFFFFFFFFFF7000
06FFFFFFFFFFFFF400
0CFFFFFFFFFFFFF400
0FFFFFFFFFFFFFF500
1FFFFFFFFFFFFFF500
1FFFFFFFFFFFFFF500
0EFFFFFFFFFFFFF400
0CFFFFFFBFFFFFF300
0AFFFFF809FFFFF200
08FFFFF302FFFFF000
03FFFFF500EFFFD000
04FFFFF50023113000
01FFFFF20000000000
00DFFFF10000000000
00AFFFF20153000000
008FFFF304FFFC2000
004FFFF507FFFD1000
003FFFFA1DFFFB0000
000AFFFFDFFFF70000
0007FFFFFFFFD20000
0004EFFFFFFE400000
000016E6BEF7000000
000000907B50000000
000000909830000000
000000201410000000
ENDCHAR
STARTCHAR cacute
ENCODING 263
SWIDTH 534 0
DWIDTH 17 0
BBX 18 36 0 -2
BITMAP
000000000000002000
00000000000005F400
0000000000007FFB00
000000000009FFFD10
0000000001BFFFFFC2
000000004DFFFFFFFB
00000005FFFFFFB620
00000006FFD9510000
000000017300000000
000000000000000000
00000278DDB8300000
00007FFFFFFFF80000
0029FFFFFFFFFF8100
01DFFFFFFFFFFFF700
07FFFFFFFFFFFFFF40
0CFFFFFFFFFFFFFF50
1FFFFFFFFFFFFFFF20
2FFFFFFFFFFFFFFF40
2FFFFFFFFFFFFFFF40
0EFFFFFFFFFFFFFF30
0CFFFFFFFCFFFFFF20
08FFFFFF42CFFFFF00
04FFFFFC007FFFFE00
01FFFFFD003FFFFC00
00CFFFFF103589A900
00DFFFFA0000000000
00AFFFFA0000000000
007FFFFC0002000000
003FFFFE008FE92000
000EFFFF20DFFF6000
000CFFFF53FFFF2000
0007FFFFBBFFFF1000
0000DFFFFFFFFA0000
00009FFFFFFFD20000
0000299CCBFD100000
0000002623A4000000
ENDCHAR
STARTCHAR Ccircumflex
ENCODING 264
SWIDTH 504 0
DWIDTH 16 0
BBX 16 41 0 -4
BITMAP
0000024323630000
00000AFFFFFC0000
00002FFFFFFF4000
00009FFFFFFFC000
0001EFFFFFFFF500
0007FFFFBFFFFC00
000DFFF909FFFF50
005FFFB000CFFFD0
00CFFC10001DFFF6
04FFD1000002EFFB
03DE300000004EC1
0012000000000310
0000000000000000
0000039ABBB40000
00009FFFFFFFA100
002AFFFFFFFFFB20
01DFFFFFFFFFFF70
06FFFFFFFFFFFFF4
0CFFFFFFFFFFFFF4
0FFFFFFFFFFFFFF5
1FFFFFFFFFFFFFF5
1FFFFFFFFFFFFFF5
0EFFFFFFFFFFFFF4
0CFFFFFFBFFFFFF3
0AFFFFF809FFFFF2
08FFFFF302FFFFF0
03FFFFF500EFFFD0
04FFFFF500231130
01FFFFF200000000
00DFFFF100000000
00AFFFF201530000
008FFFF304FFFC20
004FFFF507FFFD10
003FFFFA1DFFFB00
000AFFFFDFFFF700
0007FFFFFFFFD200
0004EFFFFFFE4000
000016E6BEF70000
000000907B500000
0000009098300000
0000002014100000
ENDCHAR
STARTCHAR ccircumflex
ENCODING 265
SWIDTH 534 0
DWIDTH 17 0
BBX 17 39 0 -2
BITMAP
000000243246200000
000000BFFFFFB00000
000003FFFFFFF40000
000009FFFFFFFB0000
00001FFFFFFFFF4000
00008FFFFBFFFFC000
0000EFFF80AFFFF400
0006FFFA001CFFFC00
000DFFC10002EFFF50
004FFD1000003EFFA0
004DE200000004FB10
000120000000003100
000000000000000000
00000278DDB8300000
00007FFFFFFFF80000
0029FFFFFFFFFF8100
01DFFFFFFFFFFFF700
07FFFFFFFFFFFFFF40
0CFFFFFFFFFFFFFF50
1FFFFFFFFFFFFFFF20
2FFFFFFFFFFFFFFF40
2FFFFFFFFFFFFFFF40
0EFFFFFFFFFFFFFF30
0CFFFFFFFCFFFFFF20
08FFFFFF42CFFFFF00
04FFFFFC007FFFFE00
01FFFFFD003FFFFC00
00CFFFFF103589A900
00DFFFFA0000000000
00AFFFFA0000000000
007FFFFC0002000000
003FFFFE008FE92000
000EFFFF20DFFF6000
000CFFFF53FFFF2000
0007FFFFBBFFFF1000
0000DFFFFFFFFA0000
00009FFFFFFFD20000
0000299CCBFD100000
0000002623A4000000
ENDCHAR
STARTCHAR Cdotaccent
ENCODING 266
SWIDTH 504 0
DWIDTH 16 0
BBX 16 41 0 -4
BITMAP
0000000012200000
00027BBDFFFE8000
0000BFFFFFFFA000
00008FFFFFFF9000
00006FFFFFFF7000
00005FFFFFFFC000
00004FFFFFFFB000
00003FFFFFFFB000
00002FFFFFFFA000
00001FFFFFFF9000
00001A8732352000
0000000000000000
0000000000000000
0000039ABBB40000
00009FFFFFFFA100
002AFFFFFFFFFB20
01DFFFFFFFFFFF70
06FFFFFFFFFFFFF4
0CFFFFFFFFFFFFF4
0FFFFFFFFFFFFFF5
1FFFFFFFFFFFFFF5
1FFFFFFFFFFFFFF5
0EFFFFFFFFFFFFF4
0CFFFFFFBFFFFFF3
0AFFFFF809FFFFF2
08FFFFF302FFFFF0
03FFFFF500EFFFD0
04FFFFF500231130
01FFFFF200000000
00DFFFF100000000
00AFFFF201530000
008FFFF304FFFC20
004FFFF507FFFD10
003FFFFA1DFFFB00
000AFFFFDFFFF700
0007FFFFFFFFD200
0004EFFFFFFE4000
000016E6BEF70000
000000907B500000
0000009098300000
0000002014100000
ENDCHAR
STARTCHAR cdotaccent
ENCODING 267
SWIDTH 534 0
DWIDTH 17 0
BBX 17 39 0 -2
BITMAP
000000000121000000
000048BBEFFFD30000
00002FFFFFFFF40000
00000DFFFFFFF40000
00000CFFFFFFF20000
00000AFFFFFFF60000
000009FFFFFFF60000
000008FFFFFFF50000
000007FFFFFFF40000
000006FFFFFFF30000
000005986324410000
000000000000000000
000000000000000000
00000278DDB8300000
00007FFFFFFFF80000
0029FFFFFFFFFF8100
01DFFFFFFFFFFFF700
07FFFFFFFFFFFFFF40
0CFFFFFFFFFFFFFF50
1FFFFFFFFFFFFFFF20
2FFFFFFFFFFFFFFF40
2FFFFFFFFFFFFFFF40
0EFFFFFFFFFFFFFF30
0CFFFFFFFCFFFFFF20
08FFFFFF42CFFFFF00
04FFFFFC007FFFFE00
01FFFFFD003FFFFC00
00CFFFFF103589A900
00DFFFFA0000000000
00AFFFFA0000000000
007FFFFC0002000000
003FFFFE008FE92000
000EFFFF20DFFF6000
000CFFFF53FFFF2000
0007FFFFBBFFFF1000
0000DFFFFFFFFA0000
00009FFFFFFFD20000
0000299CCBFD100000
0000002623A4000000
ENDCHAR
STARTCHAR Ccaron
ENCODING 268
SWIDTH 504 0
DWIDTH 16 0
BBX 16 41 0 -4
BITMAP
004D40000001B800
08FFE3000009FF80
09FFFD00004FFFF5
03FFFF5001DFFFE1
00BFFFD008FFFF60
004FFFF73FFFFD00
000DFFFEDFFFF600
0006FFFFFFFFD000
0001EFFFFFFF5000
00008FFFFFFD0000
00001FFFFFF50000
0000033224600000
0000000000000000
0000039ABBB40000
00009FFFFFFFA100
002AFFFFFFFFFB20
01DFFFFFFFFFFF70
06FFFFFFFFFFFFF4
0CFFFFFFFFFFFFF4
0FFFFFFFFFFFFFF5
1FFFFFFFFFFFFFF5
1FFFFFFFFFFFFFF5
0EFFFFFFFFFFFFF4
0CFFFFFFBFFFFFF3
0AFFFFF809FFFFF2
08FFFFF302FFFFF0
03FFFFF500EFFFD0
04FFFFF500231130
01FFFFF200000000
00DFFFF100000000
00AFFFF201530000
008FFFF304FFFC20
004FFFF507FFFD10
003FFFFA1DFFFB00
000AFFFFDFFFF700
0007FFFFFFFFD200
0004EFFFFFFE4000
000016E6BEF70000
000000907B500000
0000009098300000
0000002014100000
ENDCHAR
STARTCHAR ccaron
ENCODING 269
SWIDTH 534 0
DWIDTH 17 0
BBX 17 39 0 -2
BITMAP
0003D60000000A9000
007FFF4000008FFA00
008FFFE10003FFFF70
001FFFF7000CFFFE10
0009FFFE106FFFF800
0003FFFF91EFFFE100
0000BFFFFCFFFF8000
00004FFFFFFFFE1000
00000CFFFFFFF70000
000006FFFFFFE10000
000000EFFFFF700000
000000332236100000
000000000000000000
00000278DDB8300000
00007FFFFFFFF80000
0029FFFFFFFFFF8100
01DFFFFFFFFFFFF700
07FFFFFFFFFFFFFF40
0CFFFFFFFFFFFFFF50
1FFFFFFFFFFFFFFF20
2FFFFFFFFFFFFFFF40
2FFFFFFFFFFFFFFF40
0EFFFFFFFFFFFFFF30
0CFFFFFFFCFFFFFF20
08FFFFFF42CFFFFF00
04FFFFFC007FFFFE00
01FFFFFD003FFFFC00
00CFFFFF103589A900
00DFFFFA0000000000
00AFFFFA0000000000
007FFFFC0002000000
003FFFFE008FE92000
000EFFFF20DFFF6000
000CFFFF53FFFF2000
0007FFFFBBFFFF1000
0000DFFFFFFFFA0000
00009FFFFFFFD20000
0000299CCBFD100000
0000002623A4000000
ENDCHAR
STARTCHAR Dcaron
ENCODING 270
SWIDTH 522 0
DWIDTH 17 0
BBX 16 42 1 -5
BITMAP
0019B00000005D20
03DFF9000002EFD2
02FFFF50000CFFFC
00AFFFD0006FFFF7
004FFFF601EFFFD0
000CFFFE1AFFFF60
0005FFFFCFFFFD00
0000DFFFFFFFF600
00007FFFFFFFD000
00001EFFFFFF5000
000009FFFFFC0000
0000014313530000
0000000000000000
0000001345630000
478ACEFFFFFF4000
8FFFFFFFFFFFE300
7FFFFFFFFFFFFF50
1FFFFFFFFFFFFFA0
0BFFFFFFFFFFFFF1
06FFFFFFFFFFFFF2
02FFFFFFFFFFFFF1
00FFFFFFFFFFFFF1
00DFFFFFFFFFFFE0
00CFFFFFCEFFFFC0
00BFFFFC01EFFF90
00AFFFF8009FFF60
008FFFF5008FFF30
006FFFF5007FFF00
005FFFF4007FFC00
003FFFF6009FF900
001FFFF500DFF600
000EFFF501FFF400
000BFFF904FFF300
0008FFFEBFFFF200
0007FFFFFFFFF100
0009FFFFFFFFA000
0008F62AFFFE1000
0008B009FEA30000
0005800899000000
0003700777000000
0001200650000000
0000000230000000
ENDCHAR
STARTCHAR dcaron
ENCODING 271
SWIDTH 522 0
DWIDTH 17 0
BBX 16 42 1 -5
BITMAP
0019B00000005D20
03DFF9000002EFD2
02FFFF50000CFFFC
00AFFFD0006FFFF7
004FFFF601EFFFD0
000CFFFE1AFFFF60
0005FFFFCFFFFD00
0000DFFFFFFFF600
00007FFFFFFFD000
00001EFFFFFF5000
000009FFFFFC0000
0000014313530000
0000000000000000
0000001345630000
478ACEFFFFFF4000
8FFFFFFFFFFFE300
7FFFFFFFFFFFFF50
1FFFFFFFFFFFFFA0
0BFFFFFFFFFFFFF1
06FFFFFFFFFFFFF2
02FFFFFFFFFFFFF1
00FFFFFFFFFFFFF1
00DFFFFFFFFFFFE0
00CFFFFFCEFFFFC0
00BFFFFC01EFFF90
00AFFFF8009FFF60
008FFFF5008FFF30
006FFFF5007FFF00
005FFFF4007FFC00
003FFFF6009FF900
001FFFF500DFF600
000EFFF501FFF400
000BFFF904FFF300
0008FFFEBFFFF200
0007FFFFFFFFF100
0009FFFFFFFFA000
0008F62AFFFE1000
0008B009FEA30000
0005800899000000
0003700777000000
0001200650000000
0000000230000000
ENDCHAR
STARTCHAR Eth.dup2
ENCODING 272
SWIDTH 530 0
DWIDTH 17 0
BBX 17 29 1 -5
BITMAP
000000146789700000
0169BEFFFFFFF70000
03FFFFFFFFFFFF5000
06FFFFFFFFFFFFF700
00DFFFFFFFFFFFFE00
007FFFFFFFFFFFFF30
002FFFFFFFFFFFFF60
000DFFFFFFFFFFFF70
000AFFFFFFFFFFFF80
0009FFFFFFFFFFFF70
0008FFFFFDDFFFFF50
0006FFFFF20AFFFF20
0004FFFFC006FFFD00
1103FFFFA115FFF900
CFFFFFFFFF95FFF500
7ABCFFFFEC44FFF200
0000FFFFA005FFD000
0000CFFF9009FF9000
00009FFF900DFF6000
00006FFFD01EFF4000
00003FFFFBFFFF4000
00004FFFFFFFFF2000
00005FFFFFFFFB0000
00004FB45FFFF20000
00004F101FFB400000
00002C001DA0000000
000009002A80000000
000002002800000000
000000000400000000
ENDCHAR
STARTCHAR Emacron
ENCODING 274
SWIDTH 570 0
DWIDTH 18 0
BBX 17 32 1 -2
BITMAP
001333200101210000
004FFFFEFFFEF60000
005FFFFFFFFFF60000
006FFFFFFFFFF40000
00156AB98877B30000
000000000000000000
013567888764210000
CFFFFFFFFFFFFFDA10
5FFFFFFFFFFFFFF700
0AFFFFFFFFFFFFF100
04EFFFFFFFFFFFD000
01FFFFFFFFFFFFA000
00FFFFFFFFFFFF5000
00FFFFFFFFFFFF1000
00EFFFFFFFFFFB0000
00DFFFFFFFFFF70000
00CFFFFB9CFFF40000
00AFFFF70015820000
009FFFF70000000000
008FFFFB9983000000
005FFFFFFFF9000000
005FFFFFFFF7000000
003FFFFFFFF7000000
001FFFFDBBD5000000
000EFFF30000000000
000CFFF41100000000
000BFFFDFFFC200000
0009FFFFFFFF100000
0008FCFFFFFA000000
000860AFFABA000000
000740ADB038000000
000200742044000000
ENDCHAR
STARTCHAR emacron
ENCODING 275
SWIDTH 632 0
DWIDTH 20 0
BBX 20 34 0 -3
BITMAP
00001333101101310000
00008FFFEEFFEFF30000
00009FFFFFFFFFF30000
0000AFFFFFFFFFF10000
0000248BB79878B00000
00000000000000000000
00000000000000000000
00000246678776420000
039DFFFFFFFFFFFFFDA1
2EFFFFFFFFFFFFFFFFA0
03FFFFFFFFFFFFFFFE10
008FFFFFFFFFFFFFF800
001EFFFFFFFFFFFFF200
000EFFFFFFFFFFFFD000
000CFFFFFFFFFFFFA000
0009FFFFFFFFFFFF8000
0007FFFFFFFFFFFF7000
0004FFFFFFFFFFFF4000
0002FFFFFB1348CF1000
0000EFFFFC0000020000
0000CFFFFC0000000000
00009FFFFECCCC600000
00004FFFFFFFFF700000
00004FFFFFFFFF700000
00003FFFFFFFFF600000
00001FFFFE888D300000
00000EFFFC0001000000
00000CFFFC4320000000
000009FFFDCFFFE00000
000006FFFFFFFFC00000
000003FFFFFFFFA00000
000000E40DFDAC900000
00000060021003700000
00000000000000100000
ENDCHAR
STARTCHAR Ebreve
ENCODING 276
SWIDTH 570 0
DWIDTH 18 0
BBX 17 37 1 -2
BITMAP
0007AAA40000000000
0006FFF50005FED800
0002FFF70008FFF700
0000DFFE401EFFF200
0000BFFFFEEFFFD100
00006FFFFFFFFF6000
0000076FFFFFFC0000
0000000A61FFC70000
0000000100B5450000
000000000000120000
000000000000000000
013567888764210000
CFFFFFFFFFFFFFDA10
5FFFFFFFFFFFFFF700
0AFFFFFFFFFFFFF100
04EFFFFFFFFFFFD000
01FFFFFFFFFFFFA000
00FFFFFFFFFFFF5000
00FFFFFFFFFFFF1000
00EFFFFFFFFFFB0000
00DFFFFFFFFFF70000
00CFFFFB9CFFF40000
00AFFFF70015820000
009FFFF70000000000
008FFFFB9983000000
005FFFFFFFF9000000
005FFFFFFFF7000000
003FFFFFFFF7000000
001FFFFDBBD5000000
000EFFF30000000000
000CFFF41100000000
000BFFFDFFFC200000
0009FFFFFFFF100000
0008FCFFFFFA000000
000860AFFABA000000
000740ADB038000000
000200742044000000
ENDCHAR
STARTCHAR ebreve
ENCODING 277
SWIDTH 632 0
DWIDTH 20 0
BBX 20 38 0 -3
BITMAP
000001AAA90000100000
000000DFFE0000BFDC30
0000008FFF1000EFFF10
0000005FFFA107FFFA00
0000003FFFFFEFFFF700
0000000DFFFFFFFFE100
000000046BFFFFFF6000
0000000002D17FDE0000
0000000000103C290000
00000000000000040000
00000000000000000000
00000246678776420000
039DFFFFFFFFFFFFFDA1
2EFFFFFFFFFFFFFFFFA0
03FFFFFFFFFFFFFFFE10
008FFFFFFFFFFFFFF800
001EFFFFFFFFFFFFF200
000EFFFFFFFFFFFFD000
000CFFFFFFFFFFFFA000
0009FFFFFFFFFFFF8000
0007FFFFFFFFFFFF7000
0004FFFFFFFFFFFF4000
0002FFFFFB1348CF1000
0000EFFFFC0000020000
0000CFFFFC0000000000
00009FFFFECCCC600000
00004FFFFFFFFF700000
00004FFFFFFFFF700000
00003FFFFFFFFF600000
00001FFFFE888D300000
00000EFFFC0001000000
00000CFFFC4320000000
000009FFFDCFFFE00000
000006FFFFFFFFC00000
000003FFFFFFFFA00000
000000E40DFDAC900000
00000060021003700000
00000000000000100000
ENDCHAR
STARTCHAR Edotaccent
ENCODING 278
SWIDTH 570 0
DWIDTH 18 0
BBX 17 39 1 -2
BITMAP
000000001210000000
00059BBFFFFC100000
0004FFFFFFFF200000
0001FFFFFFFF100000
0000FFFFFFFE000000
0000DFFFFFFF400000
0000CFFFFFFF300000
0000BFFFFFFF200000
0000AFFFFFFF100000
00009FFFFFFF100000
000069852254000000
000000000000000000
000000000000000000
013567888764210000
CFFFFFFFFFFFFFDA10
5FFFFFFFFFFFFFF700
0AFFFFFFFFFFFFF100
04EFFFFFFFFFFFD000
01FFFFFFFFFFFFA000
00FFFFFFFFFFFF5000
00FFFFFFFFFFFF1000
00EFFFFFFFFFFB0000
00DFFFFFFFFFF70000
00CFFFFB9CFFF40000
00AFFFF70015820000
009FFFF70000000000
008FFFFB9983000000
005FFFFFFFF9000000
005FFFFFFFF7000000
003FFFFFFFF7000000
001FFFFDBBD5000000
000EFFF30000000000
000CFFF41100000000
000BFFFDFFFC200000
0009FFFFFFFF100000
0008FCFFFFFA000000
000860AFFABA000000
000740ADB038000000
000200742044000000
ENDCHAR
STARTCHAR edotaccent
ENCODING 279
SWIDTH 632 0
DWIDTH 20 0
BBX 20 40 0 -3
BITMAP
00000000002200000000
000006ABCFFFEB000000
000008FFFFFFFD000000
000005FFFFFFFD000000
000003FFFFFFFB000000
000001FFFFFFFF100000
000000FFFFFFFF000000
000000EFFFFFFE000000
000000DFFFFFFD000000
000000CFFFFFFC000000
00000089842253000000
00000000000000000000
00000000000000000000
00000246678776420000
039DFFFFFFFFFFFFFDA1
2EFFFFFFFFFFFFFFFFA0
03FFFFFFFFFFFFFFFE10
008FFFFFFFFFFFFFF800
001EFFFFFFFFFFFFF200
000EFFFFFFFFFFFFD000
000CFFFFFFFFFFFFA000
0009FFFFFFFFFFFF8000
0007FFFFFFFFFFFF7000
0004FFFFFFFFFFFF4000
0002FFFFFB1348CF1000
0000EFFFFC0000020000
0000CFFFFC0000000000
00009FFFFECCCC600000
00004FFFFFFFFF700000
00004FFFFFFFFF700000
00003FFFFFFFFF600000
00001FFFFE888D300000
00000EFFFC0001000000
00000CFFFC4320000000
000009FFFDCFFFE00000
000006FFFFFFFFC00000
000003FFFFFFFFA00000
000000E40DFDAC900000
00000060021003700000
00000000000000100000
ENDCHAR
STARTCHAR Eogonek
ENCODING 280
SWIDTH 513 0
DWIDTH 16 0
BBX 17 35 1 -11
BITMAP
013567888764210000
CFFFFFFFFFFFFFDA10
5FFFFFFFFFFFFFF700
0AFFFFFFFFFFFFF100
04EFFFFFFFFFFFD000
01FFFFFFFFFFFFA000
00FFFFFFFFFFFF5000
00FFFFFFFFFFFF1000
00EFFFFFFFFFFB0000
00DFFFFFFFFFF70000
00CFFFFB9CFFF40000
00AFFFF70015820000
009FFFF70000000000
008FFFFB9983000000
005FFFFFFFF9000000
005FFFFFFFF7000000
003FFFFFFFF7000000
001FFFFDBBD5000000
000EFFF30000000000
000CFFF41100000000
000BFFFDFFFC200000
0009FFFFFFFF100000
0008FFFFFFFA000000
0008FDACFFFA000000
0007A008FFF9000000
0002000BFFE2000000
0000000EFF20000000
0000002FFE00000000
0000001FFF50000000
0000000FFFD1000000
0000000CFFFEAAA300
00000007FFFFFFF300
00000000CFFFFFF200
0000000018EFFFF100
000000000004563000
ENDCHAR
STARTCHAR eogonek
ENCODING 281
SWIDTH 632 0
DWIDTH 20 0
BBX 20 35 0 -11
BITMAP
00000246678776420000
039DFFFFFFFFFFFFFDA1
2EFFFFFFFFFFFFFFFFA0
03FFFFFFFFFFFFFFFE10
008FFFFFFFFFFFFFF800
001EFFFFFFFFFFFFF200
000EFFFFFFFFFFFFD000
000CFFFFFFFFFFFFA000
0009FFFFFFFFFFFF8000
0007FFFFFFFFFFFF7000
0004FFFFFFFFFFFF4000
0002FFFFFB1348CF1000
0000EFFFFC0000020000
0000CFFFFC0000000000
00009FFFFECCCC600000
00004FFFFFFFFF700000
00004FFFFFFFFF700000
00003FFFFFFFFF600000
00001FFFFE888D300000
00000EFFFC0001000000
00000CFFFC4320000000
000009FFFDCFFFE00000
000006FFFFFFFFC00000
000003FFFFFFFF600000
000000E40DFFF9000000
0000006002FFF4000000
0000000002FFF1000000
0000000005FFD0000000
0000000005FFF1000000
0000000004FFF9000000
0000000001FFFFC88800
0000000000BFFFFFFF00
00000000003EFFFFFE00
000000000003CFFFFC00
00000000000002677400
ENDCHAR
STARTCHAR Ecaron
ENCODING 282
SWIDTH 570 0
DWIDTH 18 0
BBX 17 39 1 -2
BITMAP
001AA00000005D2000
03DFF9000003FFD200
02FFFF50000CFFFC00
00BFFFC0007FFFF600
004FFFF502EFFFD000
000CFFFD1AFFFF6000
0006FFFFCFFFFD0000
0000EFFFFFFFF50000
00007FFFFFFFC00000
00001EFFFFFF500000
000009FFFFFC000000
000001431353000000
000000000000000000
013567888764210000
CFFFFFFFFFFFFFDA10
5FFFFFFFFFFFFFF700
0AFFFFFFFFFFFFF100
04EFFFFFFFFFFFD000
01FFFFFFFFFFFFA000
00FFFFFFFFFFFF5000
00FFFFFFFFFFFF1000
00EFFFFFFFFFFB0000
00DFFFFFFFFFF70000
00CFFFFB9CFFF40000
00AFFFF70015820000
009FFFF70000000000
008FFFFB9983000000
005FFFFFFFF9000000
005FFFFFFFF7000000
003FFFFFFFF7000000
001FFFFDBBD5000000
000EFFF30000000000
000CFFF41100000000
000BFFFDFFFC200000
0009FFFFFFFF100000
0008FCFFFFFA000000
000860AFFABA000000
000740ADB038000000
000200742044000000
ENDCHAR
STARTCHAR ecaron
ENCODING 283
SWIDTH 632 0
DWIDTH 20 0
BBX 20 40 0 -3
BITMAP
000004D40000000B8000
00008FFE3000009FF900
00009FFFD00004FFFF50
00002FFFF6000DFFFE10
00000BFFFD007FFFF700
000004FFFF72FFFFE100
000000CFFFFDFFFF6000
0000006FFFFFFFFD0000
0000000EFFFFFFF60000
00000007FFFFFFD00000
00000001EFFFFF600000
00000000332246000000
00000000000000000000
00000246678776420000
039DFFFFFFFFFFFFFDA1
2EFFFFFFFFFFFFFFFFA0
03FFFFFFFFFFFFFFFE10
008FFFFFFFFFFFFFF800
001EFFFFFFFFFFFFF200
000EFFFFFFFFFFFFD000
000CFFFFFFFFFFFFA000
0009FFFFFFFFFFFF8000
0007FFFFFFFFFFFF7000
0004FFFFFFFFFFFF4000
0002FFFFFB1348CF1000
0000EFFFFC0000020000
0000CFFFFC0000000000
00009FFFFECCCC600000
00004FFFFFFFFF700000
00004FFFFFFFFF700000
00003FFFFFFFFF600000
00001FFFFE888D300000
00000EFFFC0001000000
00000CFFFC4320000000
000009FFFDCFFFE00000
000006FFFFFFFFC00000
000003FFFFFFFFA00000
000000E40DFDAC900000
00000060021003700000
00000000000000100000
ENDCHAR
STARTCHAR Gcircumflex
ENCODING 284
SWIDTH 499 0
DWIDTH 16 0
BBX 16 41 0 -4
BITMAP
0000153236400000
00008FFFFFD00000
0001EFFFFFF70000
0006FFFFFFFE1000
000DFFFFFFFF7000
005FFFFBFFFFE100
00BFFFB07FFFF700
03FFFD100AFFFE10
0AFFE20000CFFF80
1FFE2000001DFFD0
2CF400000002ED20
0030000000002100
0000000000000000
0000026564000000
00039FFFFFD71000
008EFFFFFFFFD400
06FFFFFFFFFFFF30
07FFFFFFFFFFFF90
0CFFFFFFFFFFFFF1
0DFFFFFFFFFFFFF4
0DFFFFFFFFFFFFF5
0BFFFFFFFFFFFFF3
0AFFFFFFFFFFFFF0
08FFFFFAEFFFFFC0
06FFFFA03FFFFFA0
03FFFF900BFFFF80
01FFFF8009FFFF80
00EFFF6000478970
00CFFF6084355200
00AFFF80AFFFFF60
009FFFB09FFFFF80
008FFFD08FFFFF80
006FFFE231DFFF70
003FFFF503EFFF60
000DFFFEBFFFFF40
0009FFFFFFFFFF10
0002FFFEFFFFFA00
00006FB8EFFFB100
0000063579890000
0000058011220000
0000011000000000
ENDCHAR
STARTCHAR gcircumflex
ENCODING 285
SWIDTH 546 0
DWIDTH 18 0
BBX 16 40 1 -3
BITMAP
0000343246100000
0000DFFFFF800000
0005FFFFFFF20000
000CFFFFFFF90000
003FFFFFFFFF2000
00AFFFFBFFFF9000
02FFFF61CFFFF200
08FFF8002DFFFA00
1EFFA00003EFFF30
7FFB0000005FFF80
5ED100000006FA00
0220000000003000
0000000000000000
0000366454200000
004EFFEFFFFC4000
04DFFFFFFFFFF800
6FFFFFFFFFFFFF70
AFFFFFFFFFFFFFE1
DFFFFFFFFFFFFFF7
FFFFFFFFFFFFFFFB
FFFFFFFFFFFFFFFD
DFFFFFFFFFFFFFFE
BFFFFFFFFFFFFFFC
9FFFFFFDFFFFFFF9
7FFFFF808FFFFFF5
4FFFFF600DFFFFF2
1FFFFF4009FFFFF0
0EFFFF2004ACEFE0
09FFFF3031000241
04FFFF30BFD96300
01FFFF90AFFFFFD0
00CFFFD09FFFFFA0
00AFFFE08CEFFF90
009FFFE320AFFF80
007FFFFB26EFFF70
002FFFFFFFFFFF70
000CFFFFFFFFFF50
0004EFFFFFFFFF20
00006EACDFCBD400
0000041615021000
ENDCHAR
STARTCHAR Gbreve
ENCODING 286
SWIDTH 499 0
DWIDTH 16 0
BBX 15 39 1 -4
BITMAP
07AAA30000000000
07FFF50005FED800
02FFF70008FFF700
00DFFE401EFFF100
00BFFFFEEFFFD100
006FFFFFFFFF6000
00077FFFFFFC0000
00000A61FFC70000
00000100B5450000
0000000000120000
0000000000000000
0000265640000000
0039FFFFFD710000
08EFFFFFFFFD4000
6FFFFFFFFFFFF300
7FFFFFFFFFFFF900
CFFFFFFFFFFFFF10
DFFFFFFFFFFFFF40
DFFFFFFFFFFFFF50
BFFFFFFFFFFFFF30
AFFFFFFFFFFFFF00
8FFFFFAEFFFFFC00
6FFFFA03FFFFFA00
3FFFF900BFFFF800
1FFFF8009FFFF800
0EFFF60004789700
0CFFF60843552000
0AFFF80AFFFFF600
09FFFB09FFFFF800
08FFFD08FFFFF800
06FFFE231DFFF700
03FFFF503EFFF600
00DFFFEBFFFFF400
009FFFFFFFFFF100
002FFFEFFFFFA000
0006FB8EFFFB1000
0000635798900000
0000580112200000
0000110000000000
ENDCHAR
STARTCHAR gbreve
ENCODING 287
SWIDTH 546 0
DWIDTH 18 0
BBX 16 38 1 -3
BITMAP
00AAAA1000100000
00BFFF10009FEC40
006FFF3000CFFF30
002FFFC204FFFC00
000FFFFFEFFFF900
000AFFFFFFFFF200
000269FFFFFF8000
000000D25FED3000
000000101D281000
0000000000031000
0000000000000000
0000366454200000
004EFFEFFFFC4000
04DFFFFFFFFFF800
6FFFFFFFFFFFFF70
AFFFFFFFFFFFFFE1
DFFFFFFFFFFFFFF7
FFFFFFFFFFFFFFFB
FFFFFFFFFFFFFFFD
DFFFFFFFFFFFFFFE
BFFFFFFFFFFFFFFC
9FFFFFFDFFFFFFF9
7FFFFF808FFFFFF5
4FFFFF600DFFFFF2
1FFFFF4009FFFFF0
0EFFFF2004ACEFE0
09FFFF3031000241
04FFFF30BFD96300
01FFFF90AFFFFFD0
00CFFFD09FFFFFA0
00AFFFE08CEFFF90
009FFFE320AFFF80
007FFFFB26EFFF70
002FFFFFFFFFFF70
000CFFFFFFFFFF50
0004EFFFFFFFFF20
00006EACDFCBD400
0000041615021000
ENDCHAR
STARTCHAR Gdotaccent
ENCODING 288
SWIDTH 499 0
DWIDTH 16 0
BBX 15 41 1 -4
BITMAP
0000000220000000
006ABCFFFEB00000
008FFFFFFFD00000
005FFFFFFFD00000
003FFFFFFFB00000
001FFFFFFFF10000
000FFFFFFFF00000
000EFFFFFFE00000
000DFFFFFFD00000
000CFFFFFFC00000
0008984225300000
0000000000000000
0000000000000000
0000265640000000
0039FFFFFD710000
08EFFFFFFFFD4000
6FFFFFFFFFFFF300
7FFFFFFFFFFFF900
CFFFFFFFFFFFFF10
DFFFFFFFFFFFFF40
DFFFFFFFFFFFFF50
BFFFFFFFFFFFFF30
AFFFFFFFFFFFFF00
8FFFFFAEFFFFFC00
6FFFFA03FFFFFA00
3FFFF900BFFFF800
1FFFF8009FFFF800
0EFFF60004789700
0CFFF60843552000
0AFFF80AFFFFF600
09FFFB09FFFFF800
08FFFD08FFFFF800
06FFFE231DFFF700
03FFFF503EFFF600
00DFFFEBFFFFF400
009FFFFFFFFFF100
002FFFEFFFFFA000
0006FB8EFFFB1000
0000635798900000
0000580112200000
0000110000000000
ENDCHAR
STARTCHAR gdotaccent
ENCODING 289
SWIDTH 546 0
DWIDTH 18 0
BBX 16 40 1 -3
BITMAP
0000000121000000
0027BBDFFFE60000
000CFFFFFFF80000
000AFFFFFFF70000
0008FFFFFFF50000
0007FFFFFFFA0000
0005FFFFFFFA0000
0004FFFFFFF90000
0003FFFFFFF80000
0003FFFFFFF70000
0002A87323520000
0000000000000000
0000000000000000
0000366454200000
004EFFEFFFFC4000
04DFFFFFFFFFF800
6FFFFFFFFFFFFF70
AFFFFFFFFFFFFFE1
DFFFFFFFFFFFFFF7
FFFFFFFFFFFFFFFB
FFFFFFFFFFFFFFFD
DFFFFFFFFFFFFFFE
BFFFFFFFFFFFFFFC
9FFFFFFDFFFFFFF9
7FFFFF808FFFFFF5
4FFFFF600DFFFFF2
1FFFFF4009FFFFF0
0EFFFF2004ACEFE0
09FFFF3031000241
04FFFF30BFD96300
01FFFF90AFFFFFD0
00CFFFD09FFFFFA0
00AFFFE08CEFFF90
009FFFE320AFFF80
007FFFFB26EFFF70
002FFFFFFFFFFF70
000CFFFFFFFFFF50
0004EFFFFFFFFF20
00006EACDFCBD400
0000041615021000
ENDCHAR
STARTCHAR Gcommaaccent
ENCODING 290
SWIDTH 499 0
DWIDTH 16 0
BBX 15 43 1 -19
BITMAP
0000265640000000
0039FFFFFD710000
08EFFFFFFFFD4000
6FFFFFFFFFFFF300
7FFFFFFFFFFFF900
CFFFFFFFFFFFFF10
DFFFFFFFFFFFFF40
DFFFFFFFFFFFFF50
BFFFFFFFFFFFFF30
AFFFFFFFFFFFFF00
8FFFFFAEFFFFFC00
6FFFFA03FFFFFA00
3FFFF900BFFFF800
1FFFF8009FFFF800
0EFFF60004789700
0CFFF60843552000
0AFFF80AFFFFF600
09FFFB09FFFFF800
08FFFD08FFFFF800
06FFFE231DFFF700
03FFFF503EFFF600
00DFFFEBFFFFF400
009FFFFFFFFFF100
002FFFEFFFFFA000
0006FB8EFFFB1000
0000635798900000
0000580112200000
0000110000000000
0000000000000000
00007DEC98B70000
00009FFFFFFB0000
0000AFFFFFFC0000
0000BFFFFFFD0000
0000CFFFFFFE0000
0000CFFFFFFD0000
0000DFFFFFFC0000
0000AECEFFFD0000
000000008FFB0000
000000009FF90000
00000000CFF70000
00000000EFF40000
00000002FFF20000
00000002EDC00000
ENDCHAR
STARTCHAR Hcircumflex
ENCODING 292
SWIDTH 726 0
DWIDTH 23 0
BBX 23 44 0 -7
BITMAP
000000004422560000000000
00000002FFFFFF5000000000
00000009FFFFFFD000000000
0000001EFFFFFFF500000000
0000007FFFFFFFFD00000000
000000DFFFDDFFFF60000000
000005FFFE32EFFFD0000000
00000CFFF5004FFFF6000000
00003FFF700006FFFD000000
0000AFF80000008FFF400000
00008FA00000000AF7000000
000003000000000030000000
000000000000000000000000
000000145760186664330000
23468BEFFF400FFFFFFFDA20
18FFFFFFFB000DFFFFFFFA00
00AFFFFFFA0008FFFFFFF200
004FFFFFFA0003FFFFFFA000
002FFFFFFA000AFFFFFF4000
001FFFFFF9000DFFFFFD0000
000CFFFFF9000DFFFFF80000
0009FFFFF8000DFFFFF50000
0006FFFFF8000DFFFFF40000
0003FFFFF7000DFFFFE10000
0001FFFFF7000DFFFF900000
0000DFFFF6000EFFFF500000
0000AFFFFCCADFFFFF500000
00008FFFFFFFFFFFFC000000
00006FFFFFFFFFFFFC000000
00004FFFFFFFFFFFFC000000
00002FFFFC42AFFFFA000000
00001FFFF9009FFFF8000000
00000EFFFB00BFFFF2000000
00000DFFFB00BFFFF1000000
00000CFFFB00BFFFE0000000
00000BFFFB00DFFFC0000000
00000BFFFB02DFFFA0000000
00001CB562009FFF90000000
0000040000002D3670000000
000000000000000310000000
000000000000200000000000
000000000003400000000000
000000000004400000000000
000000000002200000000000
ENDCHAR
STARTCHAR hcircumflex
ENCODING 293
SWIDTH 730 0
DWIDTH 23 0
BBX 23 40 0 -3
BITMAP
000000003432461000000000
00000001EFFFFF7000000000
00000007FFFFFFE100000000
0000000DFFFFFFF800000000
0000005FFFFFFFFE10000000
000000BFFFECFFFF80000000
000003FFFF51DFFFE1000000
00000AFFF7002EFFF8000000
00002FFF900004FFFF200000
00008FFA0000006FFF600000
00006FC100000007F9000000
000002100000000030000000
000000000000000000000000
00000148AB900BBAB9784100
279ACFFFFF300BFFFFFFFF50
02DFFFFFFB0008FFFFFFFA00
005FFFFFFD0002EFFFFFF300
001FFFFFFC0002EFFFFFB000
000FFFFFFC0008FFFFFF5000
000EFFFFFB000AFFFFFE1000
000BFFFFFB0009FFFFFA0000
0009FFFFFB0009FFFFF80000
0006FFFFFA0009FFFFF70000
0002FFFFFA0008FFFFF30000
0000EFFFF90009FFFFD00000
0000BFFFF9102CFFFF700000
00008FFFFFFEFFFFFF600000
00006FFFFFFFFFFFFF000000
00004FFFFFFFFFFFFF000000
00003FFFFFFDEFFFFF000000
00002FFFFC105FFFFD000000
00001FFFFC008FFFFA000000
00000FFFFE009FFFF6000000
00000DFFFE009FFFF4000000
00000CFFFD009FFFF2000000
00000AFFFD00CFFFF0000000
000009FFFB009FFFD0000000
00000BA120006FDDC0000000
0000000000000723A0000000
000000000000000100000000
ENDCHAR
STARTCHAR hbar
ENCODING 295
SWIDTH 704 0
DWIDTH 23 0
BBX 22 27 0 -3
BITMAP
00000159AC405CAC978520
279ACFFFFD006FFFFFFFF7
02DFFFFFF9005FFFFFFFD0
005FFFFFF6005FFFFFFF50
001FFFFFF7447FFFFFFD00
000FFFFFFFFFFFFFFFF800
000EFFFFFFFFFFFFFFF200
000BFFFFFFFFFFFFFFD000
0009FFFFFFFFFFFFFFB000
0006FFFFFFFFFFFFFFA000
0002FFFFF7667FFFFF5000
0000EFFFF2002FFFFF1000
0000BFFFF2115FFFFA0000
00008FFFFFEFFFFFF90000
00006FFFFFFFFFFFF30000
00004FFFFFFFFFFFF30000
00003FFFFFFCFFFFF40000
00002FFFFC005FFFF80000
00001FFFFC008FFFF90000
00000FFFFE009FFFF60000
00000DFFFE009FFFF40000
00000CFFFD009FFFF20000
00000AFFFD00CFFFF00000
000009FFFB009FFFD00000
00000BA120006FDDC00000
0000000000000723A00000
0000000000000001000000
ENDCHAR
STARTCHAR Itilde
ENCODING 296
SWIDTH 401 0
DWIDTH 13 0
BBX 16 35 -2 -2
BITMAP
0002000000940000
01AE50001CFFC100
3DFFE319EFFFFC10
8FFFFFFFFFFFFF91
0BFFFFFFFFFFFFD0
01DFFFFFFDEFFE40
003DFFF9202BC300
0000461000010000
0000000000000000
0017AAA99A999600
003EFFFFFFFFF900
0009FFFFFFFFE100
00008FFFFFFFB000
00000DFFFFFF3000
000007FFFFFF6000
000003FFFFFF6000
000005FFFFFF4000
000007FFFFFF3000
000007FFFFFF1000
000007FFFFFE0000
000006FFFFFA0000
000005FFFFF60000
000004FFFFF90000
000002FFFFF90000
000000FFFFF90000
000000EFFFF40000
000000CFFFF20000
000000AFFFF50000
0000008FFFF40000
0000006FFFF30000
0000004FFFF20000
0000001FFFF10000
0000000D2EF30000
0000000A0A640000
0000000206100000
ENDCHAR
STARTCHAR itilde
ENCODING 297
SWIDTH 411 0
DWIDTH 13 0
BBX 16 35 -2 -2
BITMAP
0002000000750000
008F70001BEFD300
2CFFF508EFFFFE20
5FFFFFFFFFFFFFB1
09FFFFFFFFFFFFF2
00CFFFFFFDEFFF60
001CFFFA301AE400
0000372000001000
0000000000000000
0012479B79A53200
003DFFFFFFFFFD20
0006FFFFFFFFF600
00006FFFFFFFE200
000009FFFFFF9000
000003FFFFFF7000
000001EFFFFF6000
000002FFFFFF2000
000003FFFFFE0000
000004FFFFFB0000
000004FFFFF90000
000003FFFFF70000
000002FFFFF60000
000000FFFFF60000
000000DFFFF80000
000000BFFFF90000
0000008FFFF30000
0000005FFFF30000
0000003FFFF00000
0000002FFFF00000
0000002FFFE00000
0000001FFFD00000
0000000FFFC00000
0000000D8EC00000
0000000308B00000
0000000000100000
ENDCHAR
STARTCHAR Imacron
ENCODING 298
SWIDTH 401 0
DWIDTH 13 0
BBX 12 33 0 -2
BITMAP
033320010122
3FFFFEFFFEF8
4FFFFFFFFFF8
5FFFFFFFFFF6
055ABA7877B4
000000000000
000000000000
17AAA99A9996
3EFFFFFFFFF9
09FFFFFFFFE1
008FFFFFFFB0
000DFFFFFF30
0007FFFFFF60
0003FFFFFF60
0005FFFFFF40
0007FFFFFF30
0007FFFFFF10
0007FFFFFE00
0006FFFFFA00
0005FFFFF600
0004FFFFF900
0002FFFFF900
0000FFFFF900
0000EFFFF400
0000CFFFF200
0000AFFFF500
00008FFFF400
00006FFFF300
00004FFFF200
00001FFFF100
00000D2EF300
00000A0A6400
000002061000
ENDCHAR
STARTCHAR imacron
ENCODING 299
SWIDTH 411 0
DWIDTH 13 0
BBX 13 33 0 -2
BITMAP
03333001002200
0FFFFEFFFEFA00
1FFFFFFFFFFA00
2FFFFFFFFFF800
044ABB6986B600
00000000000000
00000000000000
12479B79A53200
3DFFFFFFFFFD20
06FFFFFFFFF600
006FFFFFFFE200
0009FFFFFF9000
0003FFFFFF7000
0001EFFFFF6000
0002FFFFFF2000
0003FFFFFE0000
0004FFFFFB0000
0004FFFFF90000
0003FFFFF70000
0002FFFFF60000
0000FFFFF60000
0000DFFFF80000
0000BFFFF90000
00008FFFF30000
00005FFFF30000
00003FFFF00000
00002FFFF00000
00002FFFE00000
00001FFFD00000
00000FFFC00000
00000D8EC00000
00000308B00000
00000000100000
ENDCHAR
STARTCHAR Ibreve
ENCODING 300
SWIDTH 401 0
DWIDTH 13 0
BBX 14 37 0 -2
BITMAP
1AAA9000010000
0DFFD0000BFDC2
09FFF1001EFFE1
05FFFA107FFFA0
03FFFFFEFFFF70
00DFFFFFFFFE00
0046BFFFFFF500
00002D18FDE000
00000103C29000
00000000004000
00000000000000
17AAA99A999600
3EFFFFFFFFF900
09FFFFFFFFE100
008FFFFFFFB000
000DFFFFFF3000
0007FFFFFF6000
0003FFFFFF6000
0005FFFFFF4000
0007FFFFFF3000
0007FFFFFF1000
0007FFFFFE0000
0006FFFFFA0000
0005FFFFF60000
0004FFFFF90000
0002FFFFF90000
0000FFFFF90000
0000EFFFF40000
0000CFFFF20000
0000AFFFF50000
00008FFFF40000
00006FFFF30000
00004FFFF20000
00001FFFF10000
00000D2EF30000
00000A0A640000
00000206100000
ENDCHAR
STARTCHAR ibreve
ENCODING 301
SWIDTH 411 0
DWIDTH 13 0
BBX 14 37 0 -2
BITMAP
2AAA8000010000
0EFFC0000DFDC1
0AFFE0001FFFE0
06FFF9108FFF80
04FFFFFEFFFF50
01EFFFFFFFFD00
0056CFFFFFF400
00003C19FDD000
00000104B19000
00000000004000
00000000000000
12479B79A53200
3DFFFFFFFFFD20
06FFFFFFFFF600
006FFFFFFFE200
0009FFFFFF9000
0003FFFFFF7000
0001EFFFFF6000
0002FFFFFF2000
0003FFFFFE0000
0004FFFFFB0000
0004FFFFF90000
0003FFFFF70000
0002FFFFF60000
0000FFFFF60000
0000DFFFF80000
0000BFFFF90000
00008FFFF30000
00005FFFF30000
00003FFFF00000
00002FFFF00000
00002FFFE00000
00001FFFD00000
00000FFFC00000
00000D8EC00000
00000308B00000
00000000100000
ENDCHAR
STARTCHAR Iogonek
ENCODING 302
SWIDTH 401 0
DWIDTH 13 0
BBX 12 37 0 -13
BITMAP
17AAA99A9996
3EFFFFFFFFF9
09FFFFFFFFE1
008FFFFFFFB0
000DFFFFFF30
0007FFFFFF60
0003FFFFFF60
0005FFFFFF40
0007FFFFFF30
0007FFFFFF10
0007FFFFFE00
0006FFFFFA00
0005FFFFF600
0004FFFFF900
0002FFFFF900
0001FFFFF900
0000EFFFF400
0000CFFFF200
0000AFFFF500
00008FFFF400
00006FFFF300
00004FFFF200
00001FFFF100
00002FFFF300
00005FFF9400
00008FFB0000
0000BFF60000
0000EFF20000
0001FFE00000
0004FFD00000
0005FFF10000
0005FFFA0000
0003FFFFDA99
0000EFFFFFFD
00005FFFFFFC
000004CFFFFB
000000025652
ENDCHAR
STARTCHAR iogonek
ENCODING 303
SWIDTH 412 0
DWIDTH 13 0
BBX 13 36 0 -12
BITMAP
12479B79A53200
3DFFFFFFFFFD20
06FFFFFFFFF600
007FFFFFFFE200
0009FFFFFF9000
0003FFFFFF7000
0001EFFFFF6000
0002FFFFFF2000
0003FFFFFE0000
0004FFFFFB0000
0004FFFFF90000
0003FFFFF70000
0002FFFFF60000
0000FFFFF60000
0000DFFFF80000
0000BFFFF90000
00008FFFF40000
00005FFFF30000
00003FFFF10000
00002FFFF00000
00002FFFE00000
00001FFFD00000
00001FFFD00000
00003FFFC00000
00006FFFB00000
00009FFB100000
0000CFF7000000
0000FFF3000000
0003FFF0000000
0004FFF1000000
0003FFF8000000
0002FFFFA53300
0000CFFFFFFF10
00005FFFFFFF00
000007FFFFFE00
00000028BDC900
ENDCHAR
STARTCHAR Idotaccent
ENCODING 304
SWIDTH 401 0
DWIDTH 13 0
BBX 12 39 0 -2
BITMAP
000000121000
049BBEFFFD30
03FFFFFFFF30
00FFFFFFFF30
00DFFFFFFF10
00CFFFFFFF50
00AFFFFFFF50
009FFFFFFF40
008FFFFFFF30
008FFFFFFF20
005986324410
000000000000
000000000000
17AAA99A9996
3EFFFFFFFFF9
09FFFFFFFFE1
008FFFFFFFB0
000DFFFFFF30
0007FFFFFF60
0003FFFFFF60
0005FFFFFF40
0007FFFFFF30
0007FFFFFF10
0007FFFFFE00
0006FFFFFA00
0005FFFFF600
0004FFFFF900
0002FFFFF900
0000FFFFF900
0000EFFFF400
0000CFFFF200
0000AFFFF500
00008FFFF400
00006FFFF300
00004FFFF200
00001FFFF100
00000D2EF300
00000A0A6400
000002061000
ENDCHAR
STARTCHAR dotlessi
ENCODING 305
SWIDTH 411 0
DWIDTH 13 0
BBX 13 26 0 -2
BITMAP
12479B79A53200
3DFFFFFFFFFD20
06FFFFFFFFF600
006FFFFFFFE200
0009FFFFFF9000
0003FFFFFF7000
0001EFFFFF6000
0002FFFFFF2000
0003FFFFFE0000
0004FFFFFB0000
0004FFFFF90000
0003FFFFF70000
0002FFFFF60000
0000FFFFF60000
0000DFFFF80000
0000BFFFF90000
00008FFFF30000
00005FFFF30000
00003FFFF00000
00002FFFF00000
00002FFFE00000
00001FFFD00000
00000FFFC00000
00000D8EC00000
00000308B00000
00000000100000
ENDCHAR
STARTCHAR IJ
ENCODING 306
SWIDTH 908 0
DWIDTH 29 0
BBX 28 26 0 -2
BITMAP
17AAAA7A9A973000000455555300
3EFFFFFFFFFE20000008FFFFFFFA
09FFFFFFFFF800000005FFFFFFF3
008FFFFFFFF300000000CFFFFFD0
000DFFFFFFA0000000008FFFFFB0
0007FFFFFFD0000000005FFFFF70
0003FFFFFFE0000000003FFFFC10
0005FFFFFFC0000000007FFFFC00
0007FFFFFFA0000000008FFFF900
0007FFFFFF8000000000AFFFF800
0007FFFFFF6000000000BFFFF800
0006FFFFFF3000000000BFFFF600
0005FFFFFE0000000000BFFFF200
0003FFFFFF2000000000AFFFF000
0002FFFFFF20000000007FFFE000
0000FFFFFF1000000200AFFFB000
0000DFFFFB0000479E10BFFF8000
0000BFFFF90004FFFF10AFFF8000
00009FFFFC0002FFFF10CFFF5000
00006FFFFC0000DFFF20EFFF3000
00004FFFFA0000EFFF97FFFF1000
00002FFFF90000BFFFFFFFFB0000
00000EFFF800005FFFFFFFF40000
00000C49FA000004CF9AFDC10000
00000A15A70000000455E2500000
0000020360000000011020000000
ENDCHAR
STARTCHAR ij
ENCODING 307
SWIDTH 901 0
DWIDTH 29 0
BBX 28 26 0 -2
BITMAP
12479B78B7431000007899751000
3DFFFFFFFFFF400000BFFFFFFDA6
06FFFFFFFFFB0000003FFFFFFFD3
007FFFFFFFF60000000DFFFFFFD0
0009FFFFFFE10000000AFFFFFFC0
0002FFFFFFD000000006FFFFFF70
0001EFFFFFC000000001FFFFFE20
0002FFFFFF9000000000FFFFFD00
0003FFFFFF6000000000FFFFFF00
0004FFFFFF3000000000FFFFFE00
0004FFFFFF1000000000FFFFFD00
0003FFFFFF0000000000FFFFFC00
0002FFFFFE0000000000FFFFFB00
0000FFFFFE0000000000DFFFFA00
0000CFFFFF10000000009FFFF700
0000AFFFFF1000000300AFFFF500
00007FFFFB0000478E00AFFFF400
00004FFFFB0003FFFF10AFFFF400
00001FFFF80000EFFF509FFFF300
00001FFFF800009FFF90AFFFF100
00000FFFF700007FFFE8FFFFC000
00000EFFF600004FFFFFFFFF8000
00000DFFF500000BFFFFFFFF1000
00000BBBF4000002ADFFFFFF0000
00000304D500000000349D5B0000
0000000001000000000000020000
ENDCHAR
STARTCHAR Jcircumflex
ENCODING 308
SWIDTH 455 0
DWIDTH 15 0
BBX 18 39 -1 -2
BITMAP
000000154235500000
0000006FFFFFE10000
000000DFFFFFF80000
000005FFFFFFFE1000
00000BFFFFFFFF9000
00003FFFFBFFFFF200
0000AFFFC16FFFF900
0002FFFE2008FFFF20
0008FFE30000AFFFA0
001EFF4000001CFFE1
001BF600000001DE30
000030000000002200
000000000000000000
000000555554200000
000000EFFFFFFE5000
000000AFFFFFFB0000
0000003FFFFFF70000
0000000DFFFFF50000
0000000BFFFFF10000
00000009FFFF700000
0000000DFFFF600000
0000000EFFFF300000
0000001FFFFF200000
0000002FFFFF200000
0000002FFFFE100000
0000002FFFFB000000
0000001FFFF9000000
0000000DFFF8000000
0000201FFFF5000000
169A902FFFF3000000
AFFFA01FFFF2000000
8FFFA02FFFE0000000
3FFFB05FFFC0000000
4FFFF4CFFFA0000000
1FFFFFFFFF50000000
0BFFFFFFFD00000000
008DF5EFBA00000000
000090BA1400000000
000020210000000000
ENDCHAR
STARTCHAR jcircumflex
ENCODING 309
SWIDTH 458 0
DWIDTH 15 0
BBX 18 39 -1 -2
BITMAP
000000054235500000
0000006FFFFFF20000
000000CFFFFFF90000
000004FFFFFFFF2000
00000BFFFFFFFF9000
00002FFFFCEFFFF200
00009FFFD15FFFFA00
0001EFFE2007FFFF30
0007FFF30000AFFFA0
000DFF4000000BFFE1
001BF600000001CE40
000030000000001200
000000000000000000
000017899741000000
00000CFFFFFFD95000
000005FFFFFFFD3000
000000EFFFFFFC0000
000000AFFFFFFB0000
0000007FFFFFF50000
0000002FFFFFE10000
0000001FFFFFC00000
0000001FFFFFE00000
0000001FFFFFD00000
0000001FFFFFC00000
0000001FFFFFB00000
0000001FFFFFA00000
0000000DFFFF900000
0000000AFFFF600000
0000300BFFFF400000
1688D00BFFFF300000
9FFFF00BFFFF300000
6FFFF409FFFF200000
1EFFF80BFFFE000000
0CFFFE8FFFFB000000
08FFFFFFFFF7000000
01EFFFFFFFF1000000
003BDFFFFFE0000000
00000349D5A0000000
000000000020000000
ENDCHAR
STARTCHAR Kcommaaccent
ENCODING 310
SWIDTH 580 0
DWIDTH 19 0
BBX 18 42 0 -18
BITMAP
025786426005841000
5FFFFFFEC00FFFFDB7
04DFFFFFC01FFFFFC1
008FFFFFC03FFFFB10
002EFFFFD07FFFB100
0009FFFFE0AFFB0000
0004FFFFF0DFF70000
0000EFFFF6FFF40000
0000BFFFFEFFF10000
00009FFFFFFFC00000
00008FFFFFFFB00000
0000AFFFFFFFF00000
00007FFFFFFFF10000
00004FFFFFFFF00000
00001FFFFFFFF00000
00001EFFFFFFF20000
00000BFFFFFFF40000
00000CFFFFFFF20000
00000AFFFEFFF70000
000009FFE4EFFB0000
000008FF807FFE0000
000006FFB04FFF2000
000003FFE00DFF6000
000004FEF00DFF6000
000000B08109A56000
000000103100102000
000000000000000000
000000000000000000
0000005CECA8B90000
0000006FFFFFFE0000
0000007FFFFFFF0000
0000008FFFFFFF1000
0000008FFFFFFF2000
0000009FFFFFFF1000
000000AFFFFFFF0000
0000007ECEFFFF1000
00000000005FFE0000
00000000006FFC0000
00000000009FFA0000
0000000000CFF70000
0000000000EFF50000
0000000000DDD20000
ENDCHAR
STARTCHAR kcommaaccent
ENCODING 311
SWIDTH 636 0
DWIDTH 20 0
BBX 20 41 0 -17
BITMAP
00002343191056998620
37BEFFFEED01EFFFFFE5
19FFFFFFFA03FFFFFB10
005FFFFFF907FFFFC100
002FFFFFF90BFFFD1000
000BFFFFFA0EFFD20000
0004FFFFFB1FFFA00000
0000CFFFFD2FFF900000
00006FFFFE3FFF700000
00002FFFFF5FFE300000
00003FFFFF8FF9000000
00001FFFFFBFF4000000
00000FFFFFEFE0000000
00000EFFFFFFB0000000
00000DFFFFFFC0000000
000009FFFFFFF1000000
000005FFFFFFF7000000
000003FFFFFFFC000000
000003FFFFCFFF200000
000000EFFE3FFF700000
000000CFF90AFFD00000
000000DFF903FFF50000
000000AFF900BFF70000
0000009FFB00CFFE1000
0000004A3A007D6A2000
00000000000002000000
00000000000000000000
00000005CECA8B800000
00000007FFFFFFE00000
00000007FFFFFFF00000
00000008FFFFFFF10000
00000009FFFFFFF20000
00000009FFFFFFF10000
0000000AFFFFFFF00000
00000007ECEFFFF10000
000000000005FFE00000
000000000006FFC00000
00000000000AFF900000
00000000000CFF700000
00000000000EFF500000
00000000000DDD200000
ENDCHAR
STARTCHAR kgreenlandic
ENCODING 312
SWIDTH 636 0
DWIDTH 20 0
BBX 20 26 0 -2
BITMAP
00002343191056998620
37BEFFFEED01EFFFFFE5
19FFFFFFFA03FFFFFB10
005FFFFFF907FFFFC100
002FFFFFF90BFFFD1000
000BFFFFFA0EFFD20000
0004FFFFFB1FFFA00000
0000CFFFFD2FFF900000
00006FFFFE3FFF700000
00002FFFFF5FFE300000
00003FFFFF8FF9000000
00001FFFFFBFF4000000
00000FFFFFEFE0000000
00000EFFFFFFB0000000
00000DFFFFFFC0000000
000009FFFFFFF1000000
000005FFFFFFF7000000
000003FFFFFFFC000000
000003FFFFCFFF200000
000000EFFE3FFF700000
000000CFF90AFFD00000
000000DFF903FFF50000
000000AFF900BFF70000
0000009FFB00CFFE1000
0000004A3A007D6A2000
00000000000002000000
ENDCHAR
STARTCHAR Lacute
ENCODING 313
SWIDTH 416 0
DWIDTH 13 0
BBX 18 37 0 -3
BITMAP
000000000000011000
0000000000001CB000
000000000003DFF300
00000000004EFFF600
0000000006FFFFFE61
000000019FFFFFFFE4
0000000DFFFFFD8400
0000000EFEA7200000
000000055100000000
000000000000000000
488888874882000000
2BFFFFFFFF80000000
02EFFFFFF800000000
00CFFFFFE200000000
00CFFFFF8000000000
009FFFFFB000000000
005FFFFFD000000000
005FFFFFA000000000
005FFFFF9000000000
005FFFFF9000000000
003FFFFF6000000000
001DFFFF8000000000
000BFFFF9000000000
000BFFFFA000000000
000BFFFFA000000000
0009FFFFA000000000
0004FFFF9000000000
0004FFFF8000000000
0004FFFFB000000000
0002FFFFF652163000
0000FFFFFFFFFE1000
0000CFFFFFFFFE0000
00009FFFFFFFFB0000
00005FFFDCFFF80000
00000B6897BFF70000
000003047304B00000
000000000002200000
ENDCHAR
STARTCHAR lacute
ENCODING 314
SWIDTH 438 0
DWIDTH 14 0
BBX 18 38 0 -3
BITMAP
000000000000002000
00000000000006F300
0000000000008FFA00
00000000001AFFFC10
0000000001CFFFFFB2
000000005DFFFFFFFA
00000006FFFFFEA610
00000007FFC9400000
000000017200000000
000000000000000000
000000000000000000
0004788889DDC10000
29EFFFFFFFF8100000
01CFFFFFFFA0000000
006FFFFFFF20000000
002FFFFFF900000000
001FFFFFFD00000000
000CFFFFFC00000000
000CFFFFFA00000000
0009FFFFF700000000
0009FFFFF800000000
0006FFFFF900000000
0003FFFFF800000000
00009FFFF800000000
00008FFFF700000000
00008FFFF600000000
00008FFFF500000000
00006FFFF400000000
00005FFFF500000000
00003FFFF500000000
00002FFFFE85355000
00000FFFFFFFFFA000
00000DFFFFFFFF5000
00000BFFFFFFFF1000
00000AFFF6DFFD0000
000008B2417DFA0000
000006800003C40000
000001100000200000
ENDCHAR
STARTCHAR Lcommaaccent
ENCODING 315
SWIDTH 416 0
DWIDTH 13 0
BBX 15 43 0 -19
BITMAP
4888888748820000
2BFFFFFFFF800000
02EFFFFFF8000000
00CFFFFFE2000000
00CFFFFF80000000
009FFFFFB0000000
005FFFFFD0000000
005FFFFFA0000000
005FFFFF90000000
005FFFFF90000000
003FFFFF60000000
001DFFFF80000000
000BFFFF90000000
000BFFFFA0000000
000BFFFFA0000000
0009FFFFA0000000
0004FFFF90000000
0004FFFF80000000
0004FFFFB0000000
0002FFFFF6521630
0000FFFFFFFFFE10
0000CFFFFFFFFE00
00009FFFFFFFFB00
00005FFFDCFFF800
00000B6897BFF700
000003047304B000
0000000000022000
0000000000000000
0000000000000000
0002CEDA8AA20000
0002FFFFFFF30000
0003FFFFFFF40000
0004FFFFFFF50000
0004FFFFFFF60000
0005FFFFFFF50000
0006FFFFFFF40000
0004EDDFFFF50000
00000001FFF30000
00000002FFF10000
00000005FFE00000
00000008FFB00000
0000000AFF900000
00000009DD600000
ENDCHAR
STARTCHAR lcommaaccent
ENCODING 316
SWIDTH 438 0
DWIDTH 14 0
BBX 15 42 0 -18
BITMAP
0004788889DDC100
29EFFFFFFFF81000
01CFFFFFFFA00000
006FFFFFFF200000
002FFFFFF9000000
001FFFFFFD000000
000CFFFFFC000000
000CFFFFFA000000
0009FFFFF7000000
0009FFFFF8000000
0006FFFFF9000000
0003FFFFF8000000
00009FFFF8000000
00008FFFF7000000
00008FFFF6000000
00008FFFF5000000
00006FFFF4000000
00005FFFF5000000
00003FFFF5000000
00002FFFFE853550
00000FFFFFFFFFA0
00000DFFFFFFFF50
00000BFFFFFFFF10
00000AFFF6DFFD00
000008B2417DFA00
000006800003C400
0000011000002000
0000000000000000
00008DEC98B60000
0000AFFFFFFB0000
0000BFFFFFFC0000
0000CFFFFFFD0000
0000CFFFFFFD0000
0000DFFFFFFC0000
0000EFFFFFFC0000
0000BECFFFFC0000
000000008FFB0000
00000000AFF80000
00000000DFF60000
00000001FFF40000
00000002FFF10000
00000002EDC00000
ENDCHAR
STARTCHAR Lcaron
ENCODING 317
SWIDTH 714 0
DWIDTH 23 0
BBX 22 27 0 -3
BITMAP
48888887488306CFDA89A4
2BFFFFFFFF8008FFFFFFF7
02EFFFFFF80008FFFFFFF8
00BFFFFFE20009FFFFFFF9
00CFFFFF80000AFFFFFFFA
009FFFFFC0000AFFFFFFF9
005FFFFFE0000BFFFFFFF9
005FFFFFA0000BFFFFFFF9
005FFFFF90000BFFFFFFF8
005FFFFF900004857ADFF8
003FFFFF6000000000CFF6
001DFFFF8000000000FFF4
000BFFFFA000000002FFF2
000BFFFFA000000005FFE0
000BFFFFA000000006FFC0
0009FFFFA0000000049960
0004FFFFA0000000000000
0003FFFF80000000000000
0004FFFFC0000000000000
0002FFFFF6521630000000
0000EFFFFFFFFE10000000
0000CFFFFFFFFE00000000
00009FFFFFFFFB00000000
00004FFFDCFFF900000000
00000B6897BFF700000000
000003047304B100000000
0000000000022000000000
ENDCHAR
STARTCHAR lcaron
ENCODING 318
SWIDTH 782 0
DWIDTH 25 0
BBX 24 27 0 -3
BITMAP
0004788889DDC104CFDB99B6
29EFFFFFFFF81005FFFFFFFA
01CFFFFFFFA00006FFFFFFFB
006FFFFFFF200006FFFFFFFC
002FFFFFF9000007FFFFFFFD
001FFFFFFD000007FFFFFFFC
000CFFFFFC000008FFFFFFFC
000CFFFFFA000008FFFFFFFC
0009FFFFF7000009FFFFFFFB
0009FFFFF80000028669DFFB
0006FFFFF900000000009FF9
0003FFFFF80000000000CFF7
00009FFFF80000000000FFF4
00008FFFF70000000002FFF2
00008FFFF60000000003FFF0
00008FFFF500000000029970
00006FFFF400000000000000
00005FFFF500000000000000
00003FFFF500000000000000
00002FFFFE85355000000000
00000FFFFFFFFFA000000000
00000DFFFFFFFF5000000000
00000BFFFFFFFF1000000000
00000AFFF6DFFD0000000000
000008B2417DFA0000000000
000006800003C40000000000
000001100000200000000000
ENDCHAR
STARTCHAR Ldotaccent
ENCODING 319
SWIDTH 567 0
DWIDTH 18 0
BBX 20 27 0 -3
BITMAP
48888887488200000000
2BFFFFFFFF8000000000
02EFFFFFF80000000000
00CFFFFFE20000000000
00CFFFFF800000000000
009FFFFFB01488BDEEB5
005FFFFFD02DFFFFFFF8
005FFFFFA00AFFFFFFF8
005FFFFF9008FFFFFFF6
005FFFFF9007FFFFFFF9
003FFFFF6006FFFFFFFA
001DFFFF8004FFFFFFF9
000BFFFF9004FFFFFFF8
000BFFFFA003FFFFFFF7
000BFFFFA003DBA65673
0009FFFFA00000000000
0004FFFF900000000000
0004FFFF800000000000
0004FFFFB00000000000
0002FFFFF65216300000
0000FFFFFFFFFE100000
0000CFFFFFFFFE000000
00009FFFFFFFFB000000
00005FFFDCFFF8000000
00000B6897BFF7000000
000003047304B0000000
00000000000220000000
ENDCHAR
STARTCHAR ldot
ENCODING 320
SWIDTH 660 0
DWIDTH 21 0
BBX 23 27 0 -3
BITMAP
0004788889DDC10000000000
29EFFFFFFFF8100000000000
01CFFFFFFFA0000000000000
006FFFFFFF20000000000000
002FFFFFF900000000000000
001FFFFFFD00000000000000
000CFFFFFC00000000220000
000CFFFFFA0006ABCFFFFB00
0009FFFFF70007FFFFFFFE00
0009FFFFF80004FFFFFFFD00
0006FFFFF90002FFFFFFFB00
0003FFFFF80001FFFFFFFF10
00009FFFF80000FFFFFFFF10
00008FFFF70000DFFFFFFF00
00008FFFF60000DFFFFFFE00
00008FFFF50000CFFFFFFD00
00006FFFF400008984225300
00005FFFF500000000000000
00003FFFF500000000000000
00002FFFFE85355000000000
00000FFFFFFFFFA000000000
00000DFFFFFFFF5000000000
00000BFFFFFFFF1000000000
00000AFFF6DFFD0000000000
000008B2417DFA0000000000
000006800003C40000000000
000001100000200000000000
ENDCHAR
STARTCHAR Lslash
ENCODING 321
SWIDTH 428 0
DWIDTH 14 0
BBX 15 27 0 -3
BITMAP
2788888748820000
06FFFFFFFF800000
009FFFFFF8000000
004FFFFFE2000000
005FFFFF80000000
002FFFFFB0000000
000DFFFFD0002600
000DFFFFA02BFC00
000DFFFFCDFFFD00
000DFFFFFFFFFF10
002DFFFFFFFFFF60
4BFFFFFFFFFFFFC0
8FFFFFFFFFFFFC90
2FFFFFFFFFE82000
0CFFFFFFD6100000
06FFFFFFA0000000
01D8EFFF90000000
0000CFFF80000000
0000CFFFB0000000
0000AFFFF6521630
00008FFFFFFFFF10
00006FFFFFFFFE00
00003FFFFFFFFB00
00000EFFDCFFF800
0000077798BFF700
000002137304B000
0000000000022000
ENDCHAR
STARTCHAR lslash
ENCODING 322
SWIDTH 457 0
DWIDTH 15 0
BBX 17 27 0 -3
BITMAP
000268887ABDD40000
17DFFFFFFFFB300000
008FFFFFFFE0000000
003DFFFFFF60000000
000DFFFFFD00000000
000CFFFFFF20002000
0007FFFFFF204AE000
0008FFFFFE4AEFF000
0004FFFFFFFFFFF200
0004FFFFFFFFFFF700
0006FFFFFFFFFFFD00
06CFFFFFFFFFFFEE20
4FFFFFFFFFFFFA3100
0DFFFFFFFFFA200000
07FFFFFFFC20000000
01FFFFFFF900000000
00AEAFFFF900000000
00011EFFF900000000
00000EFFFA00000000
00000CFFFFA6455200
00000AFFFFFFFFD100
000009FFFFFFFF9000
000007FFFFFFFF6000
000005FFFAAFFF2000
000004D3325AFE0000
000002C00001C60000
000000200000200000
ENDCHAR
STARTCHAR Nacute
ENCODING 323
SWIDTH 610 0
DWIDTH 20 0
BBX 21 40 0 -6
BITMAP
0000000000000000020000
00000000000000007E2000
0000000000000009FF9000
00000000000001BFFFC000
0000000000002CFFFFFA20
000000000005EFFFFFFF90
00000000007FFFFFEA6100
00000000008FFC84000000
0000000000272000000000
0000000000000000000000
0001234580397420000000
09FFFFFFE01EFFFFD95000
1CFFFFFFF10AFFFFFC1000
018FFFFFF408FFFFE20000
004FFFFFFB07FFFF700000
002FFFFFFE26FFFF600000
002FFFFFFF77FFFF500000
000FFFFFFFC7FFFF400000
000EFFFFFFFAFFFF200000
000DFFFFFFFFFFFF000000
000BFFFFFFFFFFFD000000
0009FFFFFFFFFFFA000000
0008FFFFFFFFFFF8000000
0005FFFFFFFFFFF6000000
0003FFFFFFFFFFF4000000
0000EFFFFFFFFFF3000000
0000CFFFAFFFFFF2000000
00008FFF7FFFFFF1000000
00007FFF6BFFFFF0000000
00006FFF46FFFFF0000000
00005FFF64FFFFE0000000
00004FFF60DFFFD0000000
00003FFF708FFF90000000
00002FFF806FFF80000000
00001FFF902FFC80000000
00000D93900DD840000000
00000B0070065400000000
00000A0070060000000000
0000080080050000000000
0000000010000000000000
ENDCHAR
STARTCHAR nacute
ENCODING 324
SWIDTH 664 0
DWIDTH 21 0
BBX 22 38 0 -4
BITMAP
0000000000000000002000
000000000000000007E200
00000000000000009FF900
000000000000001BFFFB00
00000000000002DFFFFFA2
0000000000005EFFFFFFF9
000000000007FFFFFEA610
000000000008FFC8400000
0000000000027200000000
0000000000000000000000
245679AA89007643334440
1EFFFFFFFD009FFFFFFF60
07FFFFFFFF306FFFFFFC00
01EFFFFFFF502FFFFFF400
007FFFFFFFC01FFFFFC000
005FFFFFFFF22FFFFF7000
004FFFFFFFF64FFFFF3000
003FFFFFFFFA6FFFFE0000
003FFFFFFFFE8FFFFC0000
002FFFFFFFFFEFFFFA0000
000FFFFFFFFFFFFFF80000
000EFFFFFFFFFFFFF60000
000CFFFFFFFFFFFFF40000
000AFFFFFFFFFFFFF20000
0008FFFFFFFFFFFFF00000
0005FFFFEFFFFFFFC00000
0001EFFF8FFFFFFF900000
0000EFFF7DFFFFFF600000
0000EFFF68FFFFFF500000
0000CFFF34FFFFFF100000
0000AFFF61EFFFFC000000
00009FFF40EFFFFB000000
00007FFF408FFFF4000000
00006FFF407FFFF0000000
00004FFE405FFDC0000000
00002A90303CC880000000
0000000000030850000000
0000000000000100000000
ENDCHAR
STARTCHAR Ncommaaccent
ENCODING 325
SWIDTH 610 0
DWIDTH 20 0
BBX 19 45 0 -21
BITMAP
00012345803974200000
09FFFFFFE01EFFFFD950
1CFFFFFFF10AFFFFFC10
018FFFFFF408FFFFE200
004FFFFFFB07FFFF7000
002FFFFFFE26FFFF6000
002FFFFFFF77FFFF5000
000FFFFFFFC7FFFF4000
000EFFFFFFFAFFFF2000
000DFFFFFFFFFFFF0000
000BFFFFFFFFFFFD0000
0009FFFFFFFFFFFA0000
0008FFFFFFFFFFF80000
0005FFFFFFFFFFF60000
0003FFFFFFFFFFF40000
0000EFFFFFFFFFF30000
0000CFFFAFFFFFF20000
00008FFF7FFFFFF10000
00007FFF6BFFFFF00000
00006FFF46FFFFF00000
00005FFF64FFFFE00000
00004FFF60DFFFD00000
00003FFF708FFF900000
00002FFF806FFF800000
00001FFF902FFC800000
00000D93900DD8400000
00000B00700654000000
00000A00700600000000
00000800800500000000
00000000100000000000
00000000000000000000
00000006CEC98B800000
00000007FFFFFFD00000
00000008FFFFFFE00000
00000009FFFFFFF00000
00000009FFFFFFF10000
0000000AFFFFFFF00000
0000000BFFFFFFF00000
00000008ECEFFFF00000
000000000006FFD00000
000000000007FFB00000
00000000000AFF900000
00000000000DFF600000
00000000000FFF400000
00000000000EDD200000
ENDCHAR
STARTCHAR ncommaaccent
ENCODING 326
SWIDTH 664 0
DWIDTH 21 0
BBX 21 44 0 -20
BITMAP
245679AA89007643334440
1EFFFFFFFD009FFFFFFF60
07FFFFFFFF306FFFFFFC00
01EFFFFFFF502FFFFFF400
007FFFFFFFC01FFFFFC000
005FFFFFFFF22FFFFF7000
004FFFFFFFF64FFFFF3000
003FFFFFFFFA6FFFFE0000
003FFFFFFFFE8FFFFC0000
002FFFFFFFFFEFFFFA0000
000FFFFFFFFFFFFFF80000
000EFFFFFFFFFFFFF60000
000CFFFFFFFFFFFFF40000
000AFFFFFFFFFFFFF20000
0008FFFFFFFFFFFFF00000
0005FFFFEFFFFFFFC00000
0001EFFF8FFFFFFF900000
0000EFFF7DFFFFFF600000
0000EFFF68FFFFFF500000
0000CFFF34FFFFFF100000
0000AFFF61EFFFFC000000
00009FFF40EFFFFB000000
00007FFF408FFFF4000000
00006FFF407FFFF0000000
00004FFE405FFDC0000000
00002A90303CC880000000
0000000000030850000000
0000000000000100000000
0000000000000000000000
0000000000000000000000
000000008DEC98B6000000
00000000AFFFFFFB000000
00000000BFFFFFFC000000
00000000BFFFFFFD000000
00000000CFFFFFFD000000
00000000DFFFFFFC000000
00000000DFFFFFFC000000
00000000BECFFFFD000000
0000000000008FFB000000
000000000000AFF9000000
000000000000DFF6000000
000000000001FFF4000000
000000000002FFF2000000
000000000002EDC0000000
ENDCHAR
STARTCHAR Ncaron
ENCODING 327
SWIDTH 610 0
DWIDTH 20 0
BBX 19 43 0 -6
BITMAP
00005D30000001C60000
000AFFD100000BFF6000
000BFFFB00006FFFF300
0005FFFF4001EFFFC000
0000DFFFB00AFFFF4000
00006FFFF54FFFFC0000
00001EFFFDEFFFF40000
000008FFFFFFFFB00000
000002FFFFFFFF400000
000000AFFFFFFB000000
0000003FFFFFF3000000
00000004312450000000
00000000000000000000
00012345803974200000
09FFFFFFE01EFFFFD950
1CFFFFFFF10AFFFFFC10
018FFFFFF408FFFFE200
004FFFFFFB07FFFF7000
002FFFFFFE26FFFF6000
002FFFFFFF77FFFF5000
000FFFFFFFC7FFFF4000
000EFFFFFFFAFFFF2000
000DFFFFFFFFFFFF0000
000BFFFFFFFFFFFD0000
0009FFFFFFFFFFFA0000
0008FFFFFFFFFFF80000
0005FFFFFFFFFFF60000
0003FFFFFFFFFFF40000
0000EFFFFFFFFFF30000
0000CFFFAFFFFFF20000
00008FFF7FFFFFF10000
00007FFF6BFFFFF00000
00006FFF46FFFFF00000
00005FFF64FFFFE00000
00004FFF60DFFFD00000
00003FFF708FFF900000
00002FFF806FFF800000
00001FFF902FFC800000
00000D93900DD8400000
00000B00700654000000
00000A00700600000000
00000800800500000000
00000000100000000000
ENDCHAR
STARTCHAR ncaron
ENCODING 328
SWIDTH 664 0
DWIDTH 21 0
BBX 21 41 0 -4
BITMAP
000002C600000009A00000
00006EFF5000007FFB0000
00007FFFE10002FFFF8000
00001EFFF8000BFFFF2000
000008FFFE105FFFF90000
000002FFFFA1EFFFF20000
000000AFFFFCFFFF900000
0000003FFFFFFFFE200000
0000000CFFFFFFF8000000
00000005FFFFFFE1000000
00000000DFFFFF80000000
0000000033223610000000
0000000000000000000000
245679AA89007643334440
1EFFFFFFFD009FFFFFFF60
07FFFFFFFF306FFFFFFC00
01EFFFFFFF502FFFFFF400
007FFFFFFFC01FFFFFC000
005FFFFFFFF22FFFFF7000
004FFFFFFFF64FFFFF3000
003FFFFFFFFA6FFFFE0000
003FFFFFFFFE8FFFFC0000
002FFFFFFFFFEFFFFA0000
000FFFFFFFFFFFFFF80000
000EFFFFFFFFFFFFF60000
000CFFFFFFFFFFFFF40000
000AFFFFFFFFFFFFF20000
0008FFFFFFFFFFFFF00000
0005FFFFEFFFFFFFC00000
0001EFFF8FFFFFFF900000
0000EFFF7DFFFFFF600000
0000EFFF68FFFFFF500000
0000CFFF34FFFFFF100000
0000AFFF61EFFFFC000000
00009FFF40EFFFFB000000
00007FFF408FFFF4000000
00006FFF407FFFF0000000
00004FFE405FFDC0000000
00002A90303CC880000000
0000000000030850000000
0000000000000100000000
ENDCHAR
STARTCHAR Omacron
ENCODING 332
SWIDTH 504 0
DWIDTH 16 0
BBX 16 33 0 -3
BITMAP
0023331011023000
00AFFFEFFFEFF100
00BFFFFFFFFFF100
00CFFFFFFFFFE000
00249BB79879A000
0000000000000000
0000016775200000
00019FFFFFEA5100
001DFFFFFFFFF700
01CFFFFFFFFFFF90
08FFFFFFFFFFFFF1
0EFFFFFFFFFFFFF0
2FFFFFFFFFFFFFF1
0EFFFFFFFFFFFFF5
0DFFFFFFFFFFFFF0
0CFFFFFFFFFFFFF1
0AFFFFFBAFFFFFF3
08FFFFE11EFFFFF4
05FFFFB00AFFFFF4
02FFFF9009FFFFF3
00FFFF7007FFFFF2
00EFFF9006FFFFF0
00DFFFA006FFFF90
00AFFFC007FFFF40
007FFFE00CFFFF20
003FFFF20CFFFE10
000FFFF93FFFF900
002FFFFFFFFFF600
000AFFFFFFFFD100
0001AFFFFFFF7000
000006F63FDA4000
000000C10F461000
000000200A100000
ENDCHAR
STARTCHAR omacron
ENCODING 333
SWIDTH 545 0
DWIDTH 17 0
BBX 17 34 0 -3
BITMAP
000333300100220000
000EFFFEFFFEFB0000
000FFFFFFFFFFB0000
001FFFFFFFFFF90000
00044ABB6986B60000
000000000000000000
000000000000000000
000002688777100000
00019FFFFFFFE60000
001CFFFFFFFFFFA100
00CFFFFFFFFFFFF500
07FFFFFFFFFFFFFF60
0DFFFFFFFFFFFFFF90
1FFFFFFFFFFFFFFF80
1EFFFFFFFFFFFFFF90
1DFFFFFFFFFFFFFFC0
0AFFFFFFFFFFFFFFA0
09FFFFFF9DFFFFFFA0
07FFFFF904FFFFFFB0
05FFFFF301FFFFFF80
03FFFFF100FFFFFF60
01FFFFF100DFFFFF30
00EFFFF100BFFFFE00
00BFFFF100DFFFFA00
008FFFF100EFFFF600
004FFFF603FFFFF100
001FFFF906FFFFB000
000CFFFE1AFFFF6000
0009FFFFFFFFFF5000
0004FFFFFFFFFC0000
000086EFFFFFF40000
000000581CFDD00000
000000000890A00000
000000000000400000
ENDCHAR
STARTCHAR Obreve
ENCODING 334
SWIDTH 504 0
DWIDTH 16 0
BBX 16 38 0 -3
BITMAP
004AAA6000010000
003FFF90001FEDB0
000DFFB0004FFFB0
0009FFF600BFFF50
0007FFFFFEFFFF30
0003FFFFFFFFFA00
000066DFFFFFE200
0000006A0CFCB000
0000000007919000
0000000000004000
0000000000000000
0000016775200000
00019FFFFFEA5100
001DFFFFFFFFF700
01CFFFFFFFFFFF90
08FFFFFFFFFFFFF1
0EFFFFFFFFFFFFF0
2FFFFFFFFFFFFFF1
0EFFFFFFFFFFFFF5
0DFFFFFFFFFFFFF0
0CFFFFFFFFFFFFF1
0AFFFFFBAFFFFFF3
08FFFFE11EFFFFF4
05FFFFB00AFFFFF4
02FFFF9009FFFFF3
00FFFF7007FFFFF2
00EFFF9006FFFFF0
00DFFFA006FFFF90
00AFFFC007FFFF40
007FFFE00CFFFF20
003FFFF20CFFFE10
000FFFF93FFFF900
002FFFFFFFFFF600
000AFFFFFFFFD100
0001AFFFFFFF7000
000006F63FDA4000
000000C10F461000
000000200A100000
ENDCHAR
STARTCHAR obreve
ENCODING 335
SWIDTH 545 0
DWIDTH 17 0
BBX 17 38 0 -3
BITMAP
001AAA900001000000
000DFFE0000BFDC300
0008FFF1000EFFF100
0005FFFA107FFFA000
0003FFFFFEFFFF7000
0000DFFFFFFFFE1000
000046BFFFFFF60000
0000002D17FDE00000
0000000103C2900000
000000000000400000
000000000000000000
000002688777100000
00019FFFFFFFE60000
001CFFFFFFFFFFA100
00CFFFFFFFFFFFF500
07FFFFFFFFFFFFFF60
0DFFFFFFFFFFFFFF90
1FFFFFFFFFFFFFFF80
1EFFFFFFFFFFFFFF90
1DFFFFFFFFFFFFFFC0
0AFFFFFFFFFFFFFFA0
09FFFFFF9DFFFFFFA0
07FFFFF904FFFFFFB0
05FFFFF301FFFFFF80
03FFFFF100FFFFFF60
01FFFFF100DFFFFF30
00EFFFF100BFFFFE00
00BFFFF100DFFFFA00
008FFFF100EFFFF600
004FFFF603FFFFF100
001FFFF906FFFFB000
000CFFFE1AFFFF6000
0009FFFFFFFFFF5000
0004FFFFFFFFFC0000
000086EFFFFFF40000
000000581CFDD00000
000000000890A00000
000000000000400000
ENDCHAR
STARTCHAR Ohungarumlaut
ENCODING 336
SWIDTH 504 0
DWIDTH 16 0
BBX 17 40 0 -3
BITMAP
000010000001000000
00009C300008C30000
0001EFE5000EFB8410
0007FFFF404FFFFF70
000DFFFF50AFFFFA00
004FFFF601FFFFB000
00AFFF8006FFFB1000
02FFFA000CFFC10000
09FFB0003FFD100000
1FFC10009FE1000000
0CD100007F30000000
012000000200000000
000000000000000000
000001677520000000
00019FFFFFEA510000
001DFFFFFFFFF70000
01CFFFFFFFFFFF9000
08FFFFFFFFFFFFF100
0EFFFFFFFFFFFFF000
2FFFFFFFFFFFFFF100
0EFFFFFFFFFFFFF500
0DFFFFFFFFFFFFF000
0CFFFFFFFFFFFFF100
0AFFFFFBAFFFFFF300
08FFFFE11EFFFFF400
05FFFFB00AFFFFF400
02FFFF9009FFFFF300
00FFFF7007FFFFF200
00EFFF9006FFFFF000
00DFFFA006FFFF9000
00AFFFC007FFFF4000
007FFFE00CFFFF2000
003FFFF20CFFFE1000
000FFFF93FFFF90000
002FFFFFFFFFF60000
000AFFFFFFFFD10000
0001AFFFFFFF700000
000006F63FDA400000
000000C10F46100000
000000200A10000000
ENDCHAR
STARTCHAR ohungarumlaut
ENCODING 337
SWIDTH 545 0
DWIDTH 17 0
BBX 18 40 0 -3
BITMAP
000001000000100000
00000DA10000DA1000
00005FFC2003FF9830
0000BFFFD209FFFFF3
0002FFFFD20EFFFF60
0008FFFE305FFFF700
001EFFF400BFFF8000
006FFF5001FFF90000
01DFF70007FFA00000
05FF80000DFA000000
03EA00000BD1000000
002000000120000000
000000000000000000
000002688777100000
00019FFFFFFFE60000
001CFFFFFFFFFFA100
00CFFFFFFFFFFFF500
07FFFFFFFFFFFFFF60
0DFFFFFFFFFFFFFF90
1FFFFFFFFFFFFFFF80
1EFFFFFFFFFFFFFF90
1DFFFFFFFFFFFFFFC0
0AFFFFFFFFFFFFFFA0
09FFFFFF9DFFFFFFA0
07FFFFF904FFFFFFB0
05FFFFF301FFFFFF80
03FFFFF100FFFFFF60
01FFFFF100DFFFFF30
00EFFFF100BFFFFE00
00BFFFF100DFFFFA00
008FFFF100EFFFF600
004FFFF603FFFFF100
001FFFF906FFFFB000
000CFFFE1AFFFF6000
0009FFFFFFFFFF5000
0004FFFFFFFFFC0000
000086EFFFFFF40000
000000581CFDD00000
000000000890A00000
000000000000400000
ENDCHAR
STARTCHAR OE
ENCODING 338
SWIDTH 789 0
DWIDTH 25 0
BBX 25 29 0 -5
BITMAP
00000167754567888765310000
00019FFFFFFFFFFFFFFFFFDA10
002DFFFFFFFFFFFFFFFFFFFA00
01CFFFFFFFFFFFFFFFFFFFF300
08FFFFFFFFFFFFFFFFFFFFB000
0EFFFFFFFFFFFFFFFFFFFF6000
2FFFFFFFFFFFFFFFFFFFFF1000
1EFFFFFFFFFFFFFFFFFFFB0000
0DFFFFFFFFFFFFFFFFFFF70000
0CFFFFFFFFFFFFFFFFFFF60000
0BFFFFFBAFFFFFFB9CFFF50000
08FFFFE11EFFFFF70015820000
06FFFFB00AFFFFF70000000000
03FFFF9009FFFFFB9983000000
01FFFF7007FFFFFFFFFA000000
00FFFF9007FFFFFFFFF9000000
00DFFFA007FFFFFFFFF7000000
00CFFFC007FFFFFDBBC5000000
008FFFD00CFFFFF30000000000
004FFFF20DFFFFF41100000000
001FFFF93FFFFFFDFFFB300000
002FFFFFFFFFFFFFFFFE100000
000AFFFFFFFFFCFFFFFB000000
0002AFFFFFFF80AFFABA000000
000006F74FDB50ACC039000000
000000D10F4720A63037000000
000000C00F2600A50062000000
000000800E1100A40092000000
00000000020000810030000000
ENDCHAR
STARTCHAR oe
ENCODING 339
SWIDTH 778 0
DWIDTH 25 0
BBX 24 27 0 -3
BITMAP
000003798674345665420000
0001AFFFFFFFFFFFFFFFFDA6
002DFFFFFFFFFFFFFFFFFFF4
00CFFFFFFFFFFFFFFFFFFFA0
07FFFFFFFFFFFFFFFFFFFF30
0DFFFFFFFFFFFFFFFFFFFB00
2FFFFFFFFFFFFFFFFFFFF700
1FFFFFFFFFFFFFFFFFFFF400
1CFFFFFFFFFFFFFFFFFFF200
0AFFFFFFFFFFFFFFFFFFF100
07FFFFFE8EFFFFFFFFFFD000
04FFFFF509FFFFFC57BEA000
01FFFFE006FFFFF900013000
00EFFFD005FFFFF800000000
00BFFFC003FFFFFDBBB00000
008FFFC001FFFFFFFFF10000
005FFFD003FFFFFFFFF10000
003FFFD005FFFFFFFFE00000
000FFFF108FFFFF99AA00000
000DFFF50AFFFFC000100000
000BFFFA2EFFFFC320000000
000AFFFFFFFFFFDCFFE80000
0005FFFFFFFFFFFFFFF60000
000087FFFFFFFFFFFFF30000
000000B42FFD92CFDBE20000
000000000B46302200820000
000000000002100000200000
ENDCHAR
STARTCHAR Racute
ENCODING 340
SWIDTH 599 0
DWIDTH 19 0
BBX 21 36 0 -2
BITMAP
0000000000000000110000
0000000000000001CB0000
000000000000003DFF3000
00000000000004EFFF6000
0000000000006FFFFFE610
000000000019FFFFFFFE40
0000000000DFFFFFD84000
0000000000EFEA72000000
0000000000551000000000
0000000000000000000000
00001179AA965600000000
27AEFEFFFFFFFFC4000000
1BFFFFFFFFFFFFFFB10000
00DFFFFFFFFFFFFFFC1000
001EFFFFFFFFFFFFFF5000
0008FFFFFFFFFFFFFF6000
0002EFFFFFFFFFFFFF7000
0000DFFFFFFFFFFFFF6000
0000CFFFFFFFFFFFFF5000
0000CFFFFFFFFFFFFF4000
0000BFFFFB12CFFFFF3000
0000AFFFFC002FFFFF2000
00008FFFFB004FFFFF0000
00003FFFFD007FFFFC0000
00001DFFFFBAFFFFF60000
00000EFFFFFFFFFFF10000
000009FFFFFFFFFFD00000
000006FFFFFFFFFA100000
000004FFFE7AFFFC000000
000004FFFF06FFFF300000
000003FFFE02FFFF500000
000000FFFF13FFFF600000
000000EFFF20FFFF200000
000000DFFF30EFFF800000
0000009AB4406DDFB00000
0000001180300837700000
ENDCHAR
STARTCHAR racute
ENCODING 341
SWIDTH 616 0
DWIDTH 20 0
BBX 21 37 0 -3
BITMAP
0000000000000000020000
00000000000000007E2000
0000000000000009FF9000
00000000000001BFFFB000
0000000000002DFFFFFA20
000000000005EFFFFFFF90
00000000007FFFFFEA6100
00000000008FFC84000000
0000000000272000000000
0000000000000000000000
0000116989755300000000
289BFFFFFFFFFFD8200000
0BFFFFFFFFFFFFFFF91000
01CFFFFFFFFFFFFFFFB000
002EFFFFFFFFFFFFFFF100
0005FFFFFFFFFFFFFFF100
0000FFFFFFFFFFFFFFF000
0000DFFFFFFFFFFFFFD000
0000CFFFFFFFFFFFFFA000
0000BFFFFFFFFFFFFF7000
00009FFFFF63BFFFFF4000
00007FFFFF001EFFFF1000
00005FFFFE001FFFFD0000
00005FFFFF004FFFFB0000
00006FFFFFB8CFFFF90000
00002FFFFFFFFFFFF50000
00000EFFFFFFFFFFC00000
00000CFFFFFFFFFE600000
00000DFFFEDEFFF5000000
00000AFFFE0AFFF7000000
00000CFFFC09FFF9000000
00000AFFFF18FFF8000000
00000AFFFE05FFF8000000
00000AFFFD07FFF9000000
000009FFB905FFFA000000
00000753010057EC000000
0000000000000026000000
ENDCHAR
STARTCHAR Rcommaaccent
ENCODING 342
SWIDTH 599 0
DWIDTH 19 0
BBX 19 42 0 -18
BITMAP
00001179AA9656000000
27AEFEFFFFFFFFC40000
1BFFFFFFFFFFFFFFB100
00DFFFFFFFFFFFFFFC10
001EFFFFFFFFFFFFFF50
0008FFFFFFFFFFFFFF60
0002EFFFFFFFFFFFFF70
0000DFFFFFFFFFFFFF60
0000CFFFFFFFFFFFFF50
0000CFFFFFFFFFFFFF40
0000BFFFFB12CFFFFF30
0000AFFFFC002FFFFF20
00008FFFFB004FFFFF00
00003FFFFD007FFFFC00
00001DFFFFBAFFFFF600
00000EFFFFFFFFFFF100
000009FFFFFFFFFFD000
000006FFFFFFFFFA1000
000004FFFE7AFFFC0000
000004FFFF06FFFF3000
000003FFFE02FFFF5000
000000FFFF13FFFF6000
000000EFFF20FFFF2000
000000DFFF30EFFF8000
0000009AB4406DDFB000
00000011803008377000
00000000000000000000
00000000000000000000
0000002CEDA8AA200000
0000003FFFFFFF300000
0000003FFFFFFF400000
0000004FFFFFFF500000
0000005FFFFFFF500000
0000005FFFFFFF500000
0000006FFFFFFF400000
0000004EDDFFFF500000
00000000001FFF300000
00000000002FFF100000
00000000006FFD000000
00000000008FFB000000
0000000000AFF9000000
00000000009DD6000000
ENDCHAR
STARTCHAR rcommaaccent
ENCODING 343
SWIDTH 616 0
DWIDTH 20 0
BBX 20 43 0 -19
BITMAP
00001169897553000000
289BFFFFFFFFFFD82000
0BFFFFFFFFFFFFFFF910
01CFFFFFFFFFFFFFFFB0
002EFFFFFFFFFFFFFFF1
0005FFFFFFFFFFFFFFF1
0000FFFFFFFFFFFFFFF0
0000DFFFFFFFFFFFFFD0
0000CFFFFFFFFFFFFFA0
0000BFFFFFFFFFFFFF70
00009FFFFF63BFFFFF40
00007FFFFF001EFFFF10
00005FFFFE001FFFFD00
00005FFFFF004FFFFB00
00006FFFFFB8CFFFF900
00002FFFFFFFFFFFF500
00000EFFFFFFFFFFC000
00000CFFFFFFFFFE6000
00000DFFFEDEFFF50000
00000AFFFE0AFFF70000
00000CFFFC09FFF90000
00000AFFFF18FFF80000
00000AFFFE05FFF80000
00000AFFFD07FFF90000
000009FFB905FFFA0000
00000753010057EC0000
00000000000000260000
00000000000000000000
00000000000000000000
00000008DEB99B600000
0000000BFFFFFFA00000
0000000CFFFFFFB00000
0000000CFFFFFFC00000
0000000DFFFFFFC00000
0000000EFFFFFFB00000
0000000EFFFFFFB00000
0000000CECFFFFC00000
000000000009FFA00000
00000000000BFF800000
00000000000EFF500000
00000000001FFF300000
00000000003FFF100000
00000000003EDB000000
ENDCHAR
STARTCHAR Rcaron
ENCODING 344
SWIDTH 599 0
DWIDTH 19 0
BBX 19 39 0 -2
BITMAP
000009B10000004D3000
0002CFFA000002EFE300
0001FFFF60000BFFFD00
00009FFFD0005FFFF700
00003FFFF601EFFFE100
00000BFFFE19FFFF7000
000004FFFFCFFFFE1000
000000DFFFFFFFF70000
0000006FFFFFFFD00000
0000000EFFFFFF600000
00000008FFFFFD000000
00000001431253000000
00000000000000000000
00001179AA9656000000
27AEFEFFFFFFFFC40000
1BFFFFFFFFFFFFFFB100
00DFFFFFFFFFFFFFFC10
001EFFFFFFFFFFFFFF50
0008FFFFFFFFFFFFFF60
0002EFFFFFFFFFFFFF70
0000DFFFFFFFFFFFFF60
0000CFFFFFFFFFFFFF50
0000CFFFFFFFFFFFFF40
0000BFFFFB12CFFFFF30
0000AFFFFC002FFFFF20
00008FFFFB004FFFFF00
00003FFFFD007FFFFC00
00001DFFFFBAFFFFF600
00000EFFFFFFFFFFF100
000009FFFFFFFFFFD000
000006FFFFFFFFFA1000
000004FFFE7AFFFC0000
000004FFFF06FFFF3000
000003FFFE02FFFF5000
000000FFFF13FFFF6000
000000EFFF20FFFF2000
000000DFFF30EFFF8000
0000009AB4406DDFB000
00000011803008377000
ENDCHAR
STARTCHAR rcaron
ENCODING 345
SWIDTH 616 0
DWIDTH 20 0
BBX 20 40 0 -3
BITMAP
00001AA00000006C1000
0003DFF8000003FFD200
0003FFFF40000DFFFB00
0000BFFFC0007FFFF500
00005FFFF402EFFFD000
00000DFFFD1BFFFF5000
000006FFFFCFFFFC0000
000001EFFFFFFFF50000
0000008FFFFFFFC00000
0000002FFFFFFF400000
0000000AFFFFFB000000
00000002431353000000
00000000000000000000
00001169897553000000
289BFFFFFFFFFFD82000
0BFFFFFFFFFFFFFFF910
01CFFFFFFFFFFFFFFFB0
002EFFFFFFFFFFFFFFF1
0005FFFFFFFFFFFFFFF1
0000FFFFFFFFFFFFFFF0
0000DFFFFFFFFFFFFFD0
0000CFFFFFFFFFFFFFA0
0000BFFFFFFFFFFFFF70
00009FFFFF63BFFFFF40
00007FFFFF001EFFFF10
00005FFFFE001FFFFD00
00005FFFFF004FFFFB00
00006FFFFFB8CFFFF900
00002FFFFFFFFFFFF500
00000EFFFFFFFFFFC000
00000CFFFFFFFFFE6000
00000DFFFEDEFFF50000
00000AFFFE0AFFF70000
00000CFFFC09FFF90000
00000AFFFF18FFF80000
00000AFFFE05FFF80000
00000AFFFD07FFF90000
000009FFB905FFFA0000
00000753010057EC0000
00000000000000260000
ENDCHAR
STARTCHAR Sacute
ENCODING 346
SWIDTH 504 0
DWIDTH 16 0
BBX 19 37 0 -3
BITMAP
00000000000000020000
000000000000009D1000
0000000000001BFF7000
000000000002CFFF9000
00000000003EFFFFF820
0000000007EFFFFFFF70
000000009FFFFFE95100
00000000BFFB83000000
00000000361000000000
00000000000000000000
00000004896100000000
00003AEFFFFE60000000
0009FFFFFFFFFB100000
009FFFFFFFFFFFB10000
00EFFFFFFFFFFFF80000
06FFFFFFFFFFFFF50000
0DFFFFFFFFFFFFF40000
0FFFFFFFFFFFFFF30000
1FFFFFFFFFFFFFF30000
3FFFFFFFFFFFFFF20000
3FFFFFFCAFFFFFF20000
2FFFFFF30BFFFFF10000
0EFFFFF505AA9CE20000
0BFFFFFE861000210000
04FFFFFFFFF910000000
008FFFFFFFFFC1000000
0006EFFFFFFFFB000000
000014BEFFFFFF200000
000000012EFFFF400000
019EEED409FFFF200000
02FFFFF61CFFFE000000
00BFFFFEDFFFF8000000
003FFFFFFFFFD0000000
000AFFFFFFFF70000000
0001BEC9CC7C10000000
00000240151500000000
00000000030000000000
ENDCHAR
STARTCHAR sacute
ENCODING 347
SWIDTH 481 0
DWIDTH 15 0
BBX 19 36 0 -2
BITMAP
00000000000000110000
00000000000001CB0000
0000000000002DFF3000
000000000004EFFF6000
00000000006FFFFFE610
0000000019FFFFFFFE40
00000000DFFFFFD84000
00000000EFEB72000000
00000000551000000000
00000000000000000000
00000277984000000000
00008FFFFFFD30000000
000AFFFFFFFFE4000000
008FFFFFFFFFFE300000
02FFFFFFFFFFFFC00000
09FFFFFFFFFFFF900000
0DFFFFFFFFFFFF700000
1FFFFFFFFFFFFF600000
2FFFFFFFFFFFFF500000
2FFFFFFFFFFFFF300000
2FFFFFFBEFFFFF200000
1FFFFFE06FFFFF100000
0DFFFFF00DFEFF000000
09FFFFF831015A100000
04FFFFFFFF9000000000
01DFFFFFFFFA00000000
002DFFFFFFFF40000000
00018AFFFFFF90000000
00000035CFFFD0000000
001577805FFFE0000000
01CFFFE13FFFB0000000
008FFFF7AFFF70000000
002EFFFFFFFD10000000
0008FFFFFFF700000000
0002EFFFFFF100000000
00004B64123000000000
ENDCHAR
STARTCHAR Scircumflex
ENCODING 348
SWIDTH 504 0
DWIDTH 16 0
BBX 17 40 0 -3
BITMAP
000000542355000000
000005FFFFFF200000
00000CFFFFFF900000
00004FFFFFFFF20000
0000AFFFFFFFFA0000
0002FFFFCEFFFF3000
0008FFFD14FFFFA000
001EFFE2007FFFF300
007FFF400009FFFB00
00DFF5000000BFFF10
01AF700000001CE400
000300000000012000
000000000000000000
000000048961000000
00003AEFFFFE600000
0009FFFFFFFFFB1000
009FFFFFFFFFFFB100
00EFFFFFFFFFFFF800
06FFFFFFFFFFFFF500
0DFFFFFFFFFFFFF400
0FFFFFFFFFFFFFF300
1FFFFFFFFFFFFFF300
3FFFFFFFFFFFFFF200
3FFFFFFCAFFFFFF200
2FFFFFF30BFFFFF100
0EFFFFF505AA9CE200
0BFFFFFE8610002100
04FFFFFFFFF9100000
008FFFFFFFFFC10000
0006EFFFFFFFFB0000
000014BEFFFFFF2000
000000012EFFFF4000
019EEED409FFFF2000
02FFFFF61CFFFE0000
00BFFFFEDFFFF80000
003FFFFFFFFFD00000
000AFFFFFFFF700000
0001BEC9CC7C100000
000002401515000000
000000000300000000
ENDCHAR
STARTCHAR scircumflex
ENCODING 349
SWIDTH 481 0
DWIDTH 15 0
BBX 16 39 0 -2
BITMAP
0000034324620000
00000CFFFFF90000
00004FFFFFFF2000
0000BFFFFFFFA000
0002FFFFFFFFF300
0009FFFFBFFFFA00
001FFFF70BFFFF30
007FFF9001DFFFB0
00EFFB00002EFFF3
06FFC0000004FFF9
04ED200000005FA0
0012000000000300
0000000000000000
0000027798400000
00008FFFFFFD3000
000AFFFFFFFFE400
008FFFFFFFFFFE30
02FFFFFFFFFFFFC0
09FFFFFFFFFFFF90
0DFFFFFFFFFFFF70
1FFFFFFFFFFFFF60
2FFFFFFFFFFFFF50
2FFFFFFFFFFFFF30
2FFFFFFBEFFFFF20
1FFFFFE06FFFFF10
0DFFFFF00DFEFF00
09FFFFF831015A10
04FFFFFFFF900000
01DFFFFFFFFA0000
002DFFFFFFFF4000
00018AFFFFFF9000
00000035CFFFD000
001577805FFFE000
01CFFFE13FFFB000
008FFFF7AFFF7000
002EFFFFFFFD1000
0008FFFFFFF70000
0002EFFFFFF10000
00004B6412300000
ENDCHAR
STARTCHAR Scedilla
ENCODING 350
SWIDTH 504 0
DWIDTH 16 0
BBX 16 35 0 -11
BITMAP
0000000489610000
00003AEFFFFE6000
0009FFFFFFFFFB10
009FFFFFFFFFFFB1
00EFFFFFFFFFFFF8
06FFFFFFFFFFFFF5
0DFFFFFFFFFFFFF4
0FFFFFFFFFFFFFF3
1FFFFFFFFFFFFFF3
3FFFFFFFFFFFFFF2
3FFFFFFCAFFFFFF2
2FFFFFF30BFFFFF1
0EFFFFF505AA9CE2
0BFFFFFE86100021
04FFFFFFFFF91000
008FFFFFFFFFC100
0006EFFFFFFFFB00
000014BEFFFFFF20
000000012EFFFF40
019EEED409FFFF20
02FFFFF61CFFFE00
00BFFFFEDFFFF800
003FFFFFFFFFD000
000AFFFFFFFF7000
0001BECAFFEC1000
00000245FF450000
0000000AFE000000
0000000EF4000000
0000003FFFCD6000
0000002DEFFF8000
0000000002FF7000
0000000001FF6000
000000179BFF6000
0000003FFFFF5000
0000001767993000
ENDCHAR
STARTCHAR scedilla
ENCODING 351
SWIDTH 481 0
DWIDTH 15 0
BBX 15 36 0 -12
BITMAP
0000027798400000
00008FFFFFFD3000
000AFFFFFFFFE400
008FFFFFFFFFFE30
02FFFFFFFFFFFFC0
09FFFFFFFFFFFF90
0DFFFFFFFFFFFF70
1FFFFFFFFFFFFF60
2FFFFFFFFFFFFF50
2FFFFFFFFFFFFF30
2FFFFFFBEFFFFF20
1FFFFFE06FFFFF10
0DFFFFF00DFEFF00
09FFFFF831015A10
04FFFFFFFF900000
01DFFFFFFFFA0000
002DFFFFFFFF4000
00018AFFFFFF9000
00000035CFFFD000
001577805FFFE000
01CFFFE13FFFB000
008FFFF7AFFF7000
002EFFFFFFFD1000
0008FFFFFFF70000
0002EFFFFFF10000
00004BAFF6300000
0000008FE1000000
000000CF90000000
000002FF20000000
000005FFFCD40000
000004DEFFF50000
000000004FF50000
000000003FF40000
00000279CFF30000
000005FFFFF30000
0000027679920000
ENDCHAR
STARTCHAR Scaron
ENCODING 352
SWIDTH 503 0
DWIDTH 16 0
BBX 16 44 0 -3
BITMAP
0004000000003100
019FA0000003ED20
0BFFF700000DFFD2
05FFFF20008FFFF4
00DFFF9002EFFFB0
007FFFF30AFFFF40
001EFFFB6FFFFB00
0009FFFFFFFFF300
0002FFFFFFFFB000
0000BFFFFFFF3000
00004FFFFFFA0000
00000BCBADF30000
0000000000000000
0000000000000000
0000000000000000
0000000000000000
0000000000000000
0000000489610000
000039EFFFFE6000
0009FFFFFFFFFB10
009FFFFFFFFFFFB1
00EFFFFFFFFFFFF7
06FFFFFFFFFFFFF4
0DFFFFFFFFFFFFF4
0FFFFFFFFFFFFFF3
1FFFFFFFFFFFFFF3
3FFFFFFFFFFFFFF2
3FFFFFFCAFFFFFF1
2FFFFFF30BFFFFF1
0EFFFFF505AA9CE2
0BFFFFFE86100021
04FFFFFFFFF80000
008FFFFFFFFFC100
0006EFFFFFFFFA00
000014BEFFFFFF20
000000012EFFFF40
019EEED309FFFF20
02FFFFF51CFFFE00
00BFFFFEDFFFF700
003FFFFFFFFFD000
000AFFFFFFFF7000
0001BEC9CC7C1000
0000024015150000
0000000003000000
ENDCHAR
STARTCHAR scaron
ENCODING 353
SWIDTH 479 0
DWIDTH 15 0
BBX 15 43 0 -2
BITMAP
0001000000001000
019D20000004E400
2DFFC000002EFF50
0DFFF80000BFFFE0
07FFFF1005FFFF80
01EFFF901DFFFE10
009FFFF38FFFF700
002FFFFDFFFFE100
000AFFFFFFFF7000
0004FFFFFFFE1000
0000CFFFFFF70000
00005FFFFFE10000
0000021013300000
0000000000000000
0000000000000000
0000000000000000
0000000000000000
0000027798400000
00008FFFFFFC2000
000AFFFFFFFFE300
008FFFFFFFFFFE30
02FFFFFFFFFFFFB0
09FFFFFFFFFFFF80
0EFFFFFFFFFFFF60
1FFFFFFFFFFFFF50
2FFFFFFFFFFFFF40
2FFFFFFFFFFFFF20
2FFFFFFBEFFFFF10
1FFFFFD06FFFFF00
0DFFFFE01DFEFE00
09FFFFF831015A10
05FFFFFFFE800000
01DFFFFFFFF90000
002DFFFFFFFF3000
00018AFFFFFF8000
00000036CFFFC000
001577706FFFD000
01CFFFE03FFFA000
008FFFF7AFFF6000
002EFFFFFFFD0000
0008FFFFFFF60000
0002EFFFFFE00000
00004B6412200000
ENDCHAR
STARTCHAR Tcommaaccent
ENCODING 354
SWIDTH 622 0
DWIDTH 20 0
BBX 18 37 1 -13
BITMAP
000245666665410000
9BFFFFFFFFFFFFDA74
3FFFFFFFFFFFFFFFF9
0BFFFFFFFFFFFFFFE2
06FFFFFFFFFFFFFF60
02FFFFFFFFFFFFFF50
00EFFFFFFFFFFFFF70
00BFFFFFFFFFFFFF50
00AFFFFFFFFFFFFF30
009FFFFFFFFFFFFF10
009FFFFFFFFFFFFE00
009FD9BFFFFF48CC00
0021002FFFFE000300
0000000EFFFF100000
0000000FFFFF100000
0000000EFFFF100000
0000002FFFFC000000
0000002FFFFE000000
0000001FFFFC000000
0000000FFFFA000000
0000000EFFFA000000
00000009FFFC000000
0000000AFFFC000000
0000000BFFFC000000
0000000BFFFC000000
0000000CFFCA000000
0000000CFFF7000000
00000006BFC0000000
00000001FF60000000
00000005FD00000000
00000008FFECD10000
00000007DFFFF20000
00000000007FF10000
00000000007FF00000
0000000489DFF00000
00000008FFFFF00000
000000037689800000
ENDCHAR
STARTCHAR tcommaaccent
ENCODING 355
SWIDTH 683 0
DWIDTH 22 0
BBX 21 37 0 -13
BITMAP
0000148AAAAAAAA9641000
15AEFFFFFFFFFFFFFFFC60
1CFFFFFFFFFFFFFFFFFF40
02FFFFFFFFFFFFFFFFFB00
009FFFFFFFFFFFFFFFF300
003FFFFFFFFFFFFFFFB000
000DFFFFFFFFFFFFFFC000
0009FFFFFFFFFFFFFFC000
0006FFFFFFFFFFFFFFA000
0004FFFFFFFFFFFFFF9000
0002FFFFFFFFFFEFFF7000
0001FFC88FFFFF569C5000
000172004FFFFF40011000
000000002FFFFF60000000
000000000FFFFF70000000
000000001EFFFF70000000
000000000EFFFF60000000
000000000DFFFF60000000
000000000BFFFF60000000
000000000AFFFF40000000
0000000009FFFF50000000
0000000004FFFF50000000
0000000004FFFF30000000
0000000005FFFF20000000
0000000004FFFF10000000
0000000004FFFF10000000
0000000002DFFF20000000
00000000006FF720000000
0000000000BFB110000000
0000000001FF3000000000
0000000003FFFCD5000000
0000000003DEFFF7000000
0000000000003FF6000000
0000000000002FF5000000
000000000279BFF5000000
0000000003FFFFF5000000
0000000001767992000000
ENDCHAR
STARTCHAR Tcaron
ENCODING 356
SWIDTH 622 0
DWIDTH 20 0
BBX 18 41 1 -4
BITMAP
0006D20000002D5000
01AFFD100000CFF500
00CFFFA00007FFFF20
006FFFF3002FFFFB00
000EFFFA00BFFFF300
0007FFFF45FFFFB000
0001FFFFDEFFFF3000
00009FFFFFFFFA0000
00002FFFFFFFF30000
00000BFFFFFFA00000
000004FFFFFF200000
000000431245000000
000000000000000000
000245666665410000
9BFFFFFFFFFFFFDA74
3FFFFFFFFFFFFFFFF9
0BFFFFFFFFFFFFFFE2
06FFFFFFFFFFFFFF60
02FFFFFFFFFFFFFF50
00EFFFFFFFFFFFFF70
00BFFFFFFFFFFFFF50
00AFFFFFFFFFFFFF30
009FFFFFFFFFFFFF10
009FFFFFFFFFFFFE00
009FD9BFFFFF48CC00
0021002FFFFE000300
0000000EFFFF100000
0000000FFFFF100000
0000000EFFFF100000
0000002FFFFC000000
0000002FFFFE000000
0000001FFFFC000000
0000000FFFFA000000
0000000EFFFA000000
00000009FFFC000000
0000000AFFFC000000
0000000BFFFC000000
0000000BFFFC000000
0000000CFFCA000000
0000000CAB36000000
000000060000000000
ENDCHAR
STARTCHAR tcaron
ENCODING 357
SWIDTH 622 0
DWIDTH 20 0
BBX 18 41 1 -4
BITMAP
00019B00000005D200
003DFF9000002EFD20
002FFFF50000CFFFC0
000AFFFD0006FFFF70
0004FFFF601EFFFD00
0000CFFFE1AFFFF600
00005FFFFCFFFFD000
00000DFFFFFFFF6000
000007FFFFFFFD0000
000001EFFFFFF50000
0000009FFFFFC00000
000000143135300000
000000000000000000
000245666665410000
9BFFFFFFFFFFFFDA74
3FFFFFFFFFFFFFFFF9
0BFFFFFFFFFFFFFFE2
06FFFFFFFFFFFFFF60
02FFFFFFFFFFFFFF50
00EFFFFFFFFFFFFF70
00BFFFFFFFFFFFFF50
00AFFFFFFFFFFFFF30
009FFFFFFFFFFFFF10
009FFFFFFFFFFFFE00
009FD9BFFFFF48CC00
0021002FFFFE000300
0000000EFFFF100000
0000000FFFFF100000
0000000EFFFF100000
0000002FFFFC000000
0000002FFFFE000000
0000001FFFFC000000
0000000FFFFA000000
0000000EFFFA000000
00000009FFFC000000
0000000AFFFC000000
0000000BFFFC000000
0000000BFFFC000000
0000000CFFCA000000
0000000CAB36000000
000000060000000000
ENDCHAR
STARTCHAR Utilde
ENCODING 360
SWIDTH 637 0
DWIDTH 20 0
BBX 20 35 0 -2
BITMAP
00000200000084000000
0001AE60001CFFC20000
003DFFF419EFFFFC1000
007FFFFFFFFFFFFF9100
000BFFFFFFFFFFFFE000
0001DFFFFFFDEFFF4000
00002DFFF9202BD30000
00000036200001100000
00000000000000000000
00257999910243210000
4BFFFFFFE000FFFFDA52
01DFFFFFE002FFFFFFD3
006FFFFFE004FFFFFF30
006FFFFFC004FFFFFD00
005FFFFFB004FFFFFB00
002FFFFFF104FFFFF700
000EFFFFF305FFFFF400
000CFFFFF305FFFFF100
000AFFFFF306FFFFC000
0008FFFFF207FFFF8000
0006FFFFE007FFFF5000
0004FFFFB008FFFF2000
0003FFFF900BFFFF1000
0004FFFFB00BFFFF0000
0005FFFFD00CFFFF0000
0002FFFFE00DFFFC0000
0002FFFFF20EFFFB0000
0000DFFFF31FFFF80000
00009FFFF66FFFF60000
00007FFFFFFFFFF40000
00004FFFFFFFFFE00000
00000EFFE7FFFF700000
000001DDC09583100000
00000077104190000000
00000011001370000000
ENDCHAR
STARTCHAR utilde
ENCODING 361
SWIDTH 708 0
DWIDTH 23 0
BBX 23 34 0 -1
BITMAP
000000200000075000000000
000008F70001BEFD30000000
0002CFFF508EFFFFE2000000
0005FFFFFFFFFFFFFB100000
00009FFFFFFFFFFFFF200000
00000CFFFFFFDEFFF6000000
000001CFFFA301AE40000000
000000037200000100000000
000000000000000000000000
000025788820022100000000
28CEFFFFFF3006FFD9B71000
01DFFFFFFF1006FFFFFFFA50
005FFFFFFF1009FFFFFFFB10
003FFFFFFF200BFFFFFFC100
001EFFFFFF1009FFFFFF8000
000AFFFFFF5007FFFFFF3000
0007FFFFFF7007FFFFFC0000
0005FFFFFF8008FFFFF70000
0002FFFFFF8008FFFFF30000
0000EFFFFF8009FFFFE00000
0000CFFFFF800AFFFFB00000
00009FFFFF300AFFFF900000
00008FFFFF300EFFFF800000
00007FFFFF301FFFFF700000
00006FFFFF400FFFFF600000
00006FFFFF800FFFFF400000
00001EFFFFB02FFFFF100000
00000BFFFFB06FFFFC000000
000004FFFFD19FFFFB000000
000001FFFFFFFFFFF7000000
000000DFFFFFFFFFF3000000
000000AFFFB8FFFFC0000000
00000001BA7088A940000000
000000000010011000000000
ENDCHAR
STARTCHAR Umacron
ENCODING 362
SWIDTH 637 0
DWIDTH 20 0
BBX 20 33 0 -2
BITMAP
00000333200101220000
00002FFFFEFFFEF80000
00003FFFFFFFFFF80000
00004FFFFFFFFFF70000
0000055ABA7877B40000
00000000000000000000
00000000000000000000
00257999910243210000
4BFFFFFFE000FFFFDA52
01DFFFFFE002FFFFFFD3
006FFFFFE004FFFFFF30
006FFFFFC004FFFFFD00
005FFFFFB004FFFFFB00
002FFFFFF104FFFFF700
000EFFFFF305FFFFF400
000CFFFFF305FFFFF100
000AFFFFF306FFFFC000
0008FFFFF207FFFF8000
0006FFFFE007FFFF5000
0004FFFFB008FFFF2000
0003FFFF900BFFFF1000
0004FFFFB00BFFFF0000
0005FFFFD00CFFFF0000
0002FFFFE00DFFFC0000
0002FFFFF20EFFFB0000
0000DFFFF31FFFF80000
00009FFFF66FFFF60000
00007FFFFFFFFFF40000
00004FFFFFFFFFE00000
00000EFFE7FFFF700000
000001DDC09583100000
00000077104190000000
00000011001370000000
ENDCHAR
STARTCHAR umacron
ENCODING 363
SWIDTH 708 0
DWIDTH 23 0
BBX 23 32 0 -1
BITMAP
000000333300100220000000
000000FFFFEFFFEFA0000000
000001FFFFFFFFFFA0000000
000002FFFFFFFFFF80000000
00000044ABB6986B60000000
000000000000000000000000
000000000000000000000000
000025788820022100000000
28CEFFFFFF3006FFD9B71000
01DFFFFFFF1006FFFFFFFA50
005FFFFFFF1009FFFFFFFB10
003FFFFFFF200BFFFFFFC100
001EFFFFFF1009FFFFFF8000
000AFFFFFF5007FFFFFF3000
0007FFFFFF7007FFFFFC0000
0005FFFFFF8008FFFFF70000
0002FFFFFF8008FFFFF30000
0000EFFFFF8009FFFFE00000
0000CFFFFF800AFFFFB00000
00009FFFFF300AFFFF900000
00008FFFFF300EFFFF800000
00007FFFFF301FFFFF700000
00006FFFFF400FFFFF600000
00006FFFFF800FFFFF400000
00001EFFFFB02FFFFF100000
00000BFFFFB06FFFFC000000
000004FFFFD19FFFFB000000
000001FFFFFFFFFFF7000000
000000DFFFFFFFFFF3000000
000000AFFFB8FFFFC0000000
00000001BA7088A940000000
000000000010011000000000
ENDCHAR
STARTCHAR Ubreve
ENCODING 364
SWIDTH 637 0
DWIDTH 20 0
BBX 20 37 0 -2
BITMAP
00000AAAA00001000000
00000BFFF00009FEC400
000007FFF2000DFFF200
000003FFFB205FFFC000
000001FFFFFEFFFF9000
000000BFFFFFFFFF2000
000000369FFFFFF70000
000000001D26FEE20000
000000000102D2910000
00000000000000300000
00000000000000000000
00257999910243210000
4BFFFFFFE000FFFFDA52
01DFFFFFE002FFFFFFD3
006FFFFFE004FFFFFF30
006FFFFFC004FFFFFD00
005FFFFFB004FFFFFB00
002FFFFFF104FFFFF700
000EFFFFF305FFFFF400
000CFFFFF305FFFFF100
000AFFFFF306FFFFC000
0008FFFFF207FFFF8000
0006FFFFE007FFFF5000
0004FFFFB008FFFF2000
0003FFFF900BFFFF1000
0004FFFFB00BFFFF0000
0005FFFFD00CFFFF0000
0002FFFFE00DFFFC0000
0002FFFFF20EFFFB0000
0000DFFFF31FFFF80000
00009FFFF66FFFF60000
00007FFFFFFFFFF40000
00004FFFFFFFFFE00000
00000EFFE7FFFF700000
000001DDC09583100000
00000077104190000000
00000011001370000000
ENDCHAR
STARTCHAR ubreve
ENCODING 365
SWIDTH 708 0
DWIDTH 23 0
BBX 23 36 0 -1
BITMAP
0000007AAA30000000000000
0000007FFF50005FED700000
0000002FFF70008FFF600000
0000000EFFE301EFFF100000
0000000CFFFFEEFFFD000000
00000007FFFFFFFFF6000000
0000000077FFFFFFC0000000
0000000000A61FFC60000000
0000000000100B5450000000
000000000000000220000000
000000000000000000000000
000025788820022100000000
28CEFFFFFF3006FFD9B71000
01DFFFFFFF1006FFFFFFFA50
005FFFFFFF1009FFFFFFFB10
003FFFFFFF200BFFFFFFC100
001EFFFFFF1009FFFFFF8000
000AFFFFFF5007FFFFFF3000
0007FFFFFF7007FFFFFC0000
0005FFFFFF8008FFFFF70000
0002FFFFFF8008FFFFF30000
0000EFFFFF8009FFFFE00000
0000CFFFFF800AFFFFB00000
00009FFFFF300AFFFF900000
00008FFFFF300EFFFF800000
00007FFFFF301FFFFF700000
00006FFFFF400FFFFF600000
00006FFFFF800FFFFF400000
00001EFFFFB02FFFFF100000
00000BFFFFB06FFFFC000000
000004FFFFD19FFFFB000000
000001FFFFFFFFFFF7000000
000000DFFFFFFFFFF3000000
000000AFFFB8FFFFC0000000
00000001BA7088A940000000
000000000010011000000000
ENDCHAR
STARTCHAR Uring
ENCODING 366
SWIDTH 637 0
DWIDTH 20 0
BBX 20 38 0 -2
BITMAP
00000000034310000000
00000005EFFFE4000000
0000003FFFFFFF400000
0000009FF86BFFC00000
0000009FC0009FC00000
0000006FC0007FB00000
0000002FE401CF300000
0000000EFFEFFA000000
0000000ABFFFE2000000
0000000005AA10000000
00000000000000000000
00000000000000000000
00257999910243210000
4BFFFFFFE000FFFFDA52
01DFFFFFE002FFFFFFD3
006FFFFFE004FFFFFF30
006FFFFFC004FFFFFD00
005FFFFFB004FFFFFB00
002FFFFFF104FFFFF700
000EFFFFF305FFFFF400
000CFFFFF305FFFFF100
000AFFFFF306FFFFC000
0008FFFFF207FFFF8000
0006FFFFE007FFFF5000
0004FFFFB008FFFF2000
0003FFFF900BFFFF1000
0004FFFFB00BFFFF0000
0005FFFFD00CFFFF0000
0002FFFFE00DFFFC0000
0002FFFFF20EFFFB0000
0000DFFFF31FFFF80000
00009FFFF66FFFF60000
00007FFFFFFFFFF40000
00004FFFFFFFFFE00000
00000EFFE7FFFF700000
000001DDC09583100000
00000077104190000000
00000011001370000000
ENDCHAR
STARTCHAR uring
ENCODING 367
SWIDTH 708 0
DWIDTH 23 0
BBX 23 37 0 -1
BITMAP
000000000024430000000000
000000001AFFFFA100000000
00000000AFFFFFFB10000000
00000001FFC77EFF50000000
00000001FF5002FF50000000
00000000DF5000EF40000000
000000009FA105FA00000000
000000007FFFEFF300000000
000000003CDFFF9000000000
000000000028B50000000000
000000000000000000000000
000000000000000000000000
000025788820022100000000
28CEFFFFFF3006FFD9B71000
01DFFFFFFF1006FFFFFFFA50
005FFFFFFF1009FFFFFFFB10
003FFFFFFF200BFFFFFFC100
001EFFFFFF1009FFFFFF8000
000AFFFFFF5007FFFFFF3000
0007FFFFFF7007FFFFFC0000
0005FFFFFF8008FFFFF70000
0002FFFFFF8008FFFFF30000
0000EFFFFF8009FFFFE00000
0000CFFFFF800AFFFFB00000
00009FFFFF300AFFFF900000
00008FFFFF300EFFFF800000
00007FFFFF301FFFFF700000
00006FFFFF400FFFFF600000
00006FFFFF800FFFFF400000
00001EFFFFB02FFFFF100000
00000BFFFFB06FFFFC000000
000004FFFFD19FFFFB000000
000001FFFFFFFFFFF7000000
000000DFFFFFFFFFF3000000
000000AFFFB8FFFFC0000000
00000001BA7088A940000000
000000000010011000000000
ENDCHAR
STARTCHAR Uhungarumlaut
ENCODING 368
SWIDTH 637 0
DWIDTH 20 0
BBX 20 39 0 -2
BITMAP
00000001000000100000
0000002E800001E80000
0000008FFA1006FF8720
000000EFFFC10CFFFFE1
000005FFFFC12FFFFE30
00000BFFFD108FFFF400
00002FFFE200DFFF5000
00009FFE3004FFF60000
0002FFF4000AFF700000
0008FF60002FF8000000
0005F700001DB0000000
00003000000210000000
00000000000000000000
00257999910243210000
4BFFFFFFE000FFFFDA52
01DFFFFFE002FFFFFFD3
006FFFFFE004FFFFFF30
006FFFFFC004FFFFFD00
005FFFFFB004FFFFFB00
002FFFFFF104FFFFF700
000EFFFFF305FFFFF400
000CFFFFF305FFFFF100
000AFFFFF306FFFFC000
0008FFFFF207FFFF8000
0006FFFFE007FFFF5000
0004FFFFB008FFFF2000
0003FFFF900BFFFF1000
0004FFFFB00BFFFF0000
0005FFFFD00CFFFF0000
0002FFFFE00DFFFC0000
0002FFFFF20EFFFB0000
0000DFFFF31FFFF80000
00009FFFF66FFFF60000
00007FFFFFFFFFF40000
00004FFFFFFFFFE00000
00000EFFE7FFFF700000
000001DDC09583100000
00000077104190000000
00000011001370000000
ENDCHAR
STARTCHAR uhungarumlaut
ENCODING 369
SWIDTH 708 0
DWIDTH 23 0
BBX 23 38 0 -1
BITMAP
000000001000000100000000
00000001E900000DA0000000
00000006FFC2004FF9830000
0000000CFFFD10AFFFFF2000
0000003FFFFD11FFFFF50000
0000009FFFE206FFFF600000
000001FFFE300CFFF7000000
000007FFF4002FFF80000000
00001EFF60008FF900000000
00006FF70001EF9000000000
00003F900001CC1000000000
000003000000110000000000
000000000000000000000000
000025788820022100000000
28CEFFFFFF3006FFD9B71000
01DFFFFFFF1006FFFFFFFA50
005FFFFFFF1009FFFFFFFB10
003FFFFFFF200BFFFFFFC100
001EFFFFFF1009FFFFFF8000
000AFFFFFF5007FFFFFF3000
0007FFFFFF7007FFFFFC0000
0005FFFFFF8008FFFFF70000
0002FFFFFF8008FFFFF30000
0000EFFFFF8009FFFFE00000
0000CFFFFF800AFFFFB00000
00009FFFFF300AFFFF900000
00008FFFFF300EFFFF800000
00007FFFFF301FFFFF700000
00006FFFFF400FFFFF600000
00006FFFFF800FFFFF400000
00001EFFFFB02FFFFF100000
00000BFFFFB06FFFFC000000
000004FFFFD19FFFFB000000
000001FFFFFFFFFFF7000000
000000DFFFFFFFFFF3000000
000000AFFFB8FFFFC0000000
00000001BA7088A940000000
000000000010011000000000
ENDCHAR
STARTCHAR Uogonek
ENCODING 370
SWIDTH 637 0
DWIDTH 20 0
BBX 20 35 0 -11
BITMAP
00257999910243210000
4BFFFFFFE000FFFFDA52
01DFFFFFE002FFFFFFD3
006FFFFFE004FFFFFF30
006FFFFFC004FFFFFD00
005FFFFFB004FFFFFB00
002FFFFFF104FFFFF700
000EFFFFF305FFFFF400
000CFFFFF305FFFFF100
000AFFFFF306FFFFC000
0008FFFFF207FFFF8000
0006FFFFE007FFFF5000
0004FFFFB008FFFF2000
0003FFFF900BFFFF1000
0004FFFFB00BFFFF0000
0005FFFFD00CFFFF0000
0002FFFFE00DFFFC0000
0002FFFFF20EFFFB0000
0000DFFFF31FFFF80000
00009FFFF66FFFF60000
00007FFFFFFFFFF40000
00004FFFFFFFFFE00000
00000EFFE7FFFF700000
000001DDC1FFF3100000
0000007714FFF0000000
0000001107FFF0000000
000000000AFF80000000
000000000CFF70000000
000000000BFFB0000000
000000000AFFF7000000
0000000006FFFFEDD800
0000000001EFFFFFF800
00000000005FFFFFF700
000000000003AEFFE500
00000000000000231100
ENDCHAR
STARTCHAR uogonek
ENCODING 371
SWIDTH 662 0
DWIDTH 21 0
BBX 23 34 0 -10
BITMAP
000025788810022100000000
39CEFFFFFF1008FFD9B61000
02EFFFFFFE0008FFFFFFFA40
006FFFFFFE000BFFFFFFFA10
004FFFFFFF100DFFFFFFB000
002FFFFFFE000AFFFFFF7000
000CFFFFFF3008FFFFFF2000
0009FFFFFF5009FFFFFA0000
0006FFFFFF6009FFFFF50000
0003FFFFFF700AFFFFF10000
0000FFFFFF700BFFFFC00000
0000DFFFFF600BFFFFA00000
0000BFFFFF200CFFFF800000
00009FFFFF101FFFFF600000
00008FFFFF103FFFFF600000
00008FFFFF301FFFFF500000
00007FFFFF602FFFFF300000
00002FFFFF904FFFFE000000
00000CFFFFA07FFFFA000000
000006FFFFC1AFFFF9000000
000003FFFFFFFFFFF6000000
000000EFFFFFFFFFE2000000
000000BFFFFFFFFFB0000000
00000001CFFFF99930000000
000000000FFF320000000000
000000002FFF000000000000
000000005FFE000000000000
000000004FFF300000000000
000000003FFFC20000000000
000000000EFFFFDDD1000000
0000000008FFFFFFF0000000
0000000001CFFFFFE0000000
000000000007CFFFC0000000
000000000000012210000000
ENDCHAR
ENDFONT
